<svg xmlns="http://www.w3.org/2000/svg" xmlns:xlink="http://www.w3.org/1999/xlink" version="1.1" width="100" height="50" viewBox="0 0 100 50" xml:space="preserve">
<desc>Created with Fabric.js 3.5.0</desc>
<defs>
</defs>
<rect x="0" y="0" width="100%" height="100%" fill="rgba(255,255,255,0)"/>
<g transform="matrix(1 0 0 1 21.4492 24.5)" id="704739">
<path style="stroke: none; stroke-width: 1; stroke-dasharray: none; stroke-linecap: butt; stroke-dashoffset: 0; stroke-linejoin: miter; stroke-miterlimit: 4; is-custom-font: none; font-file-url: none; fill: rgb(141,141,141); fill-rule: nonzero; opacity: 1;" vector-effect="non-scaling-stroke" transform=" translate(-25, -25)" d="M 25 3 C 22.089763 3 19.426171 4.6219485 18.101562 7.2109375 C 18.101562 7.2109375 18.101562 7.2128906 18.101562 7.2128906 C 18.100721 7.2145406 18.098456 7.2151469 18.097656 7.2167969 C 14.362181 14.470691 11.153754 20.806968 8.8125 25.537109 C 7.6414743 27.902985 6.687023 29.865615 5.9882812 31.351562 C 5.2895395 32.837511 4.8852246 33.690051 4.6484375 34.445312 L 4.6464844 34.451172 L 4.6445312 34.455078 C 4.3882597 35.286653 4.0507813 36.398902 4.0507812 37.710938 C 4.050775 42.817736 8.2464268 47 13.359375 47 C 19.155308 47 23.13514 42.379741 25 40.246094 C 26.863773 42.378622 30.84408 47 36.640625 47 C 41.753573 47 45.949219 42.817041 45.949219 37.710938 C 45.949219 36.400725 45.611269 35.290244 45.357422 34.462891 L 45.355469 34.457031 L 45.353516 34.451172 C 45.116766 33.696932 44.710766 32.842025 44.011719 31.355469 C 43.312672 29.868912 42.358775 27.905437 41.1875 25.539062 C 38.845946 20.808326 35.636451 14.471917 31.900391 7.2167969 L 31.896484 7.2089844 C 30.573258 4.6215238 27.909692 3 25 3 z M 25 7 C 26.501366 7 27.663733 7.7112326 28.337891 9.0332031 L 28.339844 9.0371094 L 28.341797 9.0410156 C 32.072698 16.286027 35.273612 22.609248 37.601562 27.3125 C 38.765538 29.664126 39.712688 31.612775 40.392578 33.058594 C 41.070992 34.501273 41.51864 35.591444 41.535156 35.642578 C 41.766356 36.396981 41.949219 37.142801 41.949219 37.710938 C 41.949219 40.640833 39.589677 43 36.640625 43 C 33.058397 43 29.288603 39.125076 27.574219 37.181641 L 27.570312 37.177734 L 27.564453 37.171875 C 29.414381 34.870802 32.5 30.815064 32.5 26.285156 C 32.5 22.24174 29.075312 19 25 19 C 20.924688 19 17.5 22.24174 17.5 26.285156 C 17.5 30.821724 20.585713 34.874909 22.433594 37.171875 L 22.429688 37.175781 L 22.425781 37.181641 C 20.71032 39.126116 16.941603 43 13.359375 43 C 10.410323 43 8.0507812 40.642105 8.0507812 37.710938 C 8.0507812 37.139669 8.2326858 36.397306 8.4648438 35.642578 C 8.4785567 35.598838 8.9298042 34.499865 9.609375 33.054688 C 10.288946 31.60951 11.234712 29.661671 12.398438 27.310547 C 14.725886 22.608298 17.926351 16.285977 21.65625 9.0429688 L 21.658203 9.0390625 L 21.660156 9.0371094 C 22.336573 7.7118248 23.498634 7 25 7 z M 25 23 C 26.990688 23 28.5 24.498572 28.5 26.285156 C 28.5 28.42415 26.577097 31.630372 24.998047 33.798828 C 23.4206 31.634253 21.5 28.434819 21.5 26.285156 C 21.5 24.498572 23.009312 23 25 23 z" stroke-linecap="round"/>
</g>
<g transform="matrix(1 0 0 1 66.5781 25)" style="" id="726132">
		
<path xml:space="preserve" font-family="Lato" font-size="16" font-style="normal" font-weight="normal" style="stroke: none; stroke-width: 1; stroke-dasharray: none; stroke-linecap: butt; stroke-dashoffset: 0; stroke-linejoin: miter; stroke-miterlimit: 4; is-custom-font: none; font-file-url: none; fill: rgb(141,141,141); fill-rule: nonzero; opacity: 1; white-space: pre;" d="M-15.87-0.16L-15.87 5.03L-16.51 5.03Q-16.71 5.03-16.84 4.96Q-16.97 4.90-17.01 4.69L-17.01 4.69L-17.17 3.94Q-17.49 4.23-17.79 4.45Q-18.10 4.68-18.43 4.84Q-18.77 4.99-19.15 5.07Q-19.53 5.15-19.99 5.15L-19.99 5.15Q-20.47 5.15-20.88 5.02Q-21.29 4.89-21.59 4.63Q-21.90 4.36-22.08 3.96Q-22.26 3.55-22.26 3.00L-22.26 3.00Q-22.26 2.52-21.99 2.08Q-21.73 1.63-21.14 1.29Q-20.55 0.95-19.60 0.73Q-18.65 0.51-17.27 0.47L-17.27 0.47L-17.27-0.16Q-17.27-1.10-17.68-1.59Q-18.08-2.07-18.87-2.07L-18.87-2.07Q-19.39-2.07-19.75-1.94Q-20.11-1.81-20.37-1.64Q-20.63-1.48-20.81-1.35Q-21.00-1.21-21.19-1.21L-21.19-1.21Q-21.33-1.21-21.44-1.29Q-21.55-1.37-21.61-1.48L-21.61-1.48L-21.87-1.93Q-21.19-2.58-20.42-2.90Q-19.64-3.22-18.70-3.22L-18.70-3.22Q-18.02-3.22-17.49-3.00Q-16.96-2.77-16.60-2.37Q-16.24-1.97-16.06-1.41Q-15.87-0.84-15.87-0.16L-15.87-0.16ZM-19.57 4.15L-19.57 4.15Q-19.19 4.15-18.88 4.08Q-18.57 4.00-18.29 3.86Q-18.02 3.72-17.77 3.52Q-17.51 3.32-17.27 3.07L-17.27 3.07L-17.27 1.38Q-18.26 1.41-18.95 1.53Q-19.63 1.66-20.07 1.86Q-20.50 2.06-20.69 2.33Q-20.89 2.60-20.89 2.94L-20.89 2.94Q-20.89 3.26-20.79 3.49Q-20.68 3.72-20.51 3.87Q-20.33 4.02-20.09 4.09Q-19.85 4.15-19.57 4.15ZM-13.55-3.08L-12.13-3.08L-12.13 5.03L-13.55 5.03L-13.55-3.08ZM-11.81-5.62L-11.81-5.62Q-11.81-5.41-11.89-5.23Q-11.98-5.05-12.12-4.91Q-12.26-4.77-12.44-4.69Q-12.63-4.61-12.83-4.61L-12.83-4.61Q-13.04-4.61-13.22-4.69Q-13.40-4.77-13.54-4.91Q-13.68-5.05-13.76-5.23Q-13.84-5.41-13.84-5.62L-13.84-5.62Q-13.84-5.83-13.76-6.02Q-13.68-6.21-13.54-6.35Q-13.40-6.49-13.22-6.57Q-13.04-6.65-12.83-6.65L-12.83-6.65Q-12.63-6.65-12.44-6.57Q-12.26-6.49-12.12-6.35Q-11.98-6.21-11.89-6.02Q-11.81-5.83-11.81-5.62ZM-8.19 5.03L-9.62 5.03L-9.62-3.08L-8.80-3.08Q-8.57-3.08-8.48-2.99Q-8.39-2.90-8.36-2.69L-8.36-2.69L-8.27-1.42Q-7.85-2.27-7.24-2.75Q-6.63-3.22-5.80-3.22L-5.80-3.22Q-5.47-3.22-5.19-3.15Q-4.92-3.07-4.69-2.93L-4.69-2.93L-4.87-1.87Q-4.93-1.67-5.12-1.67L-5.12-1.67Q-5.23-1.67-5.47-1.75Q-5.70-1.82-6.11-1.82L-6.11-1.82Q-6.86-1.82-7.36-1.39Q-7.86-0.96-8.19-0.13L-8.19-0.13L-8.19 5.03ZM-2.20 5.03L-3.12 5.03L-3.12-6.76L-1.69-6.76L-1.69-1.91Q-1.19-2.49-0.53-2.85Q0.12-3.21 0.96-3.21L0.96-3.21Q1.66-3.21 2.23-2.94Q2.80-2.68 3.20-2.15Q3.60-1.63 3.81-0.86Q4.03-0.09 4.03 0.92L4.03 0.92Q4.03 1.82 3.79 2.59Q3.55 3.36 3.10 3.93Q2.65 4.49 1.99 4.81Q1.34 5.14 0.53 5.14L0.53 5.14Q-0.26 5.14-0.81 4.83Q-1.35 4.53-1.76 3.99L-1.76 3.99L-1.83 4.72Q-1.90 5.03-2.20 5.03L-2.20 5.03ZM0.49-2.07L0.49-2.07Q-0.20-2.07-0.73-1.75Q-1.25-1.43-1.69-0.85L-1.69-0.85L-1.69 3.07Q-1.31 3.60-0.84 3.82Q-0.37 4.03 0.21 4.03L0.21 4.03Q1.34 4.03 1.95 3.23Q2.56 2.42 2.56 0.92L2.56 0.92Q2.56 0.13 2.42-0.44Q2.28-1.01 2.01-1.37Q1.75-1.73 1.37-1.90Q0.98-2.07 0.49-2.07ZM7.20 5.03L5.77 5.03L5.77-3.08L6.62-3.08Q6.93-3.08 7.01-2.78L7.01-2.78L7.12-1.90Q7.65-2.49 8.30-2.85Q8.95-3.21 9.81-3.21L9.81-3.21Q10.47-3.21 10.98-2.99Q11.49-2.77 11.83-2.36Q12.17-1.96 12.34-1.39Q12.52-0.82 12.52-0.13L12.52-0.13L12.52 5.03L11.09 5.03L11.09-0.13Q11.09-1.05 10.67-1.56Q10.25-2.07 9.39-2.07L9.39-2.07Q8.76-2.07 8.21-1.77Q7.66-1.46 7.20-0.94L7.20-0.94L7.20 5.03ZM15.64 5.03L14.72 5.03L14.72-6.76L16.15-6.76L16.15-1.91Q16.65-2.49 17.31-2.85Q17.96-3.21 18.80-3.21L18.80-3.21Q19.50-3.21 20.07-2.94Q20.64-2.68 21.04-2.15Q21.44-1.63 21.65-0.86Q21.87-0.09 21.87 0.92L21.87 0.92Q21.87 1.82 21.63 2.59Q21.39 3.36 20.94 3.93Q20.49 4.49 19.83 4.81Q19.18 5.14 18.37 5.14L18.37 5.14Q17.58 5.14 17.03 4.83Q16.49 4.53 16.08 3.99L16.08 3.99L16.01 4.72Q15.94 5.03 15.64 5.03L15.64 5.03ZM18.33-2.07L18.33-2.07Q17.64-2.07 17.11-1.75Q16.59-1.43 16.15-0.85L16.15-0.85L16.15 3.07Q16.53 3.60 17.00 3.82Q17.47 4.03 18.05 4.03L18.05 4.03Q19.18 4.03 19.79 3.23Q20.40 2.42 20.40 0.92L20.40 0.92Q20.40 0.13 20.26-0.44Q20.12-1.01 19.85-1.37Q19.59-1.73 19.21-1.90Q18.82-2.07 18.33-2.07Z"/></g>
</svg>