<svg xmlns="http://www.w3.org/2000/svg" xmlns:xlink="http://www.w3.org/1999/xlink" version="1.1" width="100" height="50" viewBox="0 0 100 50" xml:space="preserve">
<desc>Created with Fabric.js 3.5.0</desc>
<defs>
</defs>
<rect x="0" y="0" width="100%" height="100%" fill="rgba(255,255,255,0)"/>
<g transform="matrix(1 0 0 1 50 -14.55)" style="" id="578576">
		
<path xml:space="preserve" font-family="Lato" font-size="6" font-style="normal" font-weight="normal" style="stroke: none; stroke-width: 1; stroke-dasharray: none; stroke-linecap: butt; stroke-dashoffset: 0; stroke-linejoin: miter; stroke-miterlimit: 4; is-custom-font: none; font-file-url: none; fill: rgb(0,0,0); fill-rule: nonzero; opacity: 1; white-space: pre;" d="M-16.12-2.41L-14.40 1.88L-14.85 1.88Q-14.92 1.88-14.97 1.85Q-15.02 1.81-15.04 1.75L-15.04 1.75L-15.45 0.71L-17.38 0.71L-17.78 1.75Q-17.80 1.80-17.85 1.84Q-17.90 1.88-17.98 1.88L-17.98 1.88L-18.43 1.88L-16.71-2.41L-16.12-2.41ZM-16.54-1.46L-17.21 0.29L-15.61 0.29L-16.28-1.46Q-16.35-1.62-16.41-1.87L-16.41-1.87Q-16.45-1.74-16.48-1.64Q-16.51-1.54-16.54-1.46L-16.54-1.46ZM-11.48 1.88L-11.80 1.88Q-11.91 1.88-11.94 1.77L-11.94 1.77L-11.99 1.40Q-12.19 1.64-12.44 1.78Q-12.69 1.93-13.01 1.93L-13.01 1.93Q-13.27 1.93-13.48 1.83Q-13.70 1.73-13.85 1.53Q-14.00 1.34-14.08 1.04Q-14.16 0.75-14.16 0.38L-14.16 0.38Q-14.16 0.04-14.07-0.25Q-13.98-0.54-13.81-0.75Q-13.64-0.97-13.40-1.09Q-13.15-1.21-12.85-1.21L-12.85-1.21Q-12.57-1.21-12.37-1.11Q-12.17-1.02-12.01-0.85L-12.01-0.85L-12.01-2.53L-11.48-2.53L-11.48 1.88ZM-12.83 1.49L-12.83 1.49Q-12.57 1.49-12.38 1.37Q-12.18 1.25-12.01 1.04L-12.01 1.04L-12.01-0.43Q-12.16-0.63-12.34-0.71Q-12.51-0.79-12.73-0.79L-12.73-0.79Q-13.15-0.79-13.38-0.49Q-13.61-0.19-13.61 0.38L-13.61 0.38Q-13.61 0.67-13.56 0.88Q-13.51 1.10-13.41 1.23Q-13.31 1.37-13.16 1.43Q-13.02 1.49-12.83 1.49ZM-8.13 1.88L-8.44 1.88Q-8.56 1.88-8.59 1.77L-8.59 1.77L-8.64 1.40Q-8.83 1.64-9.08 1.78Q-9.33 1.93-9.66 1.93L-9.66 1.93Q-9.92 1.93-10.13 1.83Q-10.34 1.73-10.49 1.53Q-10.64 1.34-10.72 1.04Q-10.81 0.75-10.81 0.38L-10.81 0.38Q-10.81 0.04-10.72-0.25Q-10.63-0.54-10.46-0.75Q-10.29-0.97-10.04-1.09Q-9.80-1.21-9.49-1.21L-9.49-1.21Q-9.21-1.21-9.01-1.11Q-8.82-1.02-8.66-0.85L-8.66-0.85L-8.66-2.53L-8.13-2.53L-8.13 1.88ZM-9.48 1.49L-9.48 1.49Q-9.22 1.49-9.02 1.37Q-8.83 1.25-8.66 1.04L-8.66 1.04L-8.66-0.43Q-8.81-0.63-8.98-0.71Q-9.16-0.79-9.37-0.79L-9.37-0.79Q-9.80-0.79-10.03-0.49Q-10.25-0.19-10.25 0.38L-10.25 0.38Q-10.25 0.67-10.20 0.88Q-10.15 1.10-10.05 1.23Q-9.95 1.37-9.81 1.43Q-9.67 1.49-9.48 1.49ZM-4.47 1.88L-5.99 1.88L-5.99-2.41L-4.62-2.41Q-4.22-2.41-3.93-2.34Q-3.65-2.26-3.46-2.11Q-3.28-1.97-3.19-1.76Q-3.10-1.55-3.10-1.29L-3.10-1.29Q-3.10-1.13-3.15-0.99Q-3.20-0.84-3.30-0.71Q-3.40-0.59-3.55-0.49Q-3.70-0.39-3.91-0.33L-3.91-0.33Q-3.44-0.23-3.20 0.01Q-2.96 0.26-2.96 0.66L-2.96 0.66Q-2.96 0.93-3.06 1.16Q-3.16 1.38-3.35 1.55Q-3.55 1.71-3.83 1.80Q-4.11 1.88-4.47 1.88L-4.47 1.88ZM-4.48-0.07L-5.41-0.07L-5.41 1.42L-4.48 1.42Q-4.23 1.42-4.05 1.37Q-3.87 1.31-3.75 1.21Q-3.64 1.10-3.58 0.96Q-3.53 0.82-3.53 0.65L-3.53 0.65Q-3.53 0.31-3.77 0.12Q-4.00-0.07-4.48-0.07L-4.48-0.07ZM-5.41-1.96L-5.41-0.49L-4.64-0.49Q-4.39-0.49-4.21-0.54Q-4.03-0.60-3.91-0.69Q-3.79-0.79-3.74-0.92Q-3.68-1.06-3.68-1.22L-3.68-1.22Q-3.68-1.60-3.91-1.78Q-4.14-1.96-4.62-1.96L-4.62-1.96L-5.41-1.96ZM-0.96-1.20L-0.96-1.20Q-0.63-1.20-0.36-1.09Q-0.09-0.98 0.10-0.78Q0.29-0.57 0.39-0.28Q0.49 0.01 0.49 0.36L0.49 0.36Q0.49 0.72 0.39 1.01Q0.29 1.30 0.10 1.50Q-0.09 1.71-0.36 1.82Q-0.63 1.93-0.96 1.93L-0.96 1.93Q-1.29 1.93-1.56 1.82Q-1.83 1.71-2.02 1.50Q-2.21 1.30-2.31 1.01Q-2.41 0.72-2.41 0.36L-2.41 0.36Q-2.41 0.01-2.31-0.28Q-2.21-0.57-2.02-0.78Q-1.83-0.98-1.56-1.09Q-1.29-1.20-0.96-1.20ZM-0.96 1.51L-0.96 1.51Q-0.51 1.51-0.29 1.21Q-0.07 0.91-0.07 0.37L-0.07 0.37Q-0.07-0.18-0.29-0.48Q-0.51-0.78-0.96-0.78L-0.96-0.78Q-1.19-0.78-1.36-0.70Q-1.52-0.63-1.64-0.48Q-1.75-0.33-1.80-0.12Q-1.86 0.10-1.86 0.37L-1.86 0.37Q-1.86 0.64-1.80 0.85Q-1.75 1.06-1.64 1.21Q-1.52 1.35-1.36 1.43Q-1.19 1.51-0.96 1.51ZM3.60 1.88L3.29 1.88Q3.17 1.88 3.14 1.77L3.14 1.77L3.09 1.40Q2.90 1.64 2.65 1.78Q2.40 1.93 2.07 1.93L2.07 1.93Q1.81 1.93 1.60 1.83Q1.39 1.73 1.24 1.53Q1.09 1.34 1.01 1.04Q0.92 0.75 0.92 0.38L0.92 0.38Q0.92 0.04 1.01-0.25Q1.10-0.54 1.27-0.75Q1.44-0.97 1.69-1.09Q1.93-1.21 2.24-1.21L2.24-1.21Q2.52-1.21 2.72-1.11Q2.91-1.02 3.07-0.85L3.07-0.85L3.07-2.53L3.60-2.53L3.60 1.88ZM2.25 1.49L2.25 1.49Q2.51 1.49 2.71 1.37Q2.90 1.25 3.07 1.04L3.07 1.04L3.07-0.43Q2.92-0.63 2.75-0.71Q2.57-0.79 2.36-0.79L2.36-0.79Q1.93-0.79 1.70-0.49Q1.48-0.19 1.48 0.38L1.48 0.38Q1.48 0.67 1.53 0.88Q1.58 1.10 1.68 1.23Q1.78 1.37 1.92 1.43Q2.06 1.49 2.25 1.49ZM7.09-1.15L5.39 2.78Q5.36 2.84 5.32 2.88Q5.28 2.91 5.20 2.91L5.20 2.91L4.80 2.91L5.36 1.71L4.10-1.15L4.57-1.15Q4.64-1.15 4.67-1.12Q4.71-1.09 4.73-1.04L4.73-1.04L5.54 0.87Q5.57 0.94 5.59 1.00Q5.61 1.07 5.63 1.14L5.63 1.14Q5.65 1.07 5.67 1.00Q5.69 0.94 5.72 0.87L5.72 0.87L6.50-1.04Q6.52-1.09 6.57-1.12Q6.61-1.15 6.66-1.15L6.66-1.15L7.09-1.15ZM8.38-2.41L11.74-2.41L11.74-1.93L10.35-1.93L10.35 1.88L9.77 1.88L9.77-1.93L8.38-1.93L8.38-2.41ZM12.84-1.20L12.84-1.20Q13.12-1.20 13.35-1.11Q13.58-1.02 13.75-0.85Q13.91-0.67 14.01-0.42Q14.10-0.17 14.10 0.16L14.10 0.16Q14.10 0.28 14.08 0.32Q14.05 0.37 13.97 0.37L13.97 0.37L11.95 0.37Q11.96 0.65 12.03 0.87Q12.10 1.08 12.23 1.22Q12.35 1.37 12.53 1.44Q12.70 1.51 12.92 1.51L12.92 1.51Q13.12 1.51 13.26 1.46Q13.41 1.41 13.52 1.36Q13.62 1.31 13.69 1.26Q13.76 1.21 13.81 1.21L13.81 1.21Q13.88 1.21 13.91 1.26L13.91 1.26L14.06 1.46Q13.97 1.58 13.83 1.67Q13.69 1.76 13.53 1.81Q13.37 1.87 13.21 1.90Q13.04 1.93 12.87 1.93L12.87 1.93Q12.56 1.93 12.29 1.82Q12.03 1.71 11.83 1.51Q11.64 1.30 11.53 1.00Q11.42 0.70 11.42 0.30L11.42 0.30Q11.42-0.01 11.52-0.29Q11.62-0.57 11.80-0.77Q11.99-0.97 12.25-1.09Q12.51-1.20 12.84-1.20ZM12.86-0.81L12.86-0.81Q12.47-0.81 12.25-0.59Q12.02-0.36 11.97 0.03L11.97 0.03L13.62 0.03Q13.62-0.15 13.57-0.31Q13.52-0.46 13.42-0.57Q13.32-0.69 13.18-0.75Q13.04-0.81 12.86-0.81ZM14.25 1.88L15.32 0.33L14.29-1.15L14.81-1.15Q14.87-1.15 14.90-1.13Q14.93-1.11 14.96-1.07L14.96-1.07L15.70 0.07Q15.73-0.02 15.78-0.10L15.78-0.10L16.43-1.06Q16.46-1.10 16.49-1.13Q16.52-1.15 16.57-1.15L16.57-1.15L17.06-1.15L16.04 0.30L17.10 1.88L16.59 1.88Q16.52 1.88 16.48 1.85Q16.45 1.82 16.42 1.77L16.42 1.77L15.66 0.58Q15.64 0.67 15.59 0.74L15.59 0.74L14.89 1.77Q14.86 1.82 14.82 1.85Q14.79 1.88 14.73 1.88L14.73 1.88L14.25 1.88ZM18.55 1.93L18.55 1.93Q18.19 1.93 18.00 1.73Q17.80 1.53 17.80 1.15L17.80 1.15L17.80-0.71L17.44-0.71Q17.39-0.71 17.36-0.74Q17.32-0.76 17.32-0.82L17.32-0.82L17.32-1.04L17.82-1.10L17.94-2.04Q17.95-2.08 17.98-2.11Q18.02-2.14 18.07-2.14L18.07-2.14L18.34-2.14L18.34-1.09L19.21-1.09L19.21-0.71L18.34-0.71L18.34 1.12Q18.34 1.31 18.43 1.40Q18.52 1.49 18.67 1.49L18.67 1.49Q18.75 1.49 18.81 1.47Q18.88 1.45 18.92 1.42Q18.97 1.40 19.00 1.37Q19.03 1.35 19.05 1.35L19.05 1.35Q19.10 1.35 19.13 1.40L19.13 1.40L19.28 1.66Q19.15 1.79 18.95 1.86Q18.76 1.93 18.55 1.93Z"/></g>
<g transform="matrix(1 0 0 1 50 -14.55)" style="" id="679541">
		
<path xml:space="preserve" font-family="Lato" font-size="6" font-style="normal" font-weight="normal" style="stroke: none; stroke-width: 1; stroke-dasharray: none; stroke-linecap: butt; stroke-dashoffset: 0; stroke-linejoin: miter; stroke-miterlimit: 4; is-custom-font: none; font-file-url: none; fill: rgb(0,0,0); fill-rule: nonzero; opacity: 1; white-space: pre;" d="M-16.12-2.41L-14.40 1.88L-14.85 1.88Q-14.92 1.88-14.97 1.85Q-15.02 1.81-15.04 1.75L-15.04 1.75L-15.45 0.71L-17.38 0.71L-17.78 1.75Q-17.80 1.80-17.85 1.84Q-17.90 1.88-17.98 1.88L-17.98 1.88L-18.43 1.88L-16.71-2.41L-16.12-2.41ZM-16.54-1.46L-17.21 0.29L-15.61 0.29L-16.28-1.46Q-16.35-1.62-16.41-1.87L-16.41-1.87Q-16.45-1.74-16.48-1.64Q-16.51-1.54-16.54-1.46L-16.54-1.46ZM-11.48 1.88L-11.80 1.88Q-11.91 1.88-11.94 1.77L-11.94 1.77L-11.99 1.40Q-12.19 1.64-12.44 1.78Q-12.69 1.93-13.01 1.93L-13.01 1.93Q-13.27 1.93-13.48 1.83Q-13.70 1.73-13.85 1.53Q-14.00 1.34-14.08 1.04Q-14.16 0.75-14.16 0.38L-14.16 0.38Q-14.16 0.04-14.07-0.25Q-13.98-0.54-13.81-0.75Q-13.64-0.97-13.40-1.09Q-13.15-1.21-12.85-1.21L-12.85-1.21Q-12.57-1.21-12.37-1.11Q-12.17-1.02-12.01-0.85L-12.01-0.85L-12.01-2.53L-11.48-2.53L-11.48 1.88ZM-12.83 1.49L-12.83 1.49Q-12.57 1.49-12.38 1.37Q-12.18 1.25-12.01 1.04L-12.01 1.04L-12.01-0.43Q-12.16-0.63-12.34-0.71Q-12.51-0.79-12.73-0.79L-12.73-0.79Q-13.15-0.79-13.38-0.49Q-13.61-0.19-13.61 0.38L-13.61 0.38Q-13.61 0.67-13.56 0.88Q-13.51 1.10-13.41 1.23Q-13.31 1.37-13.16 1.43Q-13.02 1.49-12.83 1.49ZM-8.13 1.88L-8.44 1.88Q-8.56 1.88-8.59 1.77L-8.59 1.77L-8.64 1.40Q-8.83 1.64-9.08 1.78Q-9.33 1.93-9.66 1.93L-9.66 1.93Q-9.92 1.93-10.13 1.83Q-10.34 1.73-10.49 1.53Q-10.64 1.34-10.72 1.04Q-10.81 0.75-10.81 0.38L-10.81 0.38Q-10.81 0.04-10.72-0.25Q-10.63-0.54-10.46-0.75Q-10.29-0.97-10.04-1.09Q-9.80-1.21-9.49-1.21L-9.49-1.21Q-9.21-1.21-9.01-1.11Q-8.82-1.02-8.66-0.85L-8.66-0.85L-8.66-2.53L-8.13-2.53L-8.13 1.88ZM-9.48 1.49L-9.48 1.49Q-9.22 1.49-9.02 1.37Q-8.83 1.25-8.66 1.04L-8.66 1.04L-8.66-0.43Q-8.81-0.63-8.98-0.71Q-9.16-0.79-9.37-0.79L-9.37-0.79Q-9.80-0.79-10.03-0.49Q-10.25-0.19-10.25 0.38L-10.25 0.38Q-10.25 0.67-10.20 0.88Q-10.15 1.10-10.05 1.23Q-9.95 1.37-9.81 1.43Q-9.67 1.49-9.48 1.49ZM-4.47 1.88L-5.99 1.88L-5.99-2.41L-4.62-2.41Q-4.22-2.41-3.93-2.34Q-3.65-2.26-3.46-2.11Q-3.28-1.97-3.19-1.76Q-3.10-1.55-3.10-1.29L-3.10-1.29Q-3.10-1.13-3.15-0.99Q-3.20-0.84-3.30-0.71Q-3.40-0.59-3.55-0.49Q-3.70-0.39-3.91-0.33L-3.91-0.33Q-3.44-0.23-3.20 0.01Q-2.96 0.26-2.96 0.66L-2.96 0.66Q-2.96 0.93-3.06 1.16Q-3.16 1.38-3.35 1.55Q-3.55 1.71-3.83 1.80Q-4.11 1.88-4.47 1.88L-4.47 1.88ZM-4.48-0.07L-5.41-0.07L-5.41 1.42L-4.48 1.42Q-4.23 1.42-4.05 1.37Q-3.87 1.31-3.75 1.21Q-3.64 1.10-3.58 0.96Q-3.53 0.82-3.53 0.65L-3.53 0.65Q-3.53 0.31-3.77 0.12Q-4.00-0.07-4.48-0.07L-4.48-0.07ZM-5.41-1.96L-5.41-0.49L-4.64-0.49Q-4.39-0.49-4.21-0.54Q-4.03-0.60-3.91-0.69Q-3.79-0.79-3.74-0.92Q-3.68-1.06-3.68-1.22L-3.68-1.22Q-3.68-1.60-3.91-1.78Q-4.14-1.96-4.62-1.96L-4.62-1.96L-5.41-1.96ZM-0.96-1.20L-0.96-1.20Q-0.63-1.20-0.36-1.09Q-0.09-0.98 0.10-0.78Q0.29-0.57 0.39-0.28Q0.49 0.01 0.49 0.36L0.49 0.36Q0.49 0.72 0.39 1.01Q0.29 1.30 0.10 1.50Q-0.09 1.71-0.36 1.82Q-0.63 1.93-0.96 1.93L-0.96 1.93Q-1.29 1.93-1.56 1.82Q-1.83 1.71-2.02 1.50Q-2.21 1.30-2.31 1.01Q-2.41 0.72-2.41 0.36L-2.41 0.36Q-2.41 0.01-2.31-0.28Q-2.21-0.57-2.02-0.78Q-1.83-0.98-1.56-1.09Q-1.29-1.20-0.96-1.20ZM-0.96 1.51L-0.96 1.51Q-0.51 1.51-0.29 1.21Q-0.07 0.91-0.07 0.37L-0.07 0.37Q-0.07-0.18-0.29-0.48Q-0.51-0.78-0.96-0.78L-0.96-0.78Q-1.19-0.78-1.36-0.70Q-1.52-0.63-1.64-0.48Q-1.75-0.33-1.80-0.12Q-1.86 0.10-1.86 0.37L-1.86 0.37Q-1.86 0.64-1.80 0.85Q-1.75 1.06-1.64 1.21Q-1.52 1.35-1.36 1.43Q-1.19 1.51-0.96 1.51ZM3.60 1.88L3.29 1.88Q3.17 1.88 3.14 1.77L3.14 1.77L3.09 1.40Q2.90 1.64 2.65 1.78Q2.40 1.93 2.07 1.93L2.07 1.93Q1.81 1.93 1.60 1.83Q1.39 1.73 1.24 1.53Q1.09 1.34 1.01 1.04Q0.92 0.75 0.92 0.38L0.92 0.38Q0.92 0.04 1.01-0.25Q1.10-0.54 1.27-0.75Q1.44-0.97 1.69-1.09Q1.93-1.21 2.24-1.21L2.24-1.21Q2.52-1.21 2.72-1.11Q2.91-1.02 3.07-0.85L3.07-0.85L3.07-2.53L3.60-2.53L3.60 1.88ZM2.25 1.49L2.25 1.49Q2.51 1.49 2.71 1.37Q2.90 1.25 3.07 1.04L3.07 1.04L3.07-0.43Q2.92-0.63 2.75-0.71Q2.57-0.79 2.36-0.79L2.36-0.79Q1.93-0.79 1.70-0.49Q1.48-0.19 1.48 0.38L1.48 0.38Q1.48 0.67 1.53 0.88Q1.58 1.10 1.68 1.23Q1.78 1.37 1.92 1.43Q2.06 1.49 2.25 1.49ZM7.09-1.15L5.39 2.78Q5.36 2.84 5.32 2.88Q5.28 2.91 5.20 2.91L5.20 2.91L4.80 2.91L5.36 1.71L4.10-1.15L4.57-1.15Q4.64-1.15 4.67-1.12Q4.71-1.09 4.73-1.04L4.73-1.04L5.54 0.87Q5.57 0.94 5.59 1.00Q5.61 1.07 5.63 1.14L5.63 1.14Q5.65 1.07 5.67 1.00Q5.69 0.94 5.72 0.87L5.72 0.87L6.50-1.04Q6.52-1.09 6.57-1.12Q6.61-1.15 6.66-1.15L6.66-1.15L7.09-1.15ZM8.38-2.41L11.74-2.41L11.74-1.93L10.35-1.93L10.35 1.88L9.77 1.88L9.77-1.93L8.38-1.93L8.38-2.41ZM12.84-1.20L12.84-1.20Q13.12-1.20 13.35-1.11Q13.58-1.02 13.75-0.85Q13.91-0.67 14.01-0.42Q14.10-0.17 14.10 0.16L14.10 0.16Q14.10 0.28 14.08 0.32Q14.05 0.37 13.97 0.37L13.97 0.37L11.95 0.37Q11.96 0.65 12.03 0.87Q12.10 1.08 12.23 1.22Q12.35 1.37 12.53 1.44Q12.70 1.51 12.92 1.51L12.92 1.51Q13.12 1.51 13.26 1.46Q13.41 1.41 13.52 1.36Q13.62 1.31 13.69 1.26Q13.76 1.21 13.81 1.21L13.81 1.21Q13.88 1.21 13.91 1.26L13.91 1.26L14.06 1.46Q13.97 1.58 13.83 1.67Q13.69 1.76 13.53 1.81Q13.37 1.87 13.21 1.90Q13.04 1.93 12.87 1.93L12.87 1.93Q12.56 1.93 12.29 1.82Q12.03 1.71 11.83 1.51Q11.64 1.30 11.53 1.00Q11.42 0.70 11.42 0.30L11.42 0.30Q11.42-0.01 11.52-0.29Q11.62-0.57 11.80-0.77Q11.99-0.97 12.25-1.09Q12.51-1.20 12.84-1.20ZM12.86-0.81L12.86-0.81Q12.47-0.81 12.25-0.59Q12.02-0.36 11.97 0.03L11.97 0.03L13.62 0.03Q13.62-0.15 13.57-0.31Q13.52-0.46 13.42-0.57Q13.32-0.69 13.18-0.75Q13.04-0.81 12.86-0.81ZM14.25 1.88L15.32 0.33L14.29-1.15L14.81-1.15Q14.87-1.15 14.90-1.13Q14.93-1.11 14.96-1.07L14.96-1.07L15.70 0.07Q15.73-0.02 15.78-0.10L15.78-0.10L16.43-1.06Q16.46-1.10 16.49-1.13Q16.52-1.15 16.57-1.15L16.57-1.15L17.06-1.15L16.04 0.30L17.10 1.88L16.59 1.88Q16.52 1.88 16.48 1.85Q16.45 1.82 16.42 1.77L16.42 1.77L15.66 0.58Q15.64 0.67 15.59 0.74L15.59 0.74L14.89 1.77Q14.86 1.82 14.82 1.85Q14.79 1.88 14.73 1.88L14.73 1.88L14.25 1.88ZM18.55 1.93L18.55 1.93Q18.19 1.93 18.00 1.73Q17.80 1.53 17.80 1.15L17.80 1.15L17.80-0.71L17.44-0.71Q17.39-0.71 17.36-0.74Q17.32-0.76 17.32-0.82L17.32-0.82L17.32-1.04L17.82-1.10L17.94-2.04Q17.95-2.08 17.98-2.11Q18.02-2.14 18.07-2.14L18.07-2.14L18.34-2.14L18.34-1.09L19.21-1.09L19.21-0.71L18.34-0.71L18.34 1.12Q18.34 1.31 18.43 1.40Q18.52 1.49 18.67 1.49L18.67 1.49Q18.75 1.49 18.81 1.47Q18.88 1.45 18.92 1.42Q18.97 1.40 19.00 1.37Q19.03 1.35 19.05 1.35L19.05 1.35Q19.10 1.35 19.13 1.40L19.13 1.40L19.28 1.66Q19.15 1.79 18.95 1.86Q18.76 1.93 18.55 1.93Z"/></g>
<g transform="matrix(1 0 0 1 43.75 -1.9215)" style="" id="634821">
		
</g>
<g transform="matrix(1 0 0 1 50.8403 25)" style="" id="491197">
		
<path xml:space="preserve" font-family="Lato" font-size="19" font-style="normal" font-weight="normal" style="stroke: none; stroke-width: 1; stroke-dasharray: none; stroke-linecap: butt; stroke-dashoffset: 0; stroke-linejoin: miter; stroke-miterlimit: 4; is-custom-font: none; font-file-url: none; fill: rgb(141,141,141); fill-rule: nonzero; opacity: 1; white-space: pre;" d="M-40.71 5.97L-41.72 5.97Q-42.08 5.97-42.17 5.62L-42.17 5.62L-42.33 4.45Q-42.94 5.20-43.74 5.65Q-44.53 6.10-45.56 6.10L-45.56 6.10Q-46.38 6.10-47.06 5.78Q-47.73 5.47-48.21 4.85Q-48.68 4.23-48.94 3.31Q-49.20 2.39-49.20 1.19L-49.20 1.19Q-49.20 0.13-48.91-0.79Q-48.63-1.71-48.09-2.38Q-47.55-3.06-46.78-3.44Q-46.01-3.83-45.03-3.83L-45.03-3.83Q-44.15-3.83-43.52-3.53Q-42.90-3.23-42.40-2.69L-42.40-2.69L-42.40-8.02L-40.71-8.02L-40.71 5.97ZM-45.00 4.73L-45.00 4.73Q-44.17 4.73-43.55 4.35Q-42.93 3.97-42.40 3.28L-42.40 3.28L-42.40-1.37Q-42.87-2.00-43.42-2.25Q-43.98-2.51-44.65-2.51L-44.65-2.51Q-46.00-2.51-46.73-1.55Q-47.45-0.59-47.45 1.19L-47.45 1.19Q-47.45 2.13-47.29 2.80Q-47.12 3.47-46.81 3.90Q-46.50 4.33-46.04 4.53Q-45.59 4.73-45.00 4.73ZM-30.80-0.19L-30.80 5.97L-31.55 5.97Q-31.80 5.97-31.95 5.89Q-32.10 5.82-32.15 5.57L-32.15 5.57L-32.34 4.68Q-32.72 5.02-33.08 5.29Q-33.44 5.56-33.84 5.75Q-34.24 5.93-34.69 6.03Q-35.14 6.12-35.70 6.12L-35.70 6.12Q-36.26 6.12-36.75 5.96Q-37.23 5.81-37.60 5.49Q-37.96 5.18-38.17 4.70Q-38.38 4.22-38.38 3.57L-38.38 3.57Q-38.38 3.00-38.07 2.47Q-37.76 1.94-37.06 1.53Q-36.36 1.12-35.23 0.86Q-34.10 0.60-32.47 0.56L-32.47 0.56L-32.47-0.19Q-32.47-1.31-32.95-1.88Q-33.43-2.46-34.37-2.46L-34.37-2.46Q-34.98-2.46-35.41-2.30Q-35.83-2.14-36.14-1.95Q-36.45-1.75-36.67-1.60Q-36.89-1.44-37.11-1.44L-37.11-1.44Q-37.28-1.44-37.41-1.53Q-37.54-1.62-37.61-1.75L-37.61-1.75L-37.92-2.30Q-37.12-3.07-36.20-3.45Q-35.28-3.83-34.16-3.83L-34.16-3.83Q-33.35-3.83-32.72-3.56Q-32.10-3.29-31.67-2.82Q-31.24-2.34-31.02-1.67Q-30.80-0.99-30.80-0.19L-30.80-0.19ZM-35.19 4.93L-35.19 4.93Q-34.75 4.93-34.38 4.84Q-34.00 4.75-33.68 4.59Q-33.35 4.42-33.05 4.18Q-32.75 3.95-32.47 3.64L-32.47 3.64L-32.47 1.64Q-33.63 1.67-34.45 1.82Q-35.27 1.97-35.78 2.21Q-36.29 2.44-36.53 2.77Q-36.76 3.09-36.76 3.49L-36.76 3.49Q-36.76 3.87-36.64 4.14Q-36.51 4.42-36.30 4.60Q-36.09 4.77-35.81 4.85Q-35.52 4.93-35.19 4.93ZM-28.47-3.65L-26.78-3.65L-26.78 2.48Q-26.78 3.57-26.27 4.17Q-25.77 4.77-24.75 4.77L-24.75 4.77Q-24.01 4.77-23.36 4.42Q-22.70 4.07-22.15 3.44L-22.15 3.44L-22.15-3.65L-20.46-3.65L-20.46 5.97L-21.46 5.97Q-21.83 5.97-21.92 5.62L-21.92 5.62L-22.05 4.58Q-22.68 5.28-23.46 5.70Q-24.24 6.12-25.25 6.12L-25.25 6.12Q-26.03 6.12-26.64 5.86Q-27.24 5.60-27.65 5.12Q-28.06 4.65-28.26 3.97Q-28.47 3.30-28.47 2.48L-28.47 2.48L-28.47-3.65ZM-15.98 5.97L-17.67 5.97L-17.67-3.65L-16.67-3.65Q-16.31-3.65-16.21-3.30L-16.21-3.30L-16.09-2.32Q-15.56-2.97-14.90-3.39Q-14.24-3.81-13.36-3.81L-13.36-3.81Q-12.38-3.81-11.78-3.27Q-11.18-2.72-10.91-1.80L-10.91-1.80Q-10.71-2.32-10.38-2.70Q-10.06-3.08-9.65-3.33Q-9.24-3.58-8.78-3.69Q-8.32-3.81-7.84-3.81L-7.84-3.81Q-7.08-3.81-6.49-3.56Q-5.89-3.32-5.48-2.86Q-5.07-2.39-4.85-1.71Q-4.63-1.03-4.63-0.16L-4.63-0.16L-4.63 5.97L-6.32 5.97L-6.32-0.16Q-6.32-1.29-6.82-1.87Q-7.31-2.46-8.25-2.46L-8.25-2.46Q-8.67-2.46-9.04-2.31Q-9.42-2.16-9.70-1.88Q-9.99-1.59-10.16-1.16Q-10.32-0.73-10.32-0.16L-10.32-0.16L-10.32 5.97L-12.01 5.97L-12.01-0.16Q-12.01-1.32-12.48-1.89Q-12.94-2.46-13.84-2.46L-13.84-2.46Q-14.46-2.46-15.00-2.12Q-15.54-1.78-15.98-1.20L-15.98-1.20L-15.98 5.97ZM-2.02-8.02L-0.32-8.02L-0.32 0.21L0.12 0.21Q0.31 0.21 0.43 0.16Q0.56 0.11 0.71-0.05L0.71-0.05L3.75-3.31Q3.89-3.46 4.03-3.56Q4.18-3.65 4.41-3.65L4.41-3.65L5.95-3.65L2.41 0.12Q2.28 0.28 2.15 0.40Q2.02 0.53 1.86 0.62L1.86 0.62Q2.03 0.73 2.17 0.88Q2.30 1.03 2.43 1.22L2.43 1.22L6.19 5.97L4.67 5.97Q4.46 5.97 4.31 5.89Q4.17 5.81 4.03 5.64L4.03 5.64L0.87 1.69Q0.73 1.49 0.58 1.43Q0.44 1.37 0.16 1.37L0.16 1.37L-0.32 1.37L-0.32 5.97L-2.02 5.97L-2.02-8.02ZM14.95-0.19L14.95 5.97L14.20 5.97Q13.95 5.97 13.80 5.89Q13.65 5.82 13.60 5.57L13.60 5.57L13.41 4.68Q13.03 5.02 12.67 5.29Q12.31 5.56 11.91 5.75Q11.51 5.93 11.06 6.03Q10.61 6.12 10.06 6.12L10.06 6.12Q9.50 6.12 9.01 5.96Q8.52 5.81 8.16 5.49Q7.80 5.18 7.58 4.70Q7.37 4.22 7.37 3.57L7.37 3.57Q7.37 3.00 7.68 2.47Q7.99 1.94 8.69 1.53Q9.39 1.12 10.52 0.86Q11.65 0.60 13.29 0.56L13.29 0.56L13.29-0.19Q13.29-1.31 12.81-1.88Q12.33-2.46 11.39-2.46L11.39-2.46Q10.77-2.46 10.35-2.30Q9.92-2.14 9.61-1.95Q9.31-1.75 9.08-1.60Q8.86-1.44 8.64-1.44L8.64-1.44Q8.47-1.44 8.34-1.53Q8.21-1.62 8.14-1.75L8.14-1.75L7.83-2.30Q8.63-3.07 9.55-3.45Q10.47-3.83 11.60-3.83L11.60-3.83Q12.40-3.83 13.03-3.56Q13.66-3.29 14.08-2.82Q14.51-2.34 14.73-1.67Q14.95-0.99 14.95-0.19L14.95-0.19ZM10.56 4.93L10.56 4.93Q11.01 4.93 11.38 4.84Q11.75 4.75 12.07 4.59Q12.40 4.42 12.70 4.18Q13.00 3.95 13.29 3.64L13.29 3.64L13.29 1.64Q12.12 1.67 11.30 1.82Q10.48 1.97 9.97 2.21Q9.46 2.44 9.22 2.77Q8.99 3.09 8.99 3.49L8.99 3.49Q8.99 3.87 9.12 4.14Q9.24 4.42 9.45 4.60Q9.66 4.77 9.94 4.85Q10.23 4.93 10.56 4.93ZM17.57-8.02L19.27-8.02L19.27 0.21L19.71 0.21Q19.90 0.21 20.02 0.16Q20.15 0.11 20.30-0.05L20.30-0.05L23.34-3.31Q23.48-3.46 23.62-3.56Q23.76-3.65 24.00-3.65L24.00-3.65L25.54-3.65L22.00 0.12Q21.86 0.28 21.74 0.40Q21.61 0.53 21.45 0.62L21.45 0.62Q21.62 0.73 21.76 0.88Q21.89 1.03 22.02 1.22L22.02 1.22L25.78 5.97L24.26 5.97Q24.05 5.97 23.90 5.89Q23.76 5.81 23.62 5.64L23.62 5.64L20.46 1.69Q20.32 1.49 20.17 1.43Q20.03 1.37 19.75 1.37L19.75 1.37L19.27 1.37L19.27 5.97L17.57 5.97L17.57-8.02ZM34.54-0.19L34.54 5.97L33.79 5.97Q33.54 5.97 33.39 5.89Q33.24 5.82 33.19 5.57L33.19 5.57L33.00 4.68Q32.62 5.02 32.26 5.29Q31.90 5.56 31.50 5.75Q31.10 5.93 30.65 6.03Q30.20 6.12 29.65 6.12L29.65 6.12Q29.08 6.12 28.60 5.96Q28.11 5.81 27.75 5.49Q27.38 5.18 27.17 4.70Q26.96 4.22 26.96 3.57L26.96 3.57Q26.96 3.00 27.27 2.47Q27.58 1.94 28.28 1.53Q28.98 1.12 30.11 0.86Q31.24 0.60 32.88 0.56L32.88 0.56L32.88-0.19Q32.88-1.31 32.40-1.88Q31.92-2.46 30.98-2.46L30.98-2.46Q30.36-2.46 29.93-2.30Q29.51-2.14 29.20-1.95Q28.89-1.75 28.67-1.60Q28.45-1.44 28.23-1.44L28.23-1.44Q28.06-1.44 27.93-1.53Q27.80-1.62 27.73-1.75L27.73-1.75L27.42-2.30Q28.22-3.07 29.14-3.45Q30.06-3.83 31.18-3.83L31.18-3.83Q31.99-3.83 32.62-3.56Q33.25-3.29 33.67-2.82Q34.10-2.34 34.32-1.67Q34.54-0.99 34.54-0.19L34.54-0.19ZM30.15 4.93L30.15 4.93Q30.60 4.93 30.97 4.84Q31.34 4.75 31.66 4.59Q31.99 4.42 32.29 4.18Q32.59 3.95 32.88 3.64L32.88 3.64L32.88 1.64Q31.71 1.67 30.89 1.82Q30.07 1.97 29.56 2.21Q29.05 2.44 28.81 2.77Q28.58 3.09 28.58 3.49L28.58 3.49Q28.58 3.87 28.70 4.14Q28.83 4.42 29.04 4.60Q29.25 4.77 29.53 4.85Q29.82 4.93 30.15 4.93ZM41.00-3.81L41.00-3.81Q42.05-3.81 42.90-3.46Q43.75-3.10 44.35-2.46Q44.94-1.81 45.26-0.90Q45.58 0.02 45.58 1.15L45.58 1.15Q45.58 2.29 45.26 3.20Q44.94 4.12 44.35 4.76Q43.75 5.41 42.90 5.75Q42.05 6.10 41.00 6.10L41.00 6.10Q39.94 6.10 39.09 5.75Q38.24 5.41 37.64 4.76Q37.05 4.12 36.72 3.20Q36.40 2.29 36.40 1.15L36.40 1.15Q36.40 0.02 36.72-0.90Q37.05-1.81 37.64-2.46Q38.24-3.10 39.09-3.46Q39.94-3.81 41.00-3.81ZM41.00 4.78L41.00 4.78Q42.42 4.78 43.13 3.83Q43.83 2.87 43.83 1.16L43.83 1.16Q43.83-0.56 43.13-1.52Q42.42-2.48 41.00-2.48L41.00-2.48Q40.28-2.48 39.74-2.23Q39.21-1.98 38.86-1.52Q38.50-1.05 38.32-0.37Q38.15 0.31 38.15 1.16L38.15 1.16Q38.15 2.02 38.32 2.69Q38.50 3.37 38.86 3.83Q39.21 4.29 39.74 4.53Q40.28 4.78 41.00 4.78Z"/></g>
</svg>