<svg xmlns="http://www.w3.org/2000/svg" xmlns:xlink="http://www.w3.org/1999/xlink" version="1.1" width="100" height="50" viewBox="0 0 100 50" xml:space="preserve">
<desc>Created with Fabric.js 3.5.0</desc>
<defs>
</defs>
<rect x="0" y="0" width="100%" height="100%" fill="rgba(255,255,255,0)"/>
<g transform="matrix(0.0452 0 0 0.0452 1.2826 14.3748)" id="16158">
<rect style="stroke: none; stroke-width: 1; stroke-dasharray: none; stroke-linecap: butt; stroke-dashoffset: 0; stroke-linejoin: miter; stroke-miterlimit: 4; is-custom-font: none; font-file-url: none; fill: rgb(255,255,255); fill-rule: nonzero; opacity: 1;" x="-50" y="-50" rx="0" ry="0" width="100" height="100"/>
</g>
<g transform="matrix(0.0655 0 0 0.0655 18.5038 -4.8154)" id="908771">
<rect style="stroke: none; stroke-width: 1; stroke-dasharray: none; stroke-linecap: butt; stroke-dashoffset: 0; stroke-linejoin: miter; stroke-miterlimit: 4; is-custom-font: none; font-file-url: none; fill: rgb(255,255,255); fill-opacity: 0; fill-rule: nonzero; opacity: 1;" vector-effect="non-scaling-stroke" x="-50" y="-50" rx="0" ry="0" width="100" height="100"/>
</g>
<g transform="matrix(0.1192 0 0 0.0812 25.1181 32.8898)" id="Background Shape">
<path style="stroke: none; stroke-width: 1; stroke-dasharray: none; stroke-linecap: butt; stroke-dashoffset: 0; stroke-linejoin: miter; stroke-miterlimit: 4; is-custom-font: none; font-file-url: none; fill: rgb(242,242,242); fill-rule: evenodd; opacity: 0.2545;" vector-effect="non-scaling-stroke" transform=" translate(-214.3678, -283.2752)" d="M 408.251 302.173 C 413.908 344.518 276.709 372.138 158.619 352.862 C 40.5285 333.587 -13.6457 258.314 42.705 218.206 C 99.0557 178.097 402.593 259.828 408.251 302.173 Z" stroke-linecap="round"/>
</g>
<g transform="matrix(0.1192 0 0 0.0812 10.6702 16.2355)" id="Leaf Top">
<path style="stroke: none; stroke-width: 1; stroke-dasharray: none; stroke-linecap: butt; stroke-dashoffset: 0; stroke-linejoin: miter; stroke-miterlimit: 4; is-custom-font: none; font-file-url: none; fill: rgb(193,222,226); fill-rule: evenodd; opacity: 0.2;" vector-effect="non-scaling-stroke" transform=" translate(-93.1525, -78.0939)" d="M 129.412 24.1335 C 131.574 23.0609 134.455 24.3048 133.253 27.1402 C 131.965 30.1764 127.205 30.214 124.516 30.1538 C 124.785 30.1397 125.652 27.3554 125.948 26.9346 C 126.823 25.6935 128.083 24.794 129.412 24.1335 Z M 104.523 79.4562 C 103.76 80.1094 104.461 79.5175 104.523 79.4562 V 79.4562 Z M 131.924 38.2304 C 133.217 39.2092 133.278 40.9386 132.221 42.1097 C 130.962 43.504 128.666 43.4544 126.952 43.3195 C 126.176 43.2583 122.036 42.9319 123.017 42.2599 C 122.942 42.2882 122.784 42.3569 122.615 42.4502 C 122.525 42.779 122.429 43.1067 122.329 43.4329 C 122.354 43.447 122.375 43.4622 122.401 43.4762 C 122.372 43.464 122.353 43.4507 122.328 43.4383 C 121.33 46.6991 119.911 49.8041 118.054 52.7092 C 118.749 52.4379 119.468 52.2324 120.197 52.1408 C 122.358 51.8689 126.901 53.5302 124.483 56.3816 C 122.165 59.1152 118.56 56.1856 115.93 55.7827 C 113.378 59.3115 110.564 62.6935 107.616 65.9626 C 107.796 66.0186 107.955 66.1353 108.046 66.317 C 109.228 65.722 110.46 64.8711 111.555 64.6403 C 113.134 64.3078 116.371 64.105 117.564 65.5049 C 119.031 67.2263 117.457 68.6259 115.723 68.957 C 113.208 69.4373 109.917 68.2215 107.498 67.4002 C 107.221 67.4488 106.919 67.3688 106.739 67.1495 C 106.685 67.1321 106.632 67.1151 106.58 67.0985 C 103.594 70.3517 100.494 73.4976 97.4127 76.5746 C 97.4455 76.5729 97.4783 76.5709 97.5125 76.5691 C 98.3161 76.0465 99.1779 75.6177 100.112 75.3928 C 102.273 74.8698 104.815 74.866 106.568 76.4144 C 108.313 77.9561 108.931 80.6538 107.123 82.3869 C 103.504 85.8561 98.1798 77.9529 96.3557 77.6238 C 93.2245 80.718 89.9139 83.609 86.5512 86.4418 C 86.933 86.3264 87.3245 86.2416 87.7291 86.2033 C 91.0252 85.8889 98.7595 89.8894 94.7125 93.8313 C 91.1858 97.2664 87.1094 90.6603 84.2699 88.3508 C 81.1012 90.9911 77.9153 93.6133 74.8187 96.3376 C 76.507 95.8925 78.1385 95.8263 79.9479 96.3673 C 81.8202 96.9279 84.841 98.3275 83.656 100.834 C 82.4507 103.382 78.8229 102.225 76.9335 101.417 C 75.903 100.976 73.8372 99.4879 72.023 98.8616 C 67.0816 103.485 62.8009 108.577 59.559 114.575 C 57.5351 118.319 55.9987 122.32 54.9166 126.431 C 54.2259 129.055 52.8653 133.463 53.1355 136.877 C 51.8429 130.042 54.1907 121.831 56.7184 115.72 C 59.0426 110.1 62.5191 105.166 66.5905 100.725 C 65.5709 97.6816 56.9783 93.2961 62.1179 90.4657 C 64.8471 88.9692 67.6404 91.4487 68.2355 94.0759 C 68.6442 95.8812 68.019 98.1502 67.3557 99.903 C 68.6364 98.549 69.9678 97.2385 71.3397 95.9714 C 73.2356 94.2202 75.1768 92.5198 77.1367 90.8408 C 73.9101 87.8371 70.8594 79.247 75.1884 77.8396 C 81.5808 75.7674 78.4974 87.4883 78.0504 89.685 C 77.9238 89.6924 77.8251 89.6546 77.7526 89.5734 C 77.7884 89.7745 77.83 89.9896 77.8804 90.2064 C 81.6315 87.0096 85.4381 83.8756 89.1193 80.6024 C 88.788 80.3598 88.2614 79.4322 87.8474 78.9385 C 86.9132 77.8257 86.0194 76.6632 85.3664 75.3611 C 84.335 73.3034 83.3408 70.021 86.0785 68.809 C 89.0558 67.4885 90.4684 71.2008 90.488 73.4158 C 90.5014 74.9478 90.0797 76.4033 89.8596 77.9049 C 89.7908 78.3733 90.0537 80.4841 89.4104 79.5763 C 89.4406 79.9111 89.4448 80.1536 89.4297 80.3255 C 90.0906 79.735 90.7464 79.138 91.3981 78.5367 C 91.368 78.4609 91.3456 78.3781 91.3406 78.2822 C 91.306 77.6219 91.9767 77.3672 92.4468 77.5604 C 93.3067 76.7505 94.1583 75.9304 94.9946 75.0941 C 96.7672 73.3223 98.5655 71.4999 100.351 69.6387 C 99.9643 69.3092 100.119 68.8526 99.7565 68.5027 C 99.3951 68.1537 98.6831 67.9609 98.2581 67.6367 C 97.1891 66.8209 96.3029 65.632 95.6621 64.4618 C 94.6043 62.5283 93.238 58.4718 96.3317 57.5484 C 99.5204 56.5952 101.137 60.4999 101.34 62.9415 C 101.38 63.4145 101.021 67.677 100.746 69.2248 C 104.051 65.7659 107.301 62.1773 110.246 58.5264 C 109.354 58.5187 106.825 56.7082 106.313 56.2141 C 105.066 55.0088 103.084 52.3453 105.272 50.9342 C 107.218 49.6826 109.615 51.4928 110.446 53.2528 C 110.583 53.5426 111.063 56.2404 111.1 57.4509 C 112.319 55.9027 113.482 54.3455 114.564 52.7832 C 115.285 51.7446 115.96 50.6785 116.59 49.5899 C 116.439 49.5047 116.296 49.3561 116.161 49.1714 C 112.917 48.6274 108.783 43.6129 112.595 41.8655 C 114.41 41.0347 116.377 42.7469 117.265 44.149 C 117.447 44.4359 117.741 45.8784 117.98 47.0163 C 119.796 43.4098 121.184 39.592 122.24 35.6777 C 121.958 35.6083 121.719 35.3947 121.687 35.0269 C 120.113 34.1378 118.869 33.3974 117.771 31.6867 C 117.088 30.6241 115.859 28.1962 117.866 27.6052 C 120.479 26.8363 122.118 30.7893 122.33 32.7366 C 122.355 32.9627 122.354 33.6201 122.345 34.2226 C 122.436 34.2103 122.527 34.2117 122.617 34.2274 C 123.218 31.8036 123.699 29.3488 124.081 26.8898 C 122.655 26.4358 122.412 19.0158 123.362 17.9588 C 125.485 15.5919 126.981 19.0086 126.866 20.8148 C 126.731 22.9445 125.757 24.8823 124.596 26.6022 C 124.472 26.7843 124.507 26.7755 124.475 26.5218 C 124.457 26.6472 124.415 26.7398 124.352 26.8068 C 124.411 27.9278 124.527 29.0755 124.471 30.0675 C 124.309 32.9083 123.973 35.7658 123.487 38.5702 C 123.369 39.2523 123.233 39.9288 123.082 40.5995 C 124.228 39.6314 125.774 38.771 126.378 38.5019 C 127.948 37.8042 130.366 37.0504 131.924 38.2304 Z M 52.8788 136.608 C 52.9545 137.521 53.1795 138.354 53.6224 139.036 C 53.2973 138.256 53.0534 137.444 52.8788 136.608 Z" stroke-linecap="round"/>
</g>
<g transform="matrix(0.1192 0 0 0.0812 11.8582 34.2081)" id="Leaf_2">
<path style="stroke: none; stroke-width: 1; stroke-dasharray: none; stroke-linecap: butt; stroke-dashoffset: 0; stroke-linejoin: miter; stroke-miterlimit: 4; is-custom-font: none; font-file-url: none; fill: rgb(193,222,226); fill-rule: evenodd; opacity: 0.25;" vector-effect="non-scaling-stroke" transform=" translate(-103.1154, -299.5265)" d="M 128.918 245.18 C 135.65 240.235 142.937 249.568 136.845 254.514 C 133.478 257.248 129.957 256.276 127.975 253.997 C 126.688 255.567 125.484 257.208 124.327 258.594 C 120.802 262.817 117.469 267.141 114.285 271.566 C 107.67 280.759 102 290.471 96.0729 300.006 C 90.2232 309.416 84.4202 318.874 79.1181 328.523 C 74.6265 336.697 68.6397 346.314 67.1019 355.276 C 69.4352 336.27 78.2888 318.001 88.8319 301.245 C 99.2892 284.628 111.29 266.479 127.482 253.364 C 125.834 250.939 125.788 247.478 128.918 245.18 Z" stroke-linecap="round"/>
</g>
<g transform="matrix(0.1192 0 0 0.0812 7.7482 39.0068)" id="Base_2">
<path style="stroke: none; stroke-width: 1; stroke-dasharray: none; stroke-linecap: butt; stroke-dashoffset: 0; stroke-linejoin: miter; stroke-miterlimit: 4; is-custom-font: none; font-file-url: none; fill: rgb(193,222,226); fill-rule: evenodd; opacity: 0.25;" vector-effect="non-scaling-stroke" transform=" translate(-68.6407, -358.6645)" d="M 49.7363 341.724 H 87.5456 C 89.2455 341.724 90.6236 343.103 90.6236 344.804 C 90.6236 344.954 90.6126 345.104 90.5907 345.253 L 87.6684 365.082 C 86.7775 371.126 81.5939 375.605 75.4878 375.605 H 61.7941 C 55.688 375.605 50.5044 371.126 49.6135 365.082 L 46.6912 345.253 C 46.4432 343.57 47.6055 342.005 49.2873 341.757 C 49.436 341.735 49.586 341.724 49.7363 341.724 Z" stroke-linecap="round"/>
</g>
<g transform="matrix(0.1192 0 0 0.0812 3.2083 39.418)" id="Base_3">
<path style="stroke: none; stroke-width: 1; stroke-dasharray: none; stroke-linecap: butt; stroke-dashoffset: 0; stroke-linejoin: miter; stroke-miterlimit: 4; is-custom-font: none; font-file-url: none; fill: rgb(242,242,242); fill-rule: evenodd; opacity: 1;" vector-effect="non-scaling-stroke" transform=" translate(-30.5625, -363.7325)" d="M 15.6475 351.861 C 15.6475 364.974 16.6817 375.604 30.5625 375.604 C 44.4433 375.604 45.4775 364.974 45.4775 351.861" stroke-linecap="round"/>
</g>
<g transform="matrix(0.1192 0 0 0.0812 3.0407 38.0603)" id="Fill 27">
<path style="stroke: none; stroke-width: 1; stroke-dasharray: none; stroke-linecap: butt; stroke-dashoffset: 0; stroke-linejoin: miter; stroke-miterlimit: 4; is-custom-font: none; font-file-url: none; fill: rgb(242,242,242); fill-rule: evenodd; opacity: 1;" vector-effect="non-scaling-stroke" transform=" translate(-29.1595, -346.9994)" d="M 34.692 343.679 C 34.1831 344.559 33.7295 345.457 33.3287 346.369 C 33.3146 344.492 33.4183 342.601 33.7015 340.684 C 34.1857 337.401 34.9251 334.135 35.62 330.875 C 36.1194 328.531 36.0878 324.322 37.983 322.455 C 38.5027 322.051 38.6278 322.843 38.6278 323.187 C 38.6344 323.259 38.6264 321.784 38.1219 322.041 C 35.1235 323.591 34.152 328.463 33.192 330.903 C 31.7914 334.464 30.5998 338.104 30.1091 341.809 C 29.9851 342.744 29.9176 343.68 29.902 344.614 C 29.8001 344.364 29.7044 344.112 29.5985 343.864 C 27.8679 339.802 25.5324 335.839 22.6196 332.184 C 21.9026 331.285 12.8874 322.411 12.1816 323.769 C 12.2513 323.967 12.3971 324.13 12.6194 324.26 C 12.6324 324.275 12.6328 324.267 12.6252 324.245 C 13.1546 325.101 14.66 326.423 15.1289 327.173 C 16.309 329.06 17.2262 331.062 18.1582 333.027 C 20.1274 337.178 21.9541 341.372 23.7249 345.574 C 24.1373 346.553 24.567 347.526 25.0055 348.496 C 20.4857 341.973 14.4562 336.05 6.15614 332.66 C 8.99101 334.103 10.8496 336.819 12.7641 338.897 C 15.0731 341.405 17.505 343.845 19.8184 346.35 C 22.547 349.305 25.7576 352.416 28.3821 355.686 C 30.9243 361.027 33.3947 366.373 34.9197 371.988 C 34.2948 370.048 34.8707 367.367 34.7638 365.332 C 34.6789 363.711 34.4896 362.104 34.2303 360.5 C 34.5509 361.224 34.8272 361.948 34.9523 362.621 C 34.8381 361.491 34.7065 360.369 34.565 359.252 C 34.928 358.207 35.2845 357.232 35.5253 356.428 C 36.7594 352.306 38.2289 348.255 40.23 344.306 C 42.0818 340.654 44.2058 337.048 46.5203 333.552 C 47.5999 331.922 48.6944 330.298 49.782 328.672 C 50.4939 327.607 51.1717 325.902 52.1628 324.881 C 45.7562 330.742 38.7566 336.646 34.692 343.679 Z" stroke-linecap="round"/>
</g>
<g transform="matrix(0.2083 0 0 0.1418 100.8777 13.467)" id="Leaf_7">
<path style="stroke: none; stroke-width: 1; stroke-dasharray: none; stroke-linecap: butt; stroke-dashoffset: 0; stroke-linejoin: miter; stroke-miterlimit: 4; is-custom-font: none; font-file-url: none; fill: rgb(242,242,242); fill-rule: evenodd; opacity: 1;" vector-effect="non-scaling-stroke" transform=" translate(-357.1261, -91.4895)" d="M 323.893 83.2613 C 326.954 79.6532 334.31 79.041 338.81 79.2825 C 344.377 79.5813 350.096 80.9375 355.392 82.5774 C 364.118 85.2784 372.596 90.2076 380.281 94.9785 C 381.207 95.5533 392.616 102.419 391.606 103.624 C 390.606 104.818 379.406 96.6623 376.91 95.2566 C 371.583 92.2563 366.698 88.708 360.826 86.7266 C 354.747 84.6747 348.317 83.8622 341.924 83.9183 C 341.104 83.9256 338.428 83.3532 338.37 84.5678 C 338.313 85.7557 342.742 85.1359 343.523 85.1431 C 346.748 85.1727 349.993 85.4765 353.172 86.0358 C 359.129 87.0835 364.73 89.1944 369.832 92.432 C 368.408 95.7442 364.995 97.2715 361.415 96.4426 C 358.321 95.7258 355.305 93.9588 352.275 93.4478 C 350.189 93.096 348.099 93.3053 346.076 93.8935 C 340.739 95.4457 337.66 98.6254 331.792 96.4136 C 327.192 94.6797 319.498 88.4502 323.893 83.2613 Z" stroke-linecap="round"/>
</g>
<g transform="matrix(0.2083 0 0 0.1418 64.286 3.1109)" id="Leaf Me Alone!_5">
<path style="stroke: none; stroke-width: 1; stroke-dasharray: none; stroke-linecap: butt; stroke-dashoffset: 0; stroke-linejoin: miter; stroke-miterlimit: 4; is-custom-font: none; font-file-url: none; fill: rgb(242,242,242); fill-rule: evenodd; opacity: 1;" vector-effect="non-scaling-stroke" transform=" translate(-309.9937, -42.0314)" d="M 327.355 49.1156 H 328.802 C 328.701 47.277 328.569 45.4414 328.258 43.6235 C 327.095 36.809 323.456 26.8003 315.474 25.6942 C 315.18 25.653 314.097 25.6461 312.785 25.7222 C 312.163 25.3783 311.467 25.1703 310.733 25.1225 C 303.938 24.6266 296.349 30.0534 293.071 35.7007 C 290.429 40.254 290.874 46.233 292.506 51.0704 C 293.599 54.309 295.984 58.9265 299.962 58.9715 C 304.939 59.0278 305.179 52.9389 305.275 49.3794 C 305.403 44.6471 306.007 40.5246 309.774 37.2989 C 310.652 36.5475 311.611 35.8864 312.498 35.1453 C 313.887 33.9855 315.421 32.7979 315.6 30.879 C 315.847 28.2317 314.338 27.7553 312.033 28.2472 C 311.64 28.3309 307.682 30.0889 308.268 28.6993 C 308.447 28.2748 309.1 27.9385 309.925 27.6864 C 312.059 27.4567 314.604 27.1902 315.336 27.3494 C 323.233 29.0643 326.308 39.8924 327.124 46.7721 C 327.216 47.5511 327.29 48.3327 327.355 49.1156 H 327.355 Z" stroke-linecap="round"/>
</g>
<g transform="matrix(0.0722 0 0 0.0722 0.5218 13.5471)" id="71716">
<path style="stroke: none; stroke-width: 0; stroke-dasharray: none; stroke-linecap: butt; stroke-dashoffset: 0; stroke-linejoin: miter; stroke-miterlimit: 4; is-custom-font: none; font-file-url: none; fill: rgb(0,175,161); fill-rule: evenodd; opacity: 1;" vector-effect="non-scaling-stroke" transform=" translate(0, 0)" d="M 176.384 91.583 c 0 -0.063 0 0 0 0 s -21.444 19.144 -48.244 43.103 h -22.559 a 6961.257 6961.257 0 170.803 -63.263 v 20.16" stroke-linecap="round"/>
</g>
<g transform="matrix(0.0796 0 0 0.078 10.1674 22.3917)" id="912847">
<path style="stroke: none; stroke-width: 0; stroke-dasharray: none; stroke-linecap: butt; stroke-dashoffset: 0; stroke-linejoin: miter; stroke-miterlimit: 4; is-custom-font: none; font-file-url: none; fill: rgb(236,82,66); fill-rule: evenodd; opacity: 1;" vector-effect="non-scaling-stroke" transform=" translate(-208.1415, -124.9885)" d="M 248.375 159.675 c 0 0.061 0 0 0 0 s 21.44 -19.143 48.245 -43.096 h 22.552 c -37.138 33.67 -70.797 63.257 -70.797 63.257 v -20.161 M 97.111 134.521 v -33.442 L 209.513 0.627 L 208.17 249.35 l -26.289 -23.386 l 0.005 -167.278 s -51.497 46.091 -84.775 75.835" stroke-linecap="round"/>
</g>
<g transform="matrix(0.0486 0 0 0.0486 10.9605 29.5274)" id="94425">
<path style="stroke: none; stroke-width: 0; stroke-dasharray: none; stroke-linecap: butt; stroke-dashoffset: 0; stroke-linejoin: miter; stroke-miterlimit: 4; is-custom-font: none; font-file-url: none; fill: rgb(39,42,49); fill-rule: evenodd; opacity: 1;" vector-effect="non-scaling-stroke" transform=" translate(-212.598, -187.81)" d="M 322.165 249.778 l -14.979 13.68 v 27.764 h -17.223 v 14.087 h 17.223 v 68.308 h 14.979 v -68.308 h 19.492 v -14.087 h -19.492 v -41.444 M 259.368 373.617 h 14.978 v -82.395 h -14.978 z M 266.858 252.059 c -5.983 0 -10.833 4.851 -10.833 10.835 c 0 5.985 4.85 10.834 10.833 10.834 c 5.98 0 10.832 -4.849 10.832 -10.834 c 0 -5.984 -4.852 -10.835 -10.832 -10.835 M 91.751 322.453 c 2.055 -11.22 11.59 -20.01 23.555 -20.01 c 14.02 0 22.806 9.725 23.368 20.01 H 91.751 z m 62.439 8.789 c 0 -26.928 -15.329 -43.011 -39.445 -43.011 c -18.695 0 -39.258 14.961 -39.258 43.385 S 97.733 375 118.297 375 c 17.199 0 29.911 -8.603 35.893 -20.383 l -12.525 -6.17 c -3.553 7.104 -11.777 12.341 -22.994 12.341 c -15.516 0 -26.733 -10.847 -27.481 -25.245 h 62.627 c 0.373 -1.684 0.373 -4.113 0.373 -4.301 z M 394.635 288.231 c -9.812 0 -17.035 4.128 -22.592 9.687 v -48.14 l -14.978 13.68 v 110.159 h 14.978 v -47.592 c 0 -15.376 10 -22.971 19.26 -22.971 c 9.446 0 17.965 7.759 17.965 24.619 v 45.944 h 15.928 v -45.944 c 0 -30.754 -13.705 -39.442 -30.561 -39.442 M 68.058 291.3 H 8.829 L 0 305.74 h 41.622 L 0 373.818 h 67.308 v -14.44 H 26.436 L 68.058 291.3 M 207.696 288.231 c -9.814 0 -17.038 4.128 -22.593 9.687 v -6.696 h -14.98 v 82.395 h 14.98 v -47.592 c 0 -15.376 10 -22.971 19.261 -22.971 c 9.445 0 17.965 7.759 17.965 24.619 v 45.944 h 15.928 v -45.944 c 0 -30.754 -13.706 -39.442 -30.561 -39.442 M 327.645 116.739 v 33.438 L 216.686 249.35 L 215.247 1.343 l -0.021 -0.723 c 2.985 2.674 13.747 12.254 27.653 24.682 l -0.007 0.608 v 166.665 s 51.498 -46.096 84.773 -75.836" stroke-linecap="round"/>
</g>
<g transform="matrix(0.0705 0 0 0.0705 38.7229 16.2528)" id="238717">
<path style="stroke: none; stroke-width: 0; stroke-dasharray: none; stroke-linecap: butt; stroke-dashoffset: 0; stroke-linejoin: miter; stroke-miterlimit: 4; is-custom-font: none; font-file-url: none; fill: rgb(236,82,66); fill-rule: nonzero; opacity: 1;" vector-effect="non-scaling-stroke" transform=" translate(-7.1, 4.075)" d="M -241.57 27.02 L -266.68 -35.16 L -257.35 -35.16 Q -255.84 -35.16 -254.9 -34.43 Q -253.95 -33.7 -253.48 -32.54 L -253.48 -32.54 L -238.86 5.39 Q -238.13 7.24 -237.46 9.45 Q -236.79 11.66 -236.19 14.12 L -236.19 14.12 Q -235.2 9.17 -233.74 5.39 L -233.74 5.39 L -219.16 -32.54 Q -218.78 -33.53 -217.79 -34.35 Q -216.8 -35.16 -215.34 -35.16 L -215.34 -35.16 L -206.01 -35.16 L -231.12 27.02 L -241.57 27.02 Z M -199.51 -35.16 L -160.3 -35.16 L -160.3 -25.96 L -187.86 -25.96 L -187.86 -7.56 L -164.6 -7.56 L -164.6 1.69 L -187.86 1.69 L -187.86 27.02 L -199.51 27.02 L -199.51 -35.16 Z M -137.68 27.02 L -156.99 -35.16 L -147.27 -35.16 Q -145.76 -35.16 -144.75 -34.45 Q -143.74 -33.74 -143.4 -32.54 L -143.4 -32.54 L -132.82 4.66 Q -132.43 6.03 -132.11 7.64 Q -131.79 9.26 -131.49 11.06 L -131.49 11.06 Q -131.14 9.26 -130.73 7.64 Q -130.33 6.03 -129.85 4.66 L -129.85 4.66 L -117.64 -32.54 Q -117.3 -33.53 -116.29 -34.35 Q -115.28 -35.16 -113.81 -35.16 L -113.81 -35.16 L -110.42 -35.16 Q -108.91 -35.16 -107.92 -34.45 Q -106.93 -33.74 -106.55 -32.54 L -106.55 -32.54 L -94.42 4.66 Q -93.47 7.41 -92.79 10.76 L -92.79 10.76 Q -92.49 9.08 -92.16 7.54 Q -91.84 5.99 -91.5 4.66 L -91.5 4.66 L -80.92 -32.54 Q -80.62 -33.61 -79.59 -34.39 Q -78.55 -35.16 -77.09 -35.16 L -77.09 -35.16 L -68.02 -35.16 L -87.33 27.02 L -97.77 27.02 L -111.36 -15.47 Q -111.62 -16.29 -111.9 -17.23 Q -112.18 -18.18 -112.44 -19.25 L -112.44 -19.25 Q -112.7 -18.18 -112.98 -17.23 Q -113.25 -16.29 -113.51 -15.47 L -113.51 -15.47 L -127.23 27.02 L -137.68 27.02 Z M -16.07 18.5 L -16.07 18.5 Q -12.16 18.5 -9.26 17.79 Q -6.36 17.08 -3.73 15.84 L -3.73 15.84 L -3.73 4.53 L -11.52 4.53 Q -12.63 4.53 -13.28 3.9 Q -13.92 3.28 -13.92 2.38 L -13.92 2.38 L -13.92 -4.16 L 6.76 -4.16 L 6.76 21 Q 4.39 22.72 1.83 23.98 Q -0.72 25.25 -3.63 26.07 Q -6.53 26.89 -9.84 27.3 Q -13.15 27.7 -16.98 27.7 L -16.98 27.7 Q -23.77 27.7 -29.49 25.34 Q -35.21 22.97 -39.38 18.76 Q -43.55 14.55 -45.9 8.7 Q -48.24 2.85 -48.24 -4.07 L -48.24 -4.07 Q -48.24 -11.08 -45.96 -16.93 Q -43.68 -22.78 -39.49 -26.99 Q -35.3 -31.21 -29.32 -33.53 Q -23.34 -35.85 -15.9 -35.85 L -15.9 -35.85 Q -8.29 -35.85 -2.72 -33.59 Q 2.85 -31.34 6.72 -27.72 L 6.72 -27.72 L 3.36 -22.48 Q 2.37 -20.89 0.74 -20.89 L 0.74 -20.89 Q -0.29 -20.89 -1.37 -21.57 L -1.37 -21.57 Q -2.74 -22.39 -4.19 -23.21 Q -5.63 -24.03 -7.37 -24.63 Q -9.11 -25.23 -11.28 -25.62 Q -13.45 -26 -16.29 -26 L -16.29 -26 Q -20.89 -26 -24.61 -24.46 Q -28.33 -22.91 -30.95 -20.03 Q -33.58 -17.15 -34.99 -13.1 Q -36.41 -9.06 -36.41 -4.07 L -36.41 -4.07 Q -36.41 1.3 -34.91 5.49 Q -33.4 9.69 -30.69 12.57 Q -27.99 15.45 -24.24 16.98 Q -20.5 18.5 -16.07 18.5 Z M 29.12 -35.16 L 29.12 17.47 L 54.02 17.47 L 54.02 27.02 L 17.55 27.02 L 17.55 -35.16 L 29.12 -35.16 Z M 118.21 -4.07 L 118.21 -4.07 Q 118.21 2.76 115.94 8.59 Q 113.66 14.42 109.53 18.67 Q 105.4 22.93 99.6 25.32 Q 93.79 27.7 86.74 27.7 L 86.74 27.7 Q 79.69 27.7 73.86 25.32 Q 68.03 22.93 63.88 18.67 Q 59.73 14.42 57.46 8.59 Q 55.18 2.76 55.18 -4.07 L 55.18 -4.07 Q 55.18 -10.91 57.46 -16.74 Q 59.73 -22.56 63.88 -26.82 Q 68.03 -31.08 73.86 -33.46 Q 79.69 -35.85 86.74 -35.85 L 86.74 -35.85 Q 93.79 -35.85 99.6 -33.44 Q 105.4 -31.03 109.53 -26.8 Q 113.66 -22.56 115.94 -16.74 Q 118.21 -10.91 118.21 -4.07 Z M 106.35 -4.07 L 106.35 -4.07 Q 106.35 -9.19 104.99 -13.25 Q 103.64 -17.32 101.1 -20.16 Q 98.56 -22.99 94.93 -24.5 Q 91.3 -26 86.74 -26 L 86.74 -26 Q 82.18 -26 78.53 -24.5 Q 74.87 -22.99 72.31 -20.16 Q 69.75 -17.32 68.38 -13.25 Q 67 -9.19 67 -4.07 L 67 -4.07 Q 67 1.04 68.38 5.11 Q 69.75 9.17 72.31 11.99 Q 74.87 14.8 78.53 16.31 Q 82.18 17.81 86.74 17.81 L 86.74 17.81 Q 91.3 17.81 94.93 16.31 Q 98.56 14.8 101.1 11.99 Q 103.64 9.17 104.99 5.11 Q 106.35 1.04 106.35 -4.07 Z M 150.81 27.02 L 127.33 27.02 L 127.33 -35.16 L 148.79 -35.16 Q 154.89 -35.16 159.21 -34 Q 163.54 -32.84 166.31 -30.69 Q 169.08 -28.54 170.37 -25.49 Q 171.66 -22.43 171.66 -18.61 L 171.66 -18.61 Q 171.66 -16.41 171.02 -14.41 Q 170.37 -12.42 169.02 -10.67 Q 167.66 -8.93 165.58 -7.51 Q 163.49 -6.09 160.61 -5.11 L 160.61 -5.11 Q 173.43 -2.22 173.43 8.74 L 173.43 8.74 Q 173.43 12.7 171.92 16.05 Q 170.42 19.4 167.54 21.83 Q 164.65 24.26 160.44 25.64 Q 156.23 27.02 150.81 27.02 L 150.81 27.02 Z M 150.59 -0.25 L 138.9 -0.25 L 138.9 17.99 L 150.64 17.99 Q 153.86 17.99 156.03 17.21 Q 158.2 16.44 159.52 15.15 Q 160.83 13.86 161.41 12.14 Q 161.99 10.42 161.99 8.48 L 161.99 8.48 Q 161.99 6.46 161.34 4.85 Q 160.7 3.24 159.32 2.1 Q 157.95 0.96 155.8 0.36 Q 153.65 -0.25 150.59 -0.25 L 150.59 -0.25 Z M 138.9 -26.22 L 138.9 -8.24 L 148.14 -8.24 Q 154.03 -8.24 157.09 -10.39 Q 160.14 -12.54 160.14 -17.23 L 160.14 -17.23 Q 160.14 -22.09 157.39 -24.15 Q 154.64 -26.22 148.79 -26.22 L 148.79 -26.22 L 138.9 -26.22 Z M 213.59 -35.16 L 238.01 27.02 L 229.07 27.02 Q 227.56 27.02 226.6 26.26 Q 225.63 25.51 225.2 24.39 L 225.2 24.39 L 220.55 11.71 L 194.8 11.71 L 190.15 24.39 Q 189.81 25.38 188.8 26.2 Q 187.79 27.02 186.33 27.02 L 186.33 27.02 L 177.34 27.02 L 201.76 -35.16 L 213.59 -35.16 Z M 205.33 -17.06 L 197.76 3.54 L 217.59 3.54 L 210.02 -17.15 Q 209.5 -18.52 208.88 -20.39 Q 208.26 -22.26 207.65 -24.46 L 207.65 -24.46 Q 207.05 -22.26 206.47 -20.37 Q 205.89 -18.48 205.33 -17.06 L 205.33 -17.06 Z M 255.99 -35.16 L 255.99 17.47 L 280.88 17.47 L 280.88 27.02 L 244.42 27.02 L 244.42 -35.16 L 255.99 -35.16 Z" stroke-linecap="round"/>
</g>
<g transform="matrix(1 0 0 1 58.2086 24.9838)" style="" id="718588">
		
<path xml:space="preserve" font-family="Lato" font-size="11" font-style="normal" font-weight="bold" style="stroke: none; stroke-width: 1; stroke-dasharray: none; stroke-linecap: butt; stroke-dashoffset: 0; stroke-linejoin: miter; stroke-miterlimit: 4; is-custom-font: none; font-file-url: none; fill: rgb(236,82,66); fill-rule: nonzero; opacity: 1; white-space: pre;" d="M-31.83 1.58L-31.83 1.58Q-31.71 1.58-31.62 1.67L-31.62 1.67L-31.04 2.31Q-31.52 2.91-32.23 3.22Q-32.93 3.54-33.92 3.54L-33.92 3.54Q-34.81 3.54-35.52 3.24Q-36.22 2.94-36.72 2.40Q-37.22 1.86-37.49 1.11Q-37.76 0.36-37.76-0.52L-37.76-0.52Q-37.76-1.42-37.46-2.16Q-37.16-2.91-36.62-3.45Q-36.09-3.99-35.33-4.29Q-34.58-4.59-33.68-4.59L-33.68-4.59Q-32.79-4.59-32.13-4.30Q-31.47-4.02-30.99-3.55L-30.99-3.55L-31.49-2.86Q-31.53-2.80-31.60-2.75Q-31.67-2.70-31.79-2.70L-31.79-2.70Q-31.92-2.70-32.05-2.80Q-32.18-2.90-32.38-3.01Q-32.59-3.13-32.90-3.23Q-33.21-3.33-33.69-3.33L-33.69-3.33Q-34.25-3.33-34.72-3.13Q-35.19-2.94-35.53-2.57Q-35.87-2.21-36.06-1.69Q-36.25-1.17-36.25-0.52L-36.25-0.52Q-36.25 0.15-36.06 0.67Q-35.87 1.19-35.54 1.55Q-35.22 1.91-34.78 2.10Q-34.34 2.29-33.83 2.29L-33.83 2.29Q-33.53 2.29-33.28 2.26Q-33.04 2.22-32.83 2.15Q-32.63 2.08-32.44 1.97Q-32.26 1.85-32.08 1.69L-32.08 1.69Q-32.02 1.64-31.96 1.61Q-31.90 1.58-31.83 1.58ZM-27.59-2.28L-27.59-2.28Q-26.96-2.28-26.44-2.07Q-25.93-1.87-25.56-1.49Q-25.20-1.12-25.00-0.58Q-24.81-0.04-24.81 0.62L-24.81 0.62Q-24.81 1.29-25.00 1.83Q-25.20 2.37-25.56 2.75Q-25.93 3.13-26.44 3.33Q-26.96 3.54-27.59 3.54L-27.59 3.54Q-28.22 3.54-28.74 3.33Q-29.25 3.13-29.62 2.75Q-29.99 2.37-30.19 1.83Q-30.39 1.29-30.39 0.62L-30.39 0.62Q-30.39-0.04-30.19-0.58Q-29.99-1.12-29.62-1.49Q-29.25-1.87-28.74-2.07Q-28.22-2.28-27.59-2.28ZM-27.59 2.49L-27.59 2.49Q-26.88 2.49-26.55 2.02Q-26.21 1.55-26.21 0.63L-26.21 0.63Q-26.21-0.28-26.55-0.76Q-26.88-1.24-27.59-1.24L-27.59-1.24Q-28.30-1.24-28.64-0.75Q-28.99-0.27-28.99 0.63L-28.99 0.63Q-28.99 1.54-28.64 2.02Q-28.30 2.49-27.59 2.49ZM-22.39 3.46L-23.74 3.46L-23.74-2.19L-22.91-2.19Q-22.65-2.19-22.57-1.94L-22.57-1.94L-22.47-1.49Q-22.30-1.67-22.11-1.81Q-21.92-1.96-21.71-2.06Q-21.50-2.17-21.26-2.22Q-21.02-2.28-20.73-2.28L-20.73-2.28Q-20.27-2.28-19.91-2.12Q-19.55-1.96-19.31-1.68Q-19.07-1.40-18.95-1.00Q-18.83-0.61-18.83-0.14L-18.83-0.14L-18.83 3.46L-20.19 3.46L-20.19-0.14Q-20.19-0.65-20.42-0.94Q-20.66-1.22-21.14-1.22L-21.14-1.22Q-21.49-1.22-21.80-1.06Q-22.11-0.90-22.39-0.63L-22.39-0.63L-22.39 3.46ZM-15.54-2.29L-15.54-2.29Q-15.17-2.29-14.86-2.21Q-14.54-2.14-14.27-2.00L-14.27-2.00L-12.65-2.00L-12.65-1.49Q-12.65-1.36-12.72-1.29Q-12.78-1.22-12.94-1.19L-12.94-1.19L-13.45-1.10Q-13.39-0.96-13.36-0.80Q-13.33-0.64-13.33-0.46L-13.33-0.46Q-13.33-0.04-13.50 0.30Q-13.67 0.63-13.96 0.87Q-14.26 1.11-14.66 1.24Q-15.06 1.37-15.54 1.37L-15.54 1.37Q-15.86 1.37-16.16 1.30L-16.16 1.30Q-16.42 1.46-16.42 1.66L-16.42 1.66Q-16.42 1.83-16.27 1.91Q-16.11 1.99-15.85 2.03Q-15.60 2.06-15.27 2.07Q-14.95 2.08-14.61 2.10Q-14.27 2.13-13.94 2.20Q-13.62 2.27-13.36 2.42Q-13.11 2.56-12.95 2.82Q-12.79 3.08-12.79 3.48L-12.79 3.48Q-12.79 3.85-12.98 4.20Q-13.16 4.56-13.51 4.83Q-13.86 5.11-14.37 5.27Q-14.87 5.44-15.52 5.44L-15.52 5.44Q-16.16 5.44-16.64 5.32Q-17.11 5.19-17.42 4.99Q-17.73 4.78-17.89 4.51Q-18.04 4.24-18.04 3.95L-18.04 3.95Q-18.04 3.55-17.80 3.28Q-17.56 3.02-17.13 2.86L-17.13 2.86Q-17.34 2.74-17.46 2.55Q-17.59 2.36-17.59 2.05L-17.59 2.05Q-17.59 1.92-17.55 1.79Q-17.50 1.65-17.41 1.52Q-17.32 1.39-17.18 1.27Q-17.04 1.15-16.86 1.06L-16.86 1.06Q-17.29 0.83-17.53 0.44Q-17.78 0.06-17.78-0.46L-17.78-0.46Q-17.78-0.88-17.61-1.22Q-17.44-1.55-17.14-1.79Q-16.84-2.03-16.43-2.16Q-16.02-2.29-15.54-2.29ZM-14.05 3.71L-14.05 3.71Q-14.05 3.54-14.15 3.44Q-14.25 3.33-14.42 3.28Q-14.59 3.22-14.81 3.19Q-15.04 3.16-15.30 3.15Q-15.55 3.14-15.83 3.12Q-16.10 3.11-16.35 3.08L-16.35 3.08Q-16.58 3.20-16.72 3.38Q-16.86 3.55-16.86 3.77L-16.86 3.77Q-16.86 3.92-16.79 4.05Q-16.71 4.18-16.55 4.27Q-16.39 4.37-16.13 4.42Q-15.87 4.47-15.50 4.47L-15.50 4.47Q-15.12 4.47-14.84 4.42Q-14.57 4.36-14.39 4.26Q-14.21 4.15-14.13 4.01Q-14.05 3.87-14.05 3.71ZM-15.54 0.50L-15.54 0.50Q-15.28 0.50-15.10 0.43Q-14.91 0.36-14.79 0.24Q-14.66 0.12-14.60-0.05Q-14.54-0.22-14.54-0.43L-14.54-0.43Q-14.54-0.85-14.79-1.09Q-15.04-1.33-15.54-1.33L-15.54-1.33Q-16.04-1.33-16.29-1.09Q-16.54-0.85-16.54-0.43L-16.54-0.43Q-16.54-0.23-16.48-0.06Q-16.41 0.11-16.29 0.24Q-16.16 0.36-15.97 0.43Q-15.79 0.50-15.54 0.50ZM-10.44 3.46L-11.80 3.46L-11.80-2.19L-11.00-2.19Q-10.79-2.19-10.71-2.11Q-10.63-2.03-10.60-1.85L-10.60-1.85L-10.52-1.16Q-10.21-1.69-9.81-1.99Q-9.40-2.29-8.89-2.29L-8.89-2.29Q-8.48-2.29-8.20-2.10L-8.20-2.10L-8.38-1.08Q-8.39-0.98-8.45-0.94Q-8.50-0.90-8.60-0.90L-8.60-0.90Q-8.68-0.90-8.82-0.94Q-8.97-0.98-9.20-0.98L-9.20-0.98Q-9.63-0.98-9.93-0.74Q-10.23-0.51-10.44-0.06L-10.44-0.06L-10.44 3.46ZM-4.97-2.28L-4.97-2.28Q-4.44-2.28-3.99-2.10Q-3.54-1.93-3.22-1.61Q-2.89-1.28-2.71-0.80Q-2.53-0.33-2.53 0.28L-2.53 0.28Q-2.53 0.44-2.54 0.54Q-2.56 0.64-2.59 0.70Q-2.63 0.75-2.69 0.78Q-2.75 0.80-2.84 0.80L-2.84 0.80L-6.33 0.80Q-6.27 1.67-5.86 2.08Q-5.46 2.49-4.79 2.49L-4.79 2.49Q-4.46 2.49-4.22 2.41Q-3.98 2.33-3.80 2.24Q-3.62 2.15-3.48 2.07Q-3.35 1.99-3.22 1.99L-3.22 1.99Q-3.14 1.99-3.08 2.03Q-3.02 2.06-2.98 2.12L-2.98 2.12L-2.58 2.61Q-2.81 2.88-3.09 3.06Q-3.37 3.24-3.67 3.34Q-3.98 3.45-4.29 3.49Q-4.61 3.54-4.91 3.54L-4.91 3.54Q-5.49 3.54-6.00 3.34Q-6.51 3.15-6.88 2.77Q-7.25 2.38-7.47 1.82Q-7.68 1.26-7.68 0.51L-7.68 0.51Q-7.68-0.06-7.50-0.57Q-7.31-1.08-6.96-1.46Q-6.61-1.84-6.11-2.06Q-5.60-2.28-4.97-2.28ZM-4.94-1.30L-4.94-1.30Q-5.54-1.30-5.87-0.97Q-6.21-0.63-6.30-0.02L-6.30-0.02L-3.75-0.02Q-3.75-0.28-3.82-0.51Q-3.89-0.75-4.04-0.92Q-4.19-1.10-4.42-1.20Q-4.64-1.30-4.94-1.30ZM2.23-1.58L1.92-1.09Q1.87-1.00 1.81-0.96Q1.75-0.93 1.66-0.93L1.66-0.93Q1.56-0.93 1.44-0.98Q1.33-1.04 1.18-1.11Q1.03-1.18 0.84-1.23Q0.65-1.29 0.40-1.29L0.40-1.29Q-0.01-1.29-0.24-1.12Q-0.47-0.94-0.47-0.67L-0.47-0.67Q-0.47-0.49-0.35-0.36Q-0.23-0.24-0.04-0.15Q0.16-0.05 0.41 0.02Q0.65 0.10 0.91 0.18Q1.17 0.27 1.42 0.38Q1.67 0.50 1.86 0.67Q2.06 0.84 2.18 1.08Q2.29 1.33 2.29 1.67L2.29 1.67Q2.29 2.08 2.14 2.42Q2.00 2.76 1.71 3.01Q1.42 3.26 1.00 3.40Q0.58 3.54 0.04 3.54L0.04 3.54Q-0.25 3.54-0.53 3.49Q-0.81 3.44-1.06 3.35Q-1.32 3.25-1.54 3.13Q-1.75 3.00-1.92 2.85L-1.92 2.85L-1.61 2.33Q-1.55 2.24-1.46 2.19Q-1.38 2.14-1.25 2.14L-1.25 2.14Q-1.13 2.14-1.01 2.21Q-0.90 2.28-0.75 2.37Q-0.61 2.45-0.40 2.52Q-0.20 2.59 0.10 2.59L0.10 2.59Q0.35 2.59 0.52 2.53Q0.69 2.48 0.81 2.38Q0.92 2.29 0.97 2.17Q1.02 2.04 1.02 1.91L1.02 1.91Q1.02 1.71 0.90 1.59Q0.79 1.46 0.59 1.37Q0.40 1.27 0.15 1.20Q-0.10 1.12-0.37 1.04Q-0.63 0.95-0.88 0.83Q-1.13 0.71-1.32 0.53Q-1.52 0.35-1.64 0.08Q-1.75-0.18-1.75-0.55L-1.75-0.55Q-1.75-0.90-1.62-1.21Q-1.48-1.53-1.21-1.76Q-0.95-2.00-0.55-2.14Q-0.15-2.28 0.37-2.28L0.37-2.28Q0.96-2.28 1.44-2.08Q1.91-1.89 2.23-1.58L2.23-1.58ZM7.04-1.58L6.73-1.09Q6.68-1.00 6.62-0.96Q6.56-0.93 6.46-0.93L6.46-0.93Q6.36-0.93 6.25-0.98Q6.14-1.04 5.99-1.11Q5.84-1.18 5.65-1.23Q5.46-1.29 5.20-1.29L5.20-1.29Q4.80-1.29 4.57-1.12Q4.34-0.94 4.34-0.67L4.34-0.67Q4.34-0.49 4.46-0.36Q4.58-0.24 4.77-0.15Q4.97-0.05 5.21 0.02Q5.46 0.10 5.72 0.18Q5.98 0.27 6.23 0.38Q6.47 0.50 6.67 0.67Q6.86 0.84 6.98 1.08Q7.10 1.33 7.10 1.67L7.10 1.67Q7.10 2.08 6.95 2.42Q6.80 2.76 6.52 3.01Q6.23 3.26 5.81 3.40Q5.39 3.54 4.85 3.54L4.85 3.54Q4.55 3.54 4.28 3.49Q4.00 3.44 3.74 3.35Q3.49 3.25 3.27 3.13Q3.05 3.00 2.89 2.85L2.89 2.85L3.20 2.33Q3.26 2.24 3.34 2.19Q3.43 2.14 3.55 2.14L3.55 2.14Q3.68 2.14 3.79 2.21Q3.90 2.28 4.05 2.37Q4.20 2.45 4.40 2.52Q4.60 2.59 4.91 2.59L4.91 2.59Q5.15 2.59 5.33 2.53Q5.50 2.48 5.61 2.38Q5.73 2.29 5.78 2.17Q5.83 2.04 5.83 1.91L5.83 1.91Q5.83 1.71 5.71 1.59Q5.59 1.46 5.40 1.37Q5.20 1.27 4.95 1.20Q4.70 1.12 4.44 1.04Q4.18 0.95 3.93 0.83Q3.68 0.71 3.48 0.53Q3.29 0.35 3.17 0.08Q3.05-0.18 3.05-0.55L3.05-0.55Q3.05-0.90 3.19-1.21Q3.33-1.53 3.59-1.76Q3.86-2.00 4.26-2.14Q4.66-2.28 5.18-2.28L5.18-2.28Q5.76-2.28 6.24-2.08Q6.72-1.89 7.04-1.58L7.04-1.58ZM17.45-0.52L17.45-0.52Q17.45 0.35 17.16 1.08Q16.87 1.82 16.34 2.34Q15.81 2.87 15.07 3.16Q14.33 3.46 13.43 3.46L13.43 3.46L10.39 3.46L10.39-4.50L13.43-4.50Q14.33-4.50 15.07-4.20Q15.81-3.91 16.34-3.38Q16.87-2.86 17.16-2.13Q17.45-1.40 17.45-0.52ZM15.94-0.52L15.94-0.52Q15.94-1.18 15.76-1.70Q15.59-2.21 15.26-2.58Q14.94-2.94 14.47-3.13Q14.01-3.32 13.43-3.32L13.43-3.32L11.88-3.32L11.88 2.28L13.43 2.28Q14.01 2.28 14.47 2.09Q14.94 1.89 15.26 1.53Q15.59 1.17 15.76 0.65Q15.94 0.13 15.94-0.52ZM18.42-2.19L19.78-2.19L19.78 1.40Q19.78 1.92 20.02 2.20Q20.26 2.48 20.73 2.48L20.73 2.48Q21.09 2.48 21.39 2.33Q21.70 2.17 21.98 1.89L21.98 1.89L21.98-2.19L23.34-2.19L23.34 3.46L22.51 3.46Q22.24 3.46 22.16 3.21L22.16 3.21L22.07 2.76Q21.89 2.93 21.70 3.08Q21.52 3.22 21.30 3.33Q21.09 3.43 20.85 3.49Q20.60 3.54 20.32 3.54L20.32 3.54Q19.86 3.54 19.51 3.39Q19.15 3.23 18.91 2.94Q18.67 2.66 18.54 2.26Q18.42 1.87 18.42 1.40L18.42 1.40L18.42-2.19ZM25.70 3.46L24.80 3.46L24.80-4.72L26.16-4.72L26.16-1.49Q26.50-1.85 26.92-2.06Q27.35-2.28 27.91-2.28L27.91-2.28Q28.37-2.28 28.76-2.09Q29.14-1.90 29.42-1.53Q29.69-1.17 29.85-0.64Q30.00-0.10 30.00 0.59L30.00 0.59Q30.00 1.22 29.83 1.76Q29.66 2.30 29.34 2.70Q29.02 3.09 28.58 3.32Q28.13 3.54 27.57 3.54L27.57 3.54Q27.31 3.54 27.10 3.49Q26.88 3.43 26.71 3.34Q26.53 3.25 26.38 3.11Q26.23 2.98 26.09 2.81L26.09 2.81L26.03 3.19Q26.00 3.33 25.92 3.39Q25.84 3.46 25.70 3.46L25.70 3.46ZM27.44-1.22L27.44-1.22Q27.02-1.22 26.72-1.04Q26.42-0.86 26.16-0.54L26.16-0.54L26.16 1.99Q26.39 2.28 26.67 2.39Q26.94 2.50 27.26 2.50L27.26 2.50Q27.57 2.50 27.81 2.39Q28.06 2.27 28.23 2.04Q28.41 1.80 28.50 1.44Q28.59 1.08 28.59 0.59L28.59 0.59Q28.59 0.10 28.51-0.25Q28.43-0.59 28.29-0.81Q28.14-1.02 27.93-1.12Q27.71-1.22 27.44-1.22ZM35.48-0.11L35.48 3.46L34.87 3.46Q34.68 3.46 34.57 3.40Q34.46 3.34 34.40 3.16L34.40 3.16L34.28 2.76Q34.07 2.96 33.86 3.10Q33.65 3.25 33.43 3.35Q33.21 3.44 32.97 3.49Q32.72 3.54 32.42 3.54L32.42 3.54Q32.06 3.54 31.76 3.45Q31.45 3.35 31.24 3.16Q31.02 2.97 30.90 2.68Q30.78 2.39 30.78 2.01L30.78 2.01Q30.78 1.70 30.95 1.38Q31.11 1.07 31.50 0.82Q31.89 0.57 32.54 0.41Q33.19 0.24 34.15 0.22L34.15 0.22L34.15-0.11Q34.15-0.67 33.92-0.95Q33.68-1.22 33.22-1.22L33.22-1.22Q32.89-1.22 32.67-1.14Q32.45-1.07 32.29-0.97Q32.13-0.87 31.99-0.80Q31.85-0.72 31.69-0.72L31.69-0.72Q31.55-0.72 31.45-0.79Q31.35-0.86 31.29-0.97L31.29-0.97L31.04-1.40Q32.02-2.29 33.39-2.29L33.39-2.29Q33.89-2.29 34.27-2.13Q34.66-1.97 34.93-1.68Q35.20-1.39 35.34-0.99Q35.48-0.59 35.48-0.11L35.48-0.11ZM32.84 2.61L32.84 2.61Q33.05 2.61 33.23 2.57Q33.40 2.53 33.56 2.45Q33.71 2.38 33.86 2.26Q34.01 2.15 34.15 2.00L34.15 2.00L34.15 1.05Q33.56 1.07 33.16 1.15Q32.76 1.22 32.52 1.34Q32.28 1.45 32.18 1.61Q32.08 1.76 32.08 1.94L32.08 1.94Q32.08 2.30 32.29 2.45Q32.50 2.61 32.84 2.61ZM36.90-2.19L38.26-2.19L38.26 3.46L36.90 3.46L36.90-2.19ZM38.47-3.83L38.47-3.83Q38.47-3.66 38.40-3.50Q38.32-3.35 38.21-3.23Q38.09-3.12 37.93-3.05Q37.77-2.98 37.59-2.98L37.59-2.98Q37.41-2.98 37.25-3.05Q37.10-3.12 36.98-3.23Q36.87-3.35 36.80-3.50Q36.73-3.66 36.73-3.83L36.73-3.83Q36.73-4.01 36.80-4.17Q36.87-4.33 36.98-4.45Q37.10-4.56 37.25-4.63Q37.41-4.70 37.59-4.70L37.59-4.70Q37.77-4.70 37.93-4.63Q38.09-4.56 38.21-4.45Q38.32-4.33 38.40-4.17Q38.47-4.01 38.47-3.83Z"/></g>
</svg>