<svg xmlns="http://www.w3.org/2000/svg" xmlns:xlink="http://www.w3.org/1999/xlink" version="1.1" width="100" height="50" viewBox="0 0 100 50" xml:space="preserve">
<desc>Created with Fabric.js 3.5.0</desc>
<defs>
</defs>
<rect x="0" y="0" width="100%" height="100%" fill="rgba(255,255,255,0)"/>
<g transform="matrix(1 0 0 1 50 -14.55)" style="" id="578576">
		
<path xml:space="preserve" font-family="Lato" font-size="6" font-style="normal" font-weight="normal" style="stroke: none; stroke-width: 1; stroke-dasharray: none; stroke-linecap: butt; stroke-dashoffset: 0; stroke-linejoin: miter; stroke-miterlimit: 4; is-custom-font: none; font-file-url: none; fill: rgb(0,0,0); fill-rule: nonzero; opacity: 1; white-space: pre;" d="M-16.12-2.41L-14.40 1.88L-14.85 1.88Q-14.92 1.88-14.97 1.85Q-15.02 1.81-15.04 1.75L-15.04 1.75L-15.45 0.71L-17.38 0.71L-17.78 1.75Q-17.80 1.80-17.85 1.84Q-17.90 1.88-17.98 1.88L-17.98 1.88L-18.43 1.88L-16.71-2.41L-16.12-2.41ZM-16.54-1.46L-17.21 0.29L-15.61 0.29L-16.28-1.46Q-16.35-1.62-16.41-1.87L-16.41-1.87Q-16.45-1.74-16.48-1.64Q-16.51-1.54-16.54-1.46L-16.54-1.46ZM-11.48 1.88L-11.80 1.88Q-11.91 1.88-11.94 1.77L-11.94 1.77L-11.99 1.40Q-12.19 1.64-12.44 1.78Q-12.69 1.93-13.01 1.93L-13.01 1.93Q-13.27 1.93-13.48 1.83Q-13.70 1.73-13.85 1.53Q-14.00 1.34-14.08 1.04Q-14.16 0.75-14.16 0.38L-14.16 0.38Q-14.16 0.04-14.07-0.25Q-13.98-0.54-13.81-0.75Q-13.64-0.97-13.40-1.09Q-13.15-1.21-12.85-1.21L-12.85-1.21Q-12.57-1.21-12.37-1.11Q-12.17-1.02-12.01-0.85L-12.01-0.85L-12.01-2.53L-11.48-2.53L-11.48 1.88ZM-12.83 1.49L-12.83 1.49Q-12.57 1.49-12.38 1.37Q-12.18 1.25-12.01 1.04L-12.01 1.04L-12.01-0.43Q-12.16-0.63-12.34-0.71Q-12.51-0.79-12.73-0.79L-12.73-0.79Q-13.15-0.79-13.38-0.49Q-13.61-0.19-13.61 0.38L-13.61 0.38Q-13.61 0.67-13.56 0.88Q-13.51 1.10-13.41 1.23Q-13.31 1.37-13.16 1.43Q-13.02 1.49-12.83 1.49ZM-8.13 1.88L-8.44 1.88Q-8.56 1.88-8.59 1.77L-8.59 1.77L-8.64 1.40Q-8.83 1.64-9.08 1.78Q-9.33 1.93-9.66 1.93L-9.66 1.93Q-9.92 1.93-10.13 1.83Q-10.34 1.73-10.49 1.53Q-10.64 1.34-10.72 1.04Q-10.81 0.75-10.81 0.38L-10.81 0.38Q-10.81 0.04-10.72-0.25Q-10.63-0.54-10.46-0.75Q-10.29-0.97-10.04-1.09Q-9.80-1.21-9.49-1.21L-9.49-1.21Q-9.21-1.21-9.01-1.11Q-8.82-1.02-8.66-0.85L-8.66-0.85L-8.66-2.53L-8.13-2.53L-8.13 1.88ZM-9.48 1.49L-9.48 1.49Q-9.22 1.49-9.02 1.37Q-8.83 1.25-8.66 1.04L-8.66 1.04L-8.66-0.43Q-8.81-0.63-8.98-0.71Q-9.16-0.79-9.37-0.79L-9.37-0.79Q-9.80-0.79-10.03-0.49Q-10.25-0.19-10.25 0.38L-10.25 0.38Q-10.25 0.67-10.20 0.88Q-10.15 1.10-10.05 1.23Q-9.95 1.37-9.81 1.43Q-9.67 1.49-9.48 1.49ZM-4.47 1.88L-5.99 1.88L-5.99-2.41L-4.62-2.41Q-4.22-2.41-3.93-2.34Q-3.65-2.26-3.46-2.11Q-3.28-1.97-3.19-1.76Q-3.10-1.55-3.10-1.29L-3.10-1.29Q-3.10-1.13-3.15-0.99Q-3.20-0.84-3.30-0.71Q-3.40-0.59-3.55-0.49Q-3.70-0.39-3.91-0.33L-3.91-0.33Q-3.44-0.23-3.20 0.01Q-2.96 0.26-2.96 0.66L-2.96 0.66Q-2.96 0.93-3.06 1.16Q-3.16 1.38-3.35 1.55Q-3.55 1.71-3.83 1.80Q-4.11 1.88-4.47 1.88L-4.47 1.88ZM-4.48-0.07L-5.41-0.07L-5.41 1.42L-4.48 1.42Q-4.23 1.42-4.05 1.37Q-3.87 1.31-3.75 1.21Q-3.64 1.10-3.58 0.96Q-3.53 0.82-3.53 0.65L-3.53 0.65Q-3.53 0.31-3.77 0.12Q-4.00-0.07-4.48-0.07L-4.48-0.07ZM-5.41-1.96L-5.41-0.49L-4.64-0.49Q-4.39-0.49-4.21-0.54Q-4.03-0.60-3.91-0.69Q-3.79-0.79-3.74-0.92Q-3.68-1.06-3.68-1.22L-3.68-1.22Q-3.68-1.60-3.91-1.78Q-4.14-1.96-4.62-1.96L-4.62-1.96L-5.41-1.96ZM-0.96-1.20L-0.96-1.20Q-0.63-1.20-0.36-1.09Q-0.09-0.98 0.10-0.78Q0.29-0.57 0.39-0.28Q0.49 0.01 0.49 0.36L0.49 0.36Q0.49 0.72 0.39 1.01Q0.29 1.30 0.10 1.50Q-0.09 1.71-0.36 1.82Q-0.63 1.93-0.96 1.93L-0.96 1.93Q-1.29 1.93-1.56 1.82Q-1.83 1.71-2.02 1.50Q-2.21 1.30-2.31 1.01Q-2.41 0.72-2.41 0.36L-2.41 0.36Q-2.41 0.01-2.31-0.28Q-2.21-0.57-2.02-0.78Q-1.83-0.98-1.56-1.09Q-1.29-1.20-0.96-1.20ZM-0.96 1.51L-0.96 1.51Q-0.51 1.51-0.29 1.21Q-0.07 0.91-0.07 0.37L-0.07 0.37Q-0.07-0.18-0.29-0.48Q-0.51-0.78-0.96-0.78L-0.96-0.78Q-1.19-0.78-1.36-0.70Q-1.52-0.63-1.64-0.48Q-1.75-0.33-1.80-0.12Q-1.86 0.10-1.86 0.37L-1.86 0.37Q-1.86 0.64-1.80 0.85Q-1.75 1.06-1.64 1.21Q-1.52 1.35-1.36 1.43Q-1.19 1.51-0.96 1.51ZM3.60 1.88L3.29 1.88Q3.17 1.88 3.14 1.77L3.14 1.77L3.09 1.40Q2.90 1.64 2.65 1.78Q2.40 1.93 2.07 1.93L2.07 1.93Q1.81 1.93 1.60 1.83Q1.39 1.73 1.24 1.53Q1.09 1.34 1.01 1.04Q0.92 0.75 0.92 0.38L0.92 0.38Q0.92 0.04 1.01-0.25Q1.10-0.54 1.27-0.75Q1.44-0.97 1.69-1.09Q1.93-1.21 2.24-1.21L2.24-1.21Q2.52-1.21 2.72-1.11Q2.91-1.02 3.07-0.85L3.07-0.85L3.07-2.53L3.60-2.53L3.60 1.88ZM2.25 1.49L2.25 1.49Q2.51 1.49 2.71 1.37Q2.90 1.25 3.07 1.04L3.07 1.04L3.07-0.43Q2.92-0.63 2.75-0.71Q2.57-0.79 2.36-0.79L2.36-0.79Q1.93-0.79 1.70-0.49Q1.48-0.19 1.48 0.38L1.48 0.38Q1.48 0.67 1.53 0.88Q1.58 1.10 1.68 1.23Q1.78 1.37 1.92 1.43Q2.06 1.49 2.25 1.49ZM7.09-1.15L5.39 2.78Q5.36 2.84 5.32 2.88Q5.28 2.91 5.20 2.91L5.20 2.91L4.80 2.91L5.36 1.71L4.10-1.15L4.57-1.15Q4.64-1.15 4.67-1.12Q4.71-1.09 4.73-1.04L4.73-1.04L5.54 0.87Q5.57 0.94 5.59 1.00Q5.61 1.07 5.63 1.14L5.63 1.14Q5.65 1.07 5.67 1.00Q5.69 0.94 5.72 0.87L5.72 0.87L6.50-1.04Q6.52-1.09 6.57-1.12Q6.61-1.15 6.66-1.15L6.66-1.15L7.09-1.15ZM8.38-2.41L11.74-2.41L11.74-1.93L10.35-1.93L10.35 1.88L9.77 1.88L9.77-1.93L8.38-1.93L8.38-2.41ZM12.84-1.20L12.84-1.20Q13.12-1.20 13.35-1.11Q13.58-1.02 13.75-0.85Q13.91-0.67 14.01-0.42Q14.10-0.17 14.10 0.16L14.10 0.16Q14.10 0.28 14.08 0.32Q14.05 0.37 13.97 0.37L13.97 0.37L11.95 0.37Q11.96 0.65 12.03 0.87Q12.10 1.08 12.23 1.22Q12.35 1.37 12.53 1.44Q12.70 1.51 12.92 1.51L12.92 1.51Q13.12 1.51 13.26 1.46Q13.41 1.41 13.52 1.36Q13.62 1.31 13.69 1.26Q13.76 1.21 13.81 1.21L13.81 1.21Q13.88 1.21 13.91 1.26L13.91 1.26L14.06 1.46Q13.97 1.58 13.83 1.67Q13.69 1.76 13.53 1.81Q13.37 1.87 13.21 1.90Q13.04 1.93 12.87 1.93L12.87 1.93Q12.56 1.93 12.29 1.82Q12.03 1.71 11.83 1.51Q11.64 1.30 11.53 1.00Q11.42 0.70 11.42 0.30L11.42 0.30Q11.42-0.01 11.52-0.29Q11.62-0.57 11.80-0.77Q11.99-0.97 12.25-1.09Q12.51-1.20 12.84-1.20ZM12.86-0.81L12.86-0.81Q12.47-0.81 12.25-0.59Q12.02-0.36 11.97 0.03L11.97 0.03L13.62 0.03Q13.62-0.15 13.57-0.31Q13.52-0.46 13.42-0.57Q13.32-0.69 13.18-0.75Q13.04-0.81 12.86-0.81ZM14.25 1.88L15.32 0.33L14.29-1.15L14.81-1.15Q14.87-1.15 14.90-1.13Q14.93-1.11 14.96-1.07L14.96-1.07L15.70 0.07Q15.73-0.02 15.78-0.10L15.78-0.10L16.43-1.06Q16.46-1.10 16.49-1.13Q16.52-1.15 16.57-1.15L16.57-1.15L17.06-1.15L16.04 0.30L17.10 1.88L16.59 1.88Q16.52 1.88 16.48 1.85Q16.45 1.82 16.42 1.77L16.42 1.77L15.66 0.58Q15.64 0.67 15.59 0.74L15.59 0.74L14.89 1.77Q14.86 1.82 14.82 1.85Q14.79 1.88 14.73 1.88L14.73 1.88L14.25 1.88ZM18.55 1.93L18.55 1.93Q18.19 1.93 18.00 1.73Q17.80 1.53 17.80 1.15L17.80 1.15L17.80-0.71L17.44-0.71Q17.39-0.71 17.36-0.74Q17.32-0.76 17.32-0.82L17.32-0.82L17.32-1.04L17.82-1.10L17.94-2.04Q17.95-2.08 17.98-2.11Q18.02-2.14 18.07-2.14L18.07-2.14L18.34-2.14L18.34-1.09L19.21-1.09L19.21-0.71L18.34-0.71L18.34 1.12Q18.34 1.31 18.43 1.40Q18.52 1.49 18.67 1.49L18.67 1.49Q18.75 1.49 18.81 1.47Q18.88 1.45 18.92 1.42Q18.97 1.40 19.00 1.37Q19.03 1.35 19.05 1.35L19.05 1.35Q19.10 1.35 19.13 1.40L19.13 1.40L19.28 1.66Q19.15 1.79 18.95 1.86Q18.76 1.93 18.55 1.93Z"/></g>
<g transform="matrix(1 0 0 1 50 -14.55)" style="" id="679541">
		
<path xml:space="preserve" font-family="Lato" font-size="6" font-style="normal" font-weight="normal" style="stroke: none; stroke-width: 1; stroke-dasharray: none; stroke-linecap: butt; stroke-dashoffset: 0; stroke-linejoin: miter; stroke-miterlimit: 4; is-custom-font: none; font-file-url: none; fill: rgb(0,0,0); fill-rule: nonzero; opacity: 1; white-space: pre;" d="M-16.12-2.41L-14.40 1.88L-14.85 1.88Q-14.92 1.88-14.97 1.85Q-15.02 1.81-15.04 1.75L-15.04 1.75L-15.45 0.71L-17.38 0.71L-17.78 1.75Q-17.80 1.80-17.85 1.84Q-17.90 1.88-17.98 1.88L-17.98 1.88L-18.43 1.88L-16.71-2.41L-16.12-2.41ZM-16.54-1.46L-17.21 0.29L-15.61 0.29L-16.28-1.46Q-16.35-1.62-16.41-1.87L-16.41-1.87Q-16.45-1.74-16.48-1.64Q-16.51-1.54-16.54-1.46L-16.54-1.46ZM-11.48 1.88L-11.80 1.88Q-11.91 1.88-11.94 1.77L-11.94 1.77L-11.99 1.40Q-12.19 1.64-12.44 1.78Q-12.69 1.93-13.01 1.93L-13.01 1.93Q-13.27 1.93-13.48 1.83Q-13.70 1.73-13.85 1.53Q-14.00 1.34-14.08 1.04Q-14.16 0.75-14.16 0.38L-14.16 0.38Q-14.16 0.04-14.07-0.25Q-13.98-0.54-13.81-0.75Q-13.64-0.97-13.40-1.09Q-13.15-1.21-12.85-1.21L-12.85-1.21Q-12.57-1.21-12.37-1.11Q-12.17-1.02-12.01-0.85L-12.01-0.85L-12.01-2.53L-11.48-2.53L-11.48 1.88ZM-12.83 1.49L-12.83 1.49Q-12.57 1.49-12.38 1.37Q-12.18 1.25-12.01 1.04L-12.01 1.04L-12.01-0.43Q-12.16-0.63-12.34-0.71Q-12.51-0.79-12.73-0.79L-12.73-0.79Q-13.15-0.79-13.38-0.49Q-13.61-0.19-13.61 0.38L-13.61 0.38Q-13.61 0.67-13.56 0.88Q-13.51 1.10-13.41 1.23Q-13.31 1.37-13.16 1.43Q-13.02 1.49-12.83 1.49ZM-8.13 1.88L-8.44 1.88Q-8.56 1.88-8.59 1.77L-8.59 1.77L-8.64 1.40Q-8.83 1.64-9.08 1.78Q-9.33 1.93-9.66 1.93L-9.66 1.93Q-9.92 1.93-10.13 1.83Q-10.34 1.73-10.49 1.53Q-10.64 1.34-10.72 1.04Q-10.81 0.75-10.81 0.38L-10.81 0.38Q-10.81 0.04-10.72-0.25Q-10.63-0.54-10.46-0.75Q-10.29-0.97-10.04-1.09Q-9.80-1.21-9.49-1.21L-9.49-1.21Q-9.21-1.21-9.01-1.11Q-8.82-1.02-8.66-0.85L-8.66-0.85L-8.66-2.53L-8.13-2.53L-8.13 1.88ZM-9.48 1.49L-9.48 1.49Q-9.22 1.49-9.02 1.37Q-8.83 1.25-8.66 1.04L-8.66 1.04L-8.66-0.43Q-8.81-0.63-8.98-0.71Q-9.16-0.79-9.37-0.79L-9.37-0.79Q-9.80-0.79-10.03-0.49Q-10.25-0.19-10.25 0.38L-10.25 0.38Q-10.25 0.67-10.20 0.88Q-10.15 1.10-10.05 1.23Q-9.95 1.37-9.81 1.43Q-9.67 1.49-9.48 1.49ZM-4.47 1.88L-5.99 1.88L-5.99-2.41L-4.62-2.41Q-4.22-2.41-3.93-2.34Q-3.65-2.26-3.46-2.11Q-3.28-1.97-3.19-1.76Q-3.10-1.55-3.10-1.29L-3.10-1.29Q-3.10-1.13-3.15-0.99Q-3.20-0.84-3.30-0.71Q-3.40-0.59-3.55-0.49Q-3.70-0.39-3.91-0.33L-3.91-0.33Q-3.44-0.23-3.20 0.01Q-2.96 0.26-2.96 0.66L-2.96 0.66Q-2.96 0.93-3.06 1.16Q-3.16 1.38-3.35 1.55Q-3.55 1.71-3.83 1.80Q-4.11 1.88-4.47 1.88L-4.47 1.88ZM-4.48-0.07L-5.41-0.07L-5.41 1.42L-4.48 1.42Q-4.23 1.42-4.05 1.37Q-3.87 1.31-3.75 1.21Q-3.64 1.10-3.58 0.96Q-3.53 0.82-3.53 0.65L-3.53 0.65Q-3.53 0.31-3.77 0.12Q-4.00-0.07-4.48-0.07L-4.48-0.07ZM-5.41-1.96L-5.41-0.49L-4.64-0.49Q-4.39-0.49-4.21-0.54Q-4.03-0.60-3.91-0.69Q-3.79-0.79-3.74-0.92Q-3.68-1.06-3.68-1.22L-3.68-1.22Q-3.68-1.60-3.91-1.78Q-4.14-1.96-4.62-1.96L-4.62-1.96L-5.41-1.96ZM-0.96-1.20L-0.96-1.20Q-0.63-1.20-0.36-1.09Q-0.09-0.98 0.10-0.78Q0.29-0.57 0.39-0.28Q0.49 0.01 0.49 0.36L0.49 0.36Q0.49 0.72 0.39 1.01Q0.29 1.30 0.10 1.50Q-0.09 1.71-0.36 1.82Q-0.63 1.93-0.96 1.93L-0.96 1.93Q-1.29 1.93-1.56 1.82Q-1.83 1.71-2.02 1.50Q-2.21 1.30-2.31 1.01Q-2.41 0.72-2.41 0.36L-2.41 0.36Q-2.41 0.01-2.31-0.28Q-2.21-0.57-2.02-0.78Q-1.83-0.98-1.56-1.09Q-1.29-1.20-0.96-1.20ZM-0.96 1.51L-0.96 1.51Q-0.51 1.51-0.29 1.21Q-0.07 0.91-0.07 0.37L-0.07 0.37Q-0.07-0.18-0.29-0.48Q-0.51-0.78-0.96-0.78L-0.96-0.78Q-1.19-0.78-1.36-0.70Q-1.52-0.63-1.64-0.48Q-1.75-0.33-1.80-0.12Q-1.86 0.10-1.86 0.37L-1.86 0.37Q-1.86 0.64-1.80 0.85Q-1.75 1.06-1.64 1.21Q-1.52 1.35-1.36 1.43Q-1.19 1.51-0.96 1.51ZM3.60 1.88L3.29 1.88Q3.17 1.88 3.14 1.77L3.14 1.77L3.09 1.40Q2.90 1.64 2.65 1.78Q2.40 1.93 2.07 1.93L2.07 1.93Q1.81 1.93 1.60 1.83Q1.39 1.73 1.24 1.53Q1.09 1.34 1.01 1.04Q0.92 0.75 0.92 0.38L0.92 0.38Q0.92 0.04 1.01-0.25Q1.10-0.54 1.27-0.75Q1.44-0.97 1.69-1.09Q1.93-1.21 2.24-1.21L2.24-1.21Q2.52-1.21 2.72-1.11Q2.91-1.02 3.07-0.85L3.07-0.85L3.07-2.53L3.60-2.53L3.60 1.88ZM2.25 1.49L2.25 1.49Q2.51 1.49 2.71 1.37Q2.90 1.25 3.07 1.04L3.07 1.04L3.07-0.43Q2.92-0.63 2.75-0.71Q2.57-0.79 2.36-0.79L2.36-0.79Q1.93-0.79 1.70-0.49Q1.48-0.19 1.48 0.38L1.48 0.38Q1.48 0.67 1.53 0.88Q1.58 1.10 1.68 1.23Q1.78 1.37 1.92 1.43Q2.06 1.49 2.25 1.49ZM7.09-1.15L5.39 2.78Q5.36 2.84 5.32 2.88Q5.28 2.91 5.20 2.91L5.20 2.91L4.80 2.91L5.36 1.71L4.10-1.15L4.57-1.15Q4.64-1.15 4.67-1.12Q4.71-1.09 4.73-1.04L4.73-1.04L5.54 0.87Q5.57 0.94 5.59 1.00Q5.61 1.07 5.63 1.14L5.63 1.14Q5.65 1.07 5.67 1.00Q5.69 0.94 5.72 0.87L5.72 0.87L6.50-1.04Q6.52-1.09 6.57-1.12Q6.61-1.15 6.66-1.15L6.66-1.15L7.09-1.15ZM8.38-2.41L11.74-2.41L11.74-1.93L10.35-1.93L10.35 1.88L9.77 1.88L9.77-1.93L8.38-1.93L8.38-2.41ZM12.84-1.20L12.84-1.20Q13.12-1.20 13.35-1.11Q13.58-1.02 13.75-0.85Q13.91-0.67 14.01-0.42Q14.10-0.17 14.10 0.16L14.10 0.16Q14.10 0.28 14.08 0.32Q14.05 0.37 13.97 0.37L13.97 0.37L11.95 0.37Q11.96 0.65 12.03 0.87Q12.10 1.08 12.23 1.22Q12.35 1.37 12.53 1.44Q12.70 1.51 12.92 1.51L12.92 1.51Q13.12 1.51 13.26 1.46Q13.41 1.41 13.52 1.36Q13.62 1.31 13.69 1.26Q13.76 1.21 13.81 1.21L13.81 1.21Q13.88 1.21 13.91 1.26L13.91 1.26L14.06 1.46Q13.97 1.58 13.83 1.67Q13.69 1.76 13.53 1.81Q13.37 1.87 13.21 1.90Q13.04 1.93 12.87 1.93L12.87 1.93Q12.56 1.93 12.29 1.82Q12.03 1.71 11.83 1.51Q11.64 1.30 11.53 1.00Q11.42 0.70 11.42 0.30L11.42 0.30Q11.42-0.01 11.52-0.29Q11.62-0.57 11.80-0.77Q11.99-0.97 12.25-1.09Q12.51-1.20 12.84-1.20ZM12.86-0.81L12.86-0.81Q12.47-0.81 12.25-0.59Q12.02-0.36 11.97 0.03L11.97 0.03L13.62 0.03Q13.62-0.15 13.57-0.31Q13.52-0.46 13.42-0.57Q13.32-0.69 13.18-0.75Q13.04-0.81 12.86-0.81ZM14.25 1.88L15.32 0.33L14.29-1.15L14.81-1.15Q14.87-1.15 14.90-1.13Q14.93-1.11 14.96-1.07L14.96-1.07L15.70 0.07Q15.73-0.02 15.78-0.10L15.78-0.10L16.43-1.06Q16.46-1.10 16.49-1.13Q16.52-1.15 16.57-1.15L16.57-1.15L17.06-1.15L16.04 0.30L17.10 1.88L16.59 1.88Q16.52 1.88 16.48 1.85Q16.45 1.82 16.42 1.77L16.42 1.77L15.66 0.58Q15.64 0.67 15.59 0.74L15.59 0.74L14.89 1.77Q14.86 1.82 14.82 1.85Q14.79 1.88 14.73 1.88L14.73 1.88L14.25 1.88ZM18.55 1.93L18.55 1.93Q18.19 1.93 18.00 1.73Q17.80 1.53 17.80 1.15L17.80 1.15L17.80-0.71L17.44-0.71Q17.39-0.71 17.36-0.74Q17.32-0.76 17.32-0.82L17.32-0.82L17.32-1.04L17.82-1.10L17.94-2.04Q17.95-2.08 17.98-2.11Q18.02-2.14 18.07-2.14L18.07-2.14L18.34-2.14L18.34-1.09L19.21-1.09L19.21-0.71L18.34-0.71L18.34 1.12Q18.34 1.31 18.43 1.40Q18.52 1.49 18.67 1.49L18.67 1.49Q18.75 1.49 18.81 1.47Q18.88 1.45 18.92 1.42Q18.97 1.40 19.00 1.37Q19.03 1.35 19.05 1.35L19.05 1.35Q19.10 1.35 19.13 1.40L19.13 1.40L19.28 1.66Q19.15 1.79 18.95 1.86Q18.76 1.93 18.55 1.93Z"/></g>
<g transform="matrix(1 0 0 1 50 -13.985)" style="" id="634821">
		
<path xml:space="preserve" font-family="Lato" font-size="7" font-style="normal" font-weight="bold" style="stroke: none; stroke-width: 1; stroke-dasharray: none; stroke-linecap: butt; stroke-dashoffset: 0; stroke-linejoin: miter; stroke-miterlimit: 4; is-custom-font: none; font-file-url: none; fill: rgb(0,0,0); fill-rule: nonzero; opacity: 1; white-space: pre;" d="M-22.84-2.86L-20.85 2.20L-21.58 2.20Q-21.70 2.20-21.78 2.14Q-21.86 2.08-21.89 1.99L-21.89 1.99L-22.27 0.95L-24.37 0.95L-24.75 1.99Q-24.77 2.07-24.86 2.13Q-24.94 2.20-25.06 2.20L-25.06 2.20L-25.79 2.20L-23.80-2.86L-22.84-2.86ZM-23.51-1.39L-24.13 0.29L-22.51 0.29L-23.13-1.40Q-23.17-1.51-23.22-1.66Q-23.27-1.81-23.32-1.99L-23.32-1.99Q-23.37-1.81-23.42-1.66Q-23.46-1.50-23.51-1.39L-23.51-1.39ZM-17.32 2.20L-17.85 2.20Q-18.02 2.20-18.07 2.04L-18.07 2.04L-18.14 1.69Q-18.25 1.82-18.38 1.92Q-18.50 2.02-18.64 2.10Q-18.78 2.17-18.94 2.21Q-19.11 2.25-19.30 2.25L-19.30 2.25Q-19.59 2.25-19.83 2.13Q-20.08 2.01-20.26 1.77Q-20.43 1.54-20.53 1.20Q-20.63 0.85-20.63 0.41L-20.63 0.41Q-20.63 0.01-20.52-0.33Q-20.41-0.67-20.21-0.92Q-20.00-1.18-19.72-1.32Q-19.44-1.46-19.08-1.46L-19.08-1.46Q-18.78-1.46-18.57-1.36Q-18.35-1.27-18.19-1.11L-18.19-1.11L-18.19-3.00L-17.32-3.00L-17.32 2.20ZM-19.00 1.57L-19.00 1.57Q-18.73 1.57-18.54 1.45Q-18.35 1.34-18.19 1.13L-18.19 1.13L-18.19-0.48Q-18.33-0.65-18.51-0.73Q-18.68-0.80-18.88-0.80L-18.88-0.80Q-19.08-0.80-19.23-0.73Q-19.39-0.65-19.50-0.50Q-19.61-0.36-19.67-0.13Q-19.73 0.10-19.73 0.41L-19.73 0.41Q-19.73 0.73-19.68 0.95Q-19.63 1.17-19.54 1.30Q-19.44 1.44-19.31 1.50Q-19.17 1.57-19.00 1.57ZM-13.33 2.20L-13.86 2.20Q-14.03 2.20-14.08 2.04L-14.08 2.04L-14.15 1.69Q-14.26 1.82-14.39 1.92Q-14.51 2.02-14.65 2.10Q-14.79 2.17-14.95 2.21Q-15.12 2.25-15.31 2.25L-15.31 2.25Q-15.60 2.25-15.84 2.13Q-16.09 2.01-16.27 1.77Q-16.44 1.54-16.54 1.20Q-16.64 0.85-16.64 0.41L-16.64 0.41Q-16.64 0.01-16.53-0.33Q-16.42-0.67-16.22-0.92Q-16.01-1.18-15.73-1.32Q-15.45-1.46-15.09-1.46L-15.09-1.46Q-14.79-1.46-14.58-1.36Q-14.36-1.27-14.20-1.11L-14.20-1.11L-14.20-3.00L-13.33-3.00L-13.33 2.20ZM-15.01 1.57L-15.01 1.57Q-14.74 1.57-14.55 1.45Q-14.36 1.34-14.20 1.13L-14.20 1.13L-14.20-0.48Q-14.34-0.65-14.52-0.73Q-14.69-0.80-14.89-0.80L-14.89-0.80Q-15.09-0.80-15.24-0.73Q-15.40-0.65-15.51-0.50Q-15.62-0.36-15.68-0.13Q-15.74 0.10-15.74 0.41L-15.74 0.41Q-15.74 0.73-15.69 0.95Q-15.64 1.17-15.55 1.30Q-15.45 1.44-15.32 1.50Q-15.18 1.57-15.01 1.57ZM-8.05-2.39L-8.28-1.94Q-8.32-1.86-8.37-1.83Q-8.42-1.80-8.49-1.80L-8.49-1.80Q-8.56-1.80-8.65-1.86Q-8.74-1.91-8.86-1.98Q-8.98-2.04-9.14-2.10Q-9.30-2.15-9.51-2.15L-9.51-2.15Q-9.71-2.15-9.85-2.10Q-10.00-2.06-10.10-1.97Q-10.20-1.89-10.25-1.77Q-10.30-1.65-10.30-1.51L-10.30-1.51Q-10.30-1.34-10.20-1.22Q-10.10-1.10-9.93-1.01Q-9.77-0.93-9.56-0.86Q-9.35-0.80-9.13-0.72Q-8.91-0.65-8.70-0.55Q-8.49-0.45-8.33-0.29Q-8.16-0.14-8.06 0.08Q-7.96 0.30-7.96 0.61L-7.96 0.61Q-7.96 0.96-8.08 1.26Q-8.20 1.55-8.42 1.78Q-8.65 2.00-8.97 2.13Q-9.30 2.25-9.72 2.25L-9.72 2.25Q-9.96 2.25-10.20 2.21Q-10.43 2.16-10.65 2.07Q-10.86 1.99-11.05 1.86Q-11.24 1.74-11.38 1.59L-11.38 1.59L-11.11 1.14Q-11.07 1.09-11.02 1.06Q-10.96 1.02-10.90 1.02L-10.90 1.02Q-10.81 1.02-10.71 1.09Q-10.61 1.17-10.47 1.25Q-10.33 1.34-10.14 1.41Q-9.95 1.48-9.69 1.48L-9.69 1.48Q-9.29 1.48-9.07 1.29Q-8.85 1.10-8.85 0.75L-8.85 0.75Q-8.85 0.55-8.95 0.42Q-9.05 0.29-9.21 0.21Q-9.38 0.12-9.59 0.06Q-9.80 0.00-10.01-0.07Q-10.23-0.14-10.44-0.23Q-10.65-0.33-10.82-0.49Q-10.98-0.65-11.08-0.88Q-11.18-1.12-11.18-1.47L-11.18-1.47Q-11.18-1.74-11.07-2.00Q-10.96-2.27-10.75-2.47Q-10.54-2.67-10.23-2.80Q-9.92-2.92-9.52-2.92L-9.52-2.92Q-9.08-2.92-8.70-2.78Q-8.32-2.64-8.05-2.39L-8.05-2.39ZM-7.36-1.39L-6.50-1.39L-6.50 0.89Q-6.50 1.22-6.35 1.40Q-6.20 1.58-5.89 1.58L-5.89 1.58Q-5.67 1.58-5.47 1.48Q-5.27 1.38-5.10 1.20L-5.10 1.20L-5.10-1.39L-4.24-1.39L-4.24 2.20L-4.76 2.20Q-4.93 2.20-4.98 2.04L-4.98 2.04L-5.04 1.75Q-5.16 1.87-5.27 1.96Q-5.39 2.05-5.53 2.12Q-5.66 2.18-5.82 2.22Q-5.97 2.25-6.15 2.25L-6.15 2.25Q-6.45 2.25-6.67 2.16Q-6.90 2.06-7.05 1.87Q-7.21 1.69-7.29 1.44Q-7.36 1.19-7.36 0.89L-7.36 0.89L-7.36-1.39ZM-2.73 2.20L-3.30 2.20L-3.30-3.00L-2.44-3.00L-2.44-0.95Q-2.22-1.18-1.95-1.31Q-1.68-1.45-1.32-1.45L-1.32-1.45Q-1.03-1.45-0.79-1.33Q-0.54-1.21-0.37-0.98Q-0.19-0.74-0.09-0.41Q0.00-0.07 0.00 0.38L0.00 0.38Q0.00 0.78-0.11 1.12Q-0.21 1.46-0.41 1.72Q-0.62 1.97-0.90 2.11Q-1.19 2.25-1.54 2.25L-1.54 2.25Q-1.70 2.25-1.84 2.22Q-1.98 2.19-2.09 2.13Q-2.20 2.07-2.30 1.98Q-2.39 1.89-2.48 1.79L-2.48 1.79L-2.52 2.03Q-2.54 2.12-2.59 2.16Q-2.64 2.20-2.73 2.20L-2.73 2.20ZM-1.62-0.78L-1.62-0.78Q-1.89-0.78-2.08-0.66Q-2.27-0.55-2.44-0.34L-2.44-0.34L-2.44 1.27Q-2.29 1.45-2.12 1.52Q-1.94 1.59-1.74 1.59L-1.74 1.59Q-1.54 1.59-1.39 1.52Q-1.23 1.45-1.12 1.30Q-1.01 1.15-0.95 0.92Q-0.89 0.69-0.89 0.38L-0.89 0.38Q-0.89 0.06-0.94-0.16Q-0.99-0.38-1.09-0.51Q-1.18-0.65-1.31-0.71Q-1.45-0.78-1.62-0.78ZM1.54 2.20L0.68 2.20L0.68-3.00L1.54-3.00L1.54-1.00Q1.75-1.20 2.01-1.33Q2.26-1.45 2.60-1.45L2.60-1.45Q2.89-1.45 3.12-1.35Q3.35-1.25 3.50-1.07Q3.65-0.89 3.73-0.64Q3.81-0.39 3.81-0.09L3.81-0.09L3.81 2.20L2.94 2.20L2.94-0.09Q2.94-0.42 2.79-0.60Q2.64-0.78 2.33-0.78L2.33-0.78Q2.11-0.78 1.91-0.67Q1.72-0.57 1.54-0.40L1.54-0.40L1.54 2.20ZM6.14-1.45L6.14-1.45Q6.48-1.45 6.77-1.34Q7.05-1.23 7.26-1.02Q7.47-0.81 7.58-0.51Q7.70-0.21 7.70 0.18L7.70 0.18Q7.70 0.28 7.69 0.34Q7.68 0.41 7.66 0.44Q7.63 0.48 7.59 0.50Q7.56 0.51 7.50 0.51L7.50 0.51L5.28 0.51Q5.32 1.06 5.58 1.32Q5.83 1.58 6.26 1.58L6.26 1.58Q6.47 1.58 6.62 1.53Q6.78 1.48 6.89 1.43Q7.00 1.37 7.09 1.32Q7.17 1.27 7.26 1.27L7.26 1.27Q7.31 1.27 7.35 1.29Q7.38 1.31 7.41 1.35L7.41 1.35L7.66 1.66Q7.52 1.83 7.34 1.95Q7.16 2.06 6.97 2.13Q6.78 2.20 6.57 2.22Q6.37 2.25 6.18 2.25L6.18 2.25Q5.81 2.25 5.49 2.13Q5.17 2.00 4.93 1.76Q4.69 1.52 4.55 1.16Q4.42 0.80 4.42 0.33L4.42 0.33Q4.42-0.04 4.54-0.36Q4.65-0.69 4.88-0.93Q5.10-1.17 5.42-1.31Q5.74-1.45 6.14-1.45ZM6.16-0.83L6.16-0.83Q5.78-0.83 5.57-0.62Q5.35-0.40 5.30-0.01L5.30-0.01L6.92-0.01Q6.92-0.18 6.87-0.33Q6.83-0.48 6.73-0.59Q6.64-0.70 6.50-0.76Q6.35-0.83 6.16-0.83ZM11.21-0.07L11.21 2.20L10.83 2.20Q10.70 2.20 10.63 2.16Q10.56 2.13 10.53 2.01L10.53 2.01L10.45 1.76Q10.31 1.88 10.18 1.97Q10.05 2.07 9.91 2.13Q9.77 2.19 9.61 2.22Q9.46 2.25 9.26 2.25L9.26 2.25Q9.04 2.25 8.84 2.19Q8.65 2.13 8.51 2.01Q8.38 1.89 8.30 1.71Q8.22 1.52 8.22 1.28L8.22 1.28Q8.22 1.08 8.33 0.88Q8.43 0.68 8.68 0.52Q8.93 0.36 9.34 0.26Q9.76 0.15 10.37 0.14L10.37 0.14L10.37-0.07Q10.37-0.43 10.22-0.60Q10.07-0.78 9.78-0.78L9.78-0.78Q9.57-0.78 9.43-0.73Q9.29-0.68 9.18-0.62Q9.08-0.56 8.99-0.51Q8.90-0.46 8.80-0.46L8.80-0.46Q8.71-0.46 8.65-0.50Q8.59-0.55 8.55-0.62L8.55-0.62L8.39-0.89Q9.01-1.46 9.88-1.46L9.88-1.46Q10.20-1.46 10.45-1.36Q10.69-1.25 10.86-1.07Q11.04-0.88 11.12-0.63Q11.21-0.37 11.21-0.07L11.21-0.07ZM9.53 1.66L9.53 1.66Q9.67 1.66 9.78 1.64Q9.89 1.61 9.99 1.56Q10.09 1.51 10.18 1.44Q10.28 1.37 10.37 1.27L10.37 1.27L10.37 0.67Q9.99 0.68 9.74 0.73Q9.48 0.78 9.33 0.85Q9.18 0.92 9.11 1.02Q9.05 1.12 9.05 1.24L9.05 1.24Q9.05 1.46 9.18 1.56Q9.32 1.66 9.53 1.66ZM15.12 2.20L14.59 2.20Q14.42 2.20 14.37 2.04L14.37 2.04L14.30 1.69Q14.19 1.82 14.07 1.92Q13.94 2.02 13.80 2.10Q13.66 2.17 13.50 2.21Q13.33 2.25 13.15 2.25L13.15 2.25Q12.85 2.25 12.61 2.13Q12.36 2.01 12.19 1.77Q12.01 1.54 11.91 1.20Q11.82 0.85 11.82 0.41L11.82 0.41Q11.82 0.01 11.92-0.33Q12.03-0.67 12.24-0.92Q12.44-1.18 12.72-1.32Q13.01-1.46 13.36-1.46L13.36-1.46Q13.66-1.46 13.87-1.36Q14.09-1.27 14.26-1.11L14.26-1.11L14.26-3.00L15.12-3.00L15.12 2.20ZM13.44 1.57L13.44 1.57Q13.71 1.57 13.90 1.45Q14.09 1.34 14.26 1.13L14.26 1.13L14.26-0.48Q14.11-0.65 13.94-0.73Q13.76-0.80 13.56-0.80L13.56-0.80Q13.37-0.80 13.21-0.73Q13.05-0.65 12.94-0.50Q12.83-0.36 12.77-0.13Q12.71 0.10 12.71 0.41L12.71 0.41Q12.71 0.73 12.76 0.95Q12.81 1.17 12.90 1.30Q13.00 1.44 13.14 1.50Q13.27 1.57 13.44 1.57ZM16.11-3.00L16.97-3.00L16.97 2.20L16.11 2.20L16.11-3.00ZM18.01-1.39L18.87-1.39L18.87 2.20L18.01 2.20L18.01-1.39ZM19.00-2.44L19.00-2.44Q19.00-2.33 18.96-2.23Q18.91-2.13 18.84-2.06Q18.76-1.98 18.66-1.94Q18.56-1.90 18.44-1.90L18.44-1.90Q18.33-1.90 18.23-1.94Q18.13-1.98 18.06-2.06Q17.98-2.13 17.94-2.23Q17.90-2.33 17.90-2.44L17.90-2.44Q17.90-2.55 17.94-2.66Q17.98-2.76 18.06-2.83Q18.13-2.90 18.23-2.95Q18.33-2.99 18.44-2.99L18.44-2.99Q18.56-2.99 18.66-2.95Q18.76-2.90 18.84-2.83Q18.91-2.76 18.96-2.66Q19.00-2.55 19.00-2.44ZM20.71 2.20L19.85 2.20L19.85-1.39L20.38-1.39Q20.54-1.39 20.60-1.23L20.60-1.23L20.66-0.95Q20.77-1.06 20.89-1.15Q21.01-1.25 21.14-1.31Q21.28-1.38 21.43-1.41Q21.58-1.45 21.77-1.45L21.77-1.45Q22.06-1.45 22.29-1.35Q22.52-1.25 22.67-1.07Q22.82-0.89 22.90-0.64Q22.98-0.39 22.98-0.09L22.98-0.09L22.98 2.20L22.11 2.20L22.11-0.09Q22.11-0.42 21.96-0.60Q21.81-0.78 21.50-0.78L21.50-0.78Q21.28-0.78 21.08-0.67Q20.89-0.57 20.71-0.40L20.71-0.40L20.71 2.20ZM25.31-1.45L25.31-1.45Q25.65-1.45 25.94-1.34Q26.22-1.23 26.43-1.02Q26.63-0.81 26.75-0.51Q26.87-0.21 26.87 0.18L26.87 0.18Q26.87 0.28 26.86 0.34Q26.85 0.41 26.83 0.44Q26.80 0.48 26.76 0.50Q26.73 0.51 26.67 0.51L26.67 0.51L24.45 0.51Q24.49 1.06 24.74 1.32Q25.00 1.58 25.43 1.58L25.43 1.58Q25.64 1.58 25.79 1.53Q25.95 1.48 26.06 1.43Q26.17 1.37 26.26 1.32Q26.34 1.27 26.42 1.27L26.42 1.27Q26.48 1.27 26.52 1.29Q26.55 1.31 26.58 1.35L26.58 1.35L26.83 1.66Q26.69 1.83 26.51 1.95Q26.33 2.06 26.14 2.13Q25.95 2.20 25.74 2.22Q25.54 2.25 25.35 2.25L25.35 2.25Q24.98 2.25 24.66 2.13Q24.34 2.00 24.10 1.76Q23.86 1.52 23.72 1.16Q23.59 0.80 23.59 0.33L23.59 0.33Q23.59-0.04 23.71-0.36Q23.82-0.69 24.05-0.93Q24.27-1.17 24.59-1.31Q24.91-1.45 25.31-1.45ZM25.33-0.83L25.33-0.83Q24.95-0.83 24.74-0.62Q24.52-0.40 24.46-0.01L24.46-0.01L26.09-0.01Q26.09-0.18 26.04-0.33Q26.00-0.48 25.90-0.59Q25.81-0.70 25.67-0.76Q25.52-0.83 25.33-0.83Z"/></g>
<g transform="matrix(1 0 0 1 51.2868 24.58)" style="" id="604114">
		
<path xml:space="preserve" font-family="Lato" font-size="32" font-style="normal" font-weight="normal" style="stroke: none; stroke-width: 1; stroke-dasharray: none; stroke-linecap: butt; stroke-dashoffset: 0; stroke-linejoin: miter; stroke-miterlimit: 4; is-custom-font: none; font-file-url: none; fill: rgb(141,141,141); fill-rule: nonzero; opacity: 1; white-space: pre;" d="M-38.63 7.80L-38.63 7.80Q-37.70 7.80-36.92 7.71Q-36.15 7.62-35.46 7.44Q-34.77 7.27-34.16 7.02Q-33.55 6.77-32.95 6.45L-32.95 6.45L-32.95 1.40L-36.50 1.40Q-36.80 1.40-36.99 1.22Q-37.17 1.04-37.17 0.79L-37.17 0.79L-37.17-0.97L-30.13-0.97L-30.13 7.83Q-30.99 8.45-31.93 8.92Q-32.87 9.38-33.93 9.69Q-34.99 10.00-36.21 10.16Q-37.43 10.31-38.85 10.31L-38.85 10.31Q-41.35 10.31-43.43 9.45Q-45.51 8.60-47.01 7.05Q-48.51 5.51-49.35 3.35Q-50.19 1.19-50.19-1.40L-50.19-1.40Q-50.19-4.03-49.37-6.19Q-48.55-8.35-47.02-9.89Q-45.49-11.44-43.32-12.28Q-41.15-13.13-38.47-13.13L-38.47-13.13Q-37.11-13.13-35.94-12.93Q-34.77-12.73-33.77-12.36Q-32.77-11.98-31.92-11.44Q-31.07-10.91-30.34-10.24L-30.34-10.24L-31.22-8.83Q-31.49-8.40-31.92-8.40L-31.92-8.40Q-32.18-8.40-32.48-8.57L-32.48-8.57Q-32.88-8.80-33.38-9.12Q-33.87-9.44-34.59-9.73Q-35.30-10.03-36.27-10.24Q-37.23-10.44-38.56-10.44L-38.56-10.44Q-40.50-10.44-42.07-9.81Q-43.63-9.18-44.74-8.00Q-45.84-6.83-46.43-5.16Q-47.03-3.48-47.03-1.40L-47.03-1.40Q-47.03 0.77-46.41 2.48Q-45.79 4.18-44.67 5.36Q-43.55 6.55-42.02 7.17Q-40.48 7.80-38.63 7.80ZM-19.25-6.41L-19.25-6.41Q-17.47-6.41-16.04-5.82Q-14.61-5.23-13.61-4.14Q-12.61-3.05-12.07-1.51Q-11.54 0.04-11.54 1.94L-11.54 1.94Q-11.54 3.86-12.07 5.40Q-12.61 6.93-13.61 8.02Q-14.61 9.11-16.04 9.69Q-17.47 10.28-19.25 10.28L-19.25 10.28Q-21.03 10.28-22.46 9.69Q-23.89 9.11-24.90 8.02Q-25.91 6.93-26.45 5.40Q-26.99 3.86-26.99 1.94L-26.99 1.94Q-26.99 0.04-26.45-1.51Q-25.91-3.05-24.90-4.14Q-23.89-5.23-22.46-5.82Q-21.03-6.41-19.25-6.41ZM-19.25 8.05L-19.25 8.05Q-16.85 8.05-15.67 6.44Q-14.48 4.84-14.48 1.96L-14.48 1.96Q-14.48-0.94-15.67-2.56Q-16.85-4.17-19.25-4.17L-19.25-4.17Q-20.47-4.17-21.36-3.76Q-22.26-3.34-22.86-2.56Q-23.46-1.77-23.75-0.63Q-24.05 0.52-24.05 1.96L-24.05 1.96Q-24.05 3.40-23.75 4.53Q-23.46 5.67-22.86 6.44Q-22.26 7.22-21.36 7.64Q-20.47 8.05-19.25 8.05ZM-1.46-6.41L-1.46-6.41Q0.32-6.41 1.75-5.82Q3.18-5.23 4.18-4.14Q5.18-3.05 5.72-1.51Q6.25 0.04 6.25 1.94L6.25 1.94Q6.25 3.86 5.72 5.40Q5.18 6.93 4.18 8.02Q3.18 9.11 1.75 9.69Q0.32 10.28-1.46 10.28L-1.46 10.28Q-3.23 10.28-4.67 9.69Q-6.10 9.11-7.11 8.02Q-8.11 6.93-8.66 5.40Q-9.20 3.86-9.20 1.94L-9.20 1.94Q-9.20 0.04-8.66-1.51Q-8.11-3.05-7.11-4.14Q-6.10-5.23-4.67-5.82Q-3.23-6.41-1.46-6.41ZM-1.46 8.05L-1.46 8.05Q0.94 8.05 2.13 6.44Q3.31 4.84 3.31 1.96L3.31 1.96Q3.31-0.94 2.13-2.56Q0.94-4.17-1.46-4.17L-1.46-4.17Q-2.67-4.17-3.57-3.76Q-4.47-3.34-5.07-2.56Q-5.67-1.77-5.96-0.63Q-6.26 0.52-6.26 1.96L-6.26 1.96Q-6.26 3.40-5.96 4.53Q-5.67 5.67-5.07 6.44Q-4.47 7.22-3.57 7.64Q-2.67 8.05-1.46 8.05ZM15.23-6.43L15.23-6.43Q16.29-6.43 17.21-6.20Q18.13-5.96 18.88-5.52L18.88-5.52L23.28-5.52L23.28-4.46Q23.28-3.93 22.61-3.79L22.61-3.79L20.77-3.53Q21.31-2.49 21.31-1.21L21.31-1.21Q21.31-0.03 20.85 0.94Q20.40 1.91 19.59 2.60Q18.78 3.28 17.67 3.65Q16.56 4.02 15.23 4.02L15.23 4.02Q14.09 4.02 13.09 3.75L13.09 3.75Q12.57 4.07 12.31 4.44Q12.05 4.80 12.05 5.16L12.05 5.16Q12.05 5.73 12.51 6.03Q12.97 6.32 13.74 6.45Q14.51 6.58 15.49 6.61Q16.46 6.64 17.48 6.72Q18.49 6.79 19.47 6.96Q20.45 7.14 21.21 7.54Q21.98 7.94 22.45 8.64Q22.91 9.35 22.91 10.47L22.91 10.47Q22.91 11.51 22.39 12.48Q21.87 13.46 20.89 14.22Q19.92 14.98 18.51 15.44Q17.10 15.89 15.33 15.89L15.33 15.89Q13.55 15.89 12.21 15.54Q10.88 15.19 10.00 14.60Q9.12 14.00 8.68 13.23Q8.24 12.45 8.24 11.60L8.24 11.60Q8.24 10.40 9.00 9.56Q9.76 8.72 11.09 8.23L11.09 8.23Q10.40 7.91 9.99 7.37Q9.58 6.84 9.58 5.94L9.58 5.94Q9.58 5.59 9.71 5.21Q9.84 4.84 10.10 4.47Q10.37 4.10 10.75 3.76Q11.13 3.43 11.65 3.17L11.65 3.17Q10.45 2.50 9.77 1.39Q9.09 0.28 9.09-1.21L9.09-1.21Q9.09-2.40 9.54-3.36Q10.00-4.33 10.81-5.01Q11.63-5.69 12.76-6.06Q13.89-6.43 15.23-6.43ZM20.29 10.93L20.29 10.93Q20.29 10.32 19.95 9.96Q19.61 9.59 19.04 9.39Q18.46 9.19 17.71 9.09Q16.96 9.00 16.13 8.96Q15.29 8.92 14.43 8.87Q13.57 8.82 12.78 8.69L12.78 8.69Q11.87 9.12 11.30 9.75Q10.73 10.37 10.73 11.24L10.73 11.24Q10.73 11.78 11.01 12.25Q11.29 12.72 11.87 13.07Q12.45 13.41 13.32 13.61Q14.19 13.81 15.37 13.81L15.37 13.81Q16.53 13.81 17.44 13.60Q18.35 13.40 18.98 13.01Q19.61 12.63 19.95 12.10Q20.29 11.57 20.29 10.93ZM15.23 2.13L15.23 2.13Q16.09 2.13 16.76 1.89Q17.42 1.65 17.87 1.22Q18.32 0.79 18.54 0.19Q18.77-0.41 18.77-1.13L18.77-1.13Q18.77-2.62 17.86-3.50Q16.96-4.38 15.23-4.38L15.23-4.38Q13.52-4.38 12.61-3.50Q11.71-2.62 11.71-1.13L11.71-1.13Q11.71-0.41 11.94 0.19Q12.17 0.79 12.62 1.22Q13.07 1.65 13.73 1.89Q14.38 2.13 15.23 2.13ZM26.45-13.52L29.29-13.52L29.29 10.05L26.45 10.05L26.45-13.52ZM40.73-6.41L40.73-6.41Q42.19-6.41 43.42-5.92Q44.65-5.44 45.55-4.52Q46.45-3.60 46.95-2.24Q47.45-0.89 47.45 0.84L47.45 0.84Q47.45 1.51 47.31 1.73Q47.17 1.96 46.77 1.96L46.77 1.96L35.98 1.96Q36.01 3.49 36.40 4.63Q36.78 5.76 37.45 6.52Q38.13 7.28 39.05 7.66Q39.98 8.04 41.13 8.04L41.13 8.04Q42.21 8.04 42.98 7.79Q43.76 7.54 44.32 7.25Q44.88 6.96 45.25 6.72Q45.63 6.47 45.90 6.47L45.90 6.47Q46.25 6.47 46.45 6.74L46.45 6.74L47.25 7.78Q46.72 8.42 45.98 8.89Q45.25 9.36 44.41 9.67Q43.57 9.97 42.67 10.12Q41.77 10.28 40.89 10.28L40.89 10.28Q39.21 10.28 37.80 9.71Q36.38 9.14 35.35 8.04Q34.32 6.95 33.74 5.33Q33.17 3.72 33.17 1.62L33.17 1.62Q33.17-0.08 33.69-1.55Q34.21-3.02 35.18-4.10Q36.16-5.18 37.57-5.80Q38.97-6.41 40.73-6.41ZM40.80-4.32L40.80-4.32Q38.73-4.32 37.55-3.12Q36.37-1.93 36.08 0.18L36.08 0.18L44.89 0.18Q44.89-0.81 44.62-1.64Q44.35-2.46 43.82-3.06Q43.29-3.66 42.53-3.99Q41.77-4.32 40.80-4.32Z"/></g>
</svg>