<svg xmlns="http://www.w3.org/2000/svg" xmlns:xlink="http://www.w3.org/1999/xlink" version="1.1" width="100" height="50" viewBox="0 0 100 50" xml:space="preserve">
<desc>Created with Fabric.js 3.5.0</desc>
<defs>
</defs>
<rect x="0" y="0" width="100%" height="100%" fill="rgba(255,255,255,0)"/>
<g transform="matrix(0.0452 0 0 0.0452 2.2826 15.3748)" id="16158">
<rect style="stroke: none; stroke-width: 1; stroke-dasharray: none; stroke-linecap: butt; stroke-dashoffset: 0; stroke-linejoin: miter; stroke-miterlimit: 4; is-custom-font: none; font-file-url: none; fill: rgb(255,255,255); fill-rule: nonzero; opacity: 1;" x="-50" y="-50" rx="0" ry="0" width="100" height="100"/>
</g>
<g transform="matrix(0.0655 0 0 0.0655 18.5038 -4.8154)" id="908771">
<rect style="stroke: none; stroke-width: 1; stroke-dasharray: none; stroke-linecap: butt; stroke-dashoffset: 0; stroke-linejoin: miter; stroke-miterlimit: 4; is-custom-font: none; font-file-url: none; fill: rgb(255,255,255); fill-opacity: 0; fill-rule: nonzero; opacity: 1;" vector-effect="non-scaling-stroke" x="-50" y="-50" rx="0" ry="0" width="100" height="100"/>
</g>
<g transform="matrix(0.1192 0 0 0.0812 26.1181 33.8898)" id="Background Shape">
<path style="stroke: none; stroke-width: 1; stroke-dasharray: none; stroke-linecap: butt; stroke-dashoffset: 0; stroke-linejoin: miter; stroke-miterlimit: 4; is-custom-font: none; font-file-url: none; fill: rgb(242,242,242); fill-rule: evenodd; opacity: 0.2545;" vector-effect="non-scaling-stroke" transform=" translate(-214.3678, -283.2752)" d="M 408.251 302.173 C 413.908 344.518 276.709 372.138 158.619 352.862 C 40.5285 333.587 -13.6457 258.314 42.705 218.206 C 99.0557 178.097 402.593 259.828 408.251 302.173 Z" stroke-linecap="round"/>
</g>
<g transform="matrix(0.1192 0 0 0.0812 11.6702 17.2355)" id="Leaf Top">
<path style="stroke: none; stroke-width: 1; stroke-dasharray: none; stroke-linecap: butt; stroke-dashoffset: 0; stroke-linejoin: miter; stroke-miterlimit: 4; is-custom-font: none; font-file-url: none; fill: rgb(193,222,226); fill-rule: evenodd; opacity: 0.2;" vector-effect="non-scaling-stroke" transform=" translate(-93.1525, -78.0939)" d="M 129.412 24.1335 C 131.574 23.0609 134.455 24.3048 133.253 27.1402 C 131.965 30.1764 127.205 30.214 124.516 30.1538 C 124.785 30.1397 125.652 27.3554 125.948 26.9346 C 126.823 25.6935 128.083 24.794 129.412 24.1335 Z M 104.523 79.4562 C 103.76 80.1094 104.461 79.5175 104.523 79.4562 V 79.4562 Z M 131.924 38.2304 C 133.217 39.2092 133.278 40.9386 132.221 42.1097 C 130.962 43.504 128.666 43.4544 126.952 43.3195 C 126.176 43.2583 122.036 42.9319 123.017 42.2599 C 122.942 42.2882 122.784 42.3569 122.615 42.4502 C 122.525 42.779 122.429 43.1067 122.329 43.4329 C 122.354 43.447 122.375 43.4622 122.401 43.4762 C 122.372 43.464 122.353 43.4507 122.328 43.4383 C 121.33 46.6991 119.911 49.8041 118.054 52.7092 C 118.749 52.4379 119.468 52.2324 120.197 52.1408 C 122.358 51.8689 126.901 53.5302 124.483 56.3816 C 122.165 59.1152 118.56 56.1856 115.93 55.7827 C 113.378 59.3115 110.564 62.6935 107.616 65.9626 C 107.796 66.0186 107.955 66.1353 108.046 66.317 C 109.228 65.722 110.46 64.8711 111.555 64.6403 C 113.134 64.3078 116.371 64.105 117.564 65.5049 C 119.031 67.2263 117.457 68.6259 115.723 68.957 C 113.208 69.4373 109.917 68.2215 107.498 67.4002 C 107.221 67.4488 106.919 67.3688 106.739 67.1495 C 106.685 67.1321 106.632 67.1151 106.58 67.0985 C 103.594 70.3517 100.494 73.4976 97.4127 76.5746 C 97.4455 76.5729 97.4783 76.5709 97.5125 76.5691 C 98.3161 76.0465 99.1779 75.6177 100.112 75.3928 C 102.273 74.8698 104.815 74.866 106.568 76.4144 C 108.313 77.9561 108.931 80.6538 107.123 82.3869 C 103.504 85.8561 98.1798 77.9529 96.3557 77.6238 C 93.2245 80.718 89.9139 83.609 86.5512 86.4418 C 86.933 86.3264 87.3245 86.2416 87.7291 86.2033 C 91.0252 85.8889 98.7595 89.8894 94.7125 93.8313 C 91.1858 97.2664 87.1094 90.6603 84.2699 88.3508 C 81.1012 90.9911 77.9153 93.6133 74.8187 96.3376 C 76.507 95.8925 78.1385 95.8263 79.9479 96.3673 C 81.8202 96.9279 84.841 98.3275 83.656 100.834 C 82.4507 103.382 78.8229 102.225 76.9335 101.417 C 75.903 100.976 73.8372 99.4879 72.023 98.8616 C 67.0816 103.485 62.8009 108.577 59.559 114.575 C 57.5351 118.319 55.9987 122.32 54.9166 126.431 C 54.2259 129.055 52.8653 133.463 53.1355 136.877 C 51.8429 130.042 54.1907 121.831 56.7184 115.72 C 59.0426 110.1 62.5191 105.166 66.5905 100.725 C 65.5709 97.6816 56.9783 93.2961 62.1179 90.4657 C 64.8471 88.9692 67.6404 91.4487 68.2355 94.0759 C 68.6442 95.8812 68.019 98.1502 67.3557 99.903 C 68.6364 98.549 69.9678 97.2385 71.3397 95.9714 C 73.2356 94.2202 75.1768 92.5198 77.1367 90.8408 C 73.9101 87.8371 70.8594 79.247 75.1884 77.8396 C 81.5808 75.7674 78.4974 87.4883 78.0504 89.685 C 77.9238 89.6924 77.8251 89.6546 77.7526 89.5734 C 77.7884 89.7745 77.83 89.9896 77.8804 90.2064 C 81.6315 87.0096 85.4381 83.8756 89.1193 80.6024 C 88.788 80.3598 88.2614 79.4322 87.8474 78.9385 C 86.9132 77.8257 86.0194 76.6632 85.3664 75.3611 C 84.335 73.3034 83.3408 70.021 86.0785 68.809 C 89.0558 67.4885 90.4684 71.2008 90.488 73.4158 C 90.5014 74.9478 90.0797 76.4033 89.8596 77.9049 C 89.7908 78.3733 90.0537 80.4841 89.4104 79.5763 C 89.4406 79.9111 89.4448 80.1536 89.4297 80.3255 C 90.0906 79.735 90.7464 79.138 91.3981 78.5367 C 91.368 78.4609 91.3456 78.3781 91.3406 78.2822 C 91.306 77.6219 91.9767 77.3672 92.4468 77.5604 C 93.3067 76.7505 94.1583 75.9304 94.9946 75.0941 C 96.7672 73.3223 98.5655 71.4999 100.351 69.6387 C 99.9643 69.3092 100.119 68.8526 99.7565 68.5027 C 99.3951 68.1537 98.6831 67.9609 98.2581 67.6367 C 97.1891 66.8209 96.3029 65.632 95.6621 64.4618 C 94.6043 62.5283 93.238 58.4718 96.3317 57.5484 C 99.5204 56.5952 101.137 60.4999 101.34 62.9415 C 101.38 63.4145 101.021 67.677 100.746 69.2248 C 104.051 65.7659 107.301 62.1773 110.246 58.5264 C 109.354 58.5187 106.825 56.7082 106.313 56.2141 C 105.066 55.0088 103.084 52.3453 105.272 50.9342 C 107.218 49.6826 109.615 51.4928 110.446 53.2528 C 110.583 53.5426 111.063 56.2404 111.1 57.4509 C 112.319 55.9027 113.482 54.3455 114.564 52.7832 C 115.285 51.7446 115.96 50.6785 116.59 49.5899 C 116.439 49.5047 116.296 49.3561 116.161 49.1714 C 112.917 48.6274 108.783 43.6129 112.595 41.8655 C 114.41 41.0347 116.377 42.7469 117.265 44.149 C 117.447 44.4359 117.741 45.8784 117.98 47.0163 C 119.796 43.4098 121.184 39.592 122.24 35.6777 C 121.958 35.6083 121.719 35.3947 121.687 35.0269 C 120.113 34.1378 118.869 33.3974 117.771 31.6867 C 117.088 30.6241 115.859 28.1962 117.866 27.6052 C 120.479 26.8363 122.118 30.7893 122.33 32.7366 C 122.355 32.9627 122.354 33.6201 122.345 34.2226 C 122.436 34.2103 122.527 34.2117 122.617 34.2274 C 123.218 31.8036 123.699 29.3488 124.081 26.8898 C 122.655 26.4358 122.412 19.0158 123.362 17.9588 C 125.485 15.5919 126.981 19.0086 126.866 20.8148 C 126.731 22.9445 125.757 24.8823 124.596 26.6022 C 124.472 26.7843 124.507 26.7755 124.475 26.5218 C 124.457 26.6472 124.415 26.7398 124.352 26.8068 C 124.411 27.9278 124.527 29.0755 124.471 30.0675 C 124.309 32.9083 123.973 35.7658 123.487 38.5702 C 123.369 39.2523 123.233 39.9288 123.082 40.5995 C 124.228 39.6314 125.774 38.771 126.378 38.5019 C 127.948 37.8042 130.366 37.0504 131.924 38.2304 Z M 52.8788 136.608 C 52.9545 137.521 53.1795 138.354 53.6224 139.036 C 53.2973 138.256 53.0534 137.444 52.8788 136.608 Z" stroke-linecap="round"/>
</g>
<g transform="matrix(0.1192 0 0 0.0812 12.8582 35.2081)" id="Leaf_2">
<path style="stroke: none; stroke-width: 1; stroke-dasharray: none; stroke-linecap: butt; stroke-dashoffset: 0; stroke-linejoin: miter; stroke-miterlimit: 4; is-custom-font: none; font-file-url: none; fill: rgb(193,222,226); fill-rule: evenodd; opacity: 0.25;" vector-effect="non-scaling-stroke" transform=" translate(-103.1154, -299.5265)" d="M 128.918 245.18 C 135.65 240.235 142.937 249.568 136.845 254.514 C 133.478 257.248 129.957 256.276 127.975 253.997 C 126.688 255.567 125.484 257.208 124.327 258.594 C 120.802 262.817 117.469 267.141 114.285 271.566 C 107.67 280.759 102 290.471 96.0729 300.006 C 90.2232 309.416 84.4202 318.874 79.1181 328.523 C 74.6265 336.697 68.6397 346.314 67.1019 355.276 C 69.4352 336.27 78.2888 318.001 88.8319 301.245 C 99.2892 284.628 111.29 266.479 127.482 253.364 C 125.834 250.939 125.788 247.478 128.918 245.18 Z" stroke-linecap="round"/>
</g>
<g transform="matrix(0.1192 0 0 0.0812 8.7482 40.0068)" id="Base_2">
<path style="stroke: none; stroke-width: 1; stroke-dasharray: none; stroke-linecap: butt; stroke-dashoffset: 0; stroke-linejoin: miter; stroke-miterlimit: 4; is-custom-font: none; font-file-url: none; fill: rgb(193,222,226); fill-rule: evenodd; opacity: 0.25;" vector-effect="non-scaling-stroke" transform=" translate(-68.6407, -358.6645)" d="M 49.7363 341.724 H 87.5456 C 89.2455 341.724 90.6236 343.103 90.6236 344.804 C 90.6236 344.954 90.6126 345.104 90.5907 345.253 L 87.6684 365.082 C 86.7775 371.126 81.5939 375.605 75.4878 375.605 H 61.7941 C 55.688 375.605 50.5044 371.126 49.6135 365.082 L 46.6912 345.253 C 46.4432 343.57 47.6055 342.005 49.2873 341.757 C 49.436 341.735 49.586 341.724 49.7363 341.724 Z" stroke-linecap="round"/>
</g>
<g transform="matrix(0.1192 0 0 0.0812 4.2083 40.418)" id="Base_3">
<path style="stroke: none; stroke-width: 1; stroke-dasharray: none; stroke-linecap: butt; stroke-dashoffset: 0; stroke-linejoin: miter; stroke-miterlimit: 4; is-custom-font: none; font-file-url: none; fill: rgb(242,242,242); fill-rule: evenodd; opacity: 1;" vector-effect="non-scaling-stroke" transform=" translate(-30.5625, -363.7325)" d="M 15.6475 351.861 C 15.6475 364.974 16.6817 375.604 30.5625 375.604 C 44.4433 375.604 45.4775 364.974 45.4775 351.861" stroke-linecap="round"/>
</g>
<g transform="matrix(0.1192 0 0 0.0812 4.0407 39.0603)" id="Fill 27">
<path style="stroke: none; stroke-width: 1; stroke-dasharray: none; stroke-linecap: butt; stroke-dashoffset: 0; stroke-linejoin: miter; stroke-miterlimit: 4; is-custom-font: none; font-file-url: none; fill: rgb(242,242,242); fill-rule: evenodd; opacity: 1;" vector-effect="non-scaling-stroke" transform=" translate(-29.1595, -346.9994)" d="M 34.692 343.679 C 34.1831 344.559 33.7295 345.457 33.3287 346.369 C 33.3146 344.492 33.4183 342.601 33.7015 340.684 C 34.1857 337.401 34.9251 334.135 35.62 330.875 C 36.1194 328.531 36.0878 324.322 37.983 322.455 C 38.5027 322.051 38.6278 322.843 38.6278 323.187 C 38.6344 323.259 38.6264 321.784 38.1219 322.041 C 35.1235 323.591 34.152 328.463 33.192 330.903 C 31.7914 334.464 30.5998 338.104 30.1091 341.809 C 29.9851 342.744 29.9176 343.68 29.902 344.614 C 29.8001 344.364 29.7044 344.112 29.5985 343.864 C 27.8679 339.802 25.5324 335.839 22.6196 332.184 C 21.9026 331.285 12.8874 322.411 12.1816 323.769 C 12.2513 323.967 12.3971 324.13 12.6194 324.26 C 12.6324 324.275 12.6328 324.267 12.6252 324.245 C 13.1546 325.101 14.66 326.423 15.1289 327.173 C 16.309 329.06 17.2262 331.062 18.1582 333.027 C 20.1274 337.178 21.9541 341.372 23.7249 345.574 C 24.1373 346.553 24.567 347.526 25.0055 348.496 C 20.4857 341.973 14.4562 336.05 6.15614 332.66 C 8.99101 334.103 10.8496 336.819 12.7641 338.897 C 15.0731 341.405 17.505 343.845 19.8184 346.35 C 22.547 349.305 25.7576 352.416 28.3821 355.686 C 30.9243 361.027 33.3947 366.373 34.9197 371.988 C 34.2948 370.048 34.8707 367.367 34.7638 365.332 C 34.6789 363.711 34.4896 362.104 34.2303 360.5 C 34.5509 361.224 34.8272 361.948 34.9523 362.621 C 34.8381 361.491 34.7065 360.369 34.565 359.252 C 34.928 358.207 35.2845 357.232 35.5253 356.428 C 36.7594 352.306 38.2289 348.255 40.23 344.306 C 42.0818 340.654 44.2058 337.048 46.5203 333.552 C 47.5999 331.922 48.6944 330.298 49.782 328.672 C 50.4939 327.607 51.1717 325.902 52.1628 324.881 C 45.7562 330.742 38.7566 336.646 34.692 343.679 Z" stroke-linecap="round"/>
</g>
<g transform="matrix(0.2083 0 0 0.1418 101.8777 14.467)" id="Leaf_7">
<path style="stroke: none; stroke-width: 1; stroke-dasharray: none; stroke-linecap: butt; stroke-dashoffset: 0; stroke-linejoin: miter; stroke-miterlimit: 4; is-custom-font: none; font-file-url: none; fill: rgb(242,242,242); fill-rule: evenodd; opacity: 1;" vector-effect="non-scaling-stroke" transform=" translate(-357.1261, -91.4895)" d="M 323.893 83.2613 C 326.954 79.6532 334.31 79.041 338.81 79.2825 C 344.377 79.5813 350.096 80.9375 355.392 82.5774 C 364.118 85.2784 372.596 90.2076 380.281 94.9785 C 381.207 95.5533 392.616 102.419 391.606 103.624 C 390.606 104.818 379.406 96.6623 376.91 95.2566 C 371.583 92.2563 366.698 88.708 360.826 86.7266 C 354.747 84.6747 348.317 83.8622 341.924 83.9183 C 341.104 83.9256 338.428 83.3532 338.37 84.5678 C 338.313 85.7557 342.742 85.1359 343.523 85.1431 C 346.748 85.1727 349.993 85.4765 353.172 86.0358 C 359.129 87.0835 364.73 89.1944 369.832 92.432 C 368.408 95.7442 364.995 97.2715 361.415 96.4426 C 358.321 95.7258 355.305 93.9588 352.275 93.4478 C 350.189 93.096 348.099 93.3053 346.076 93.8935 C 340.739 95.4457 337.66 98.6254 331.792 96.4136 C 327.192 94.6797 319.498 88.4502 323.893 83.2613 Z" stroke-linecap="round"/>
</g>
<g transform="matrix(0.2083 0 0 0.1418 65.286 4.1109)" id="Leaf Me Alone!_5">
<path style="stroke: none; stroke-width: 1; stroke-dasharray: none; stroke-linecap: butt; stroke-dashoffset: 0; stroke-linejoin: miter; stroke-miterlimit: 4; is-custom-font: none; font-file-url: none; fill: rgb(242,242,242); fill-rule: evenodd; opacity: 1;" vector-effect="non-scaling-stroke" transform=" translate(-309.9937, -42.0314)" d="M 327.355 49.1156 H 328.802 C 328.701 47.277 328.569 45.4414 328.258 43.6235 C 327.095 36.809 323.456 26.8003 315.474 25.6942 C 315.18 25.653 314.097 25.6461 312.785 25.7222 C 312.163 25.3783 311.467 25.1703 310.733 25.1225 C 303.938 24.6266 296.349 30.0534 293.071 35.7007 C 290.429 40.254 290.874 46.233 292.506 51.0704 C 293.599 54.309 295.984 58.9265 299.962 58.9715 C 304.939 59.0278 305.179 52.9389 305.275 49.3794 C 305.403 44.6471 306.007 40.5246 309.774 37.2989 C 310.652 36.5475 311.611 35.8864 312.498 35.1453 C 313.887 33.9855 315.421 32.7979 315.6 30.879 C 315.847 28.2317 314.338 27.7553 312.033 28.2472 C 311.64 28.3309 307.682 30.0889 308.268 28.6993 C 308.447 28.2748 309.1 27.9385 309.925 27.6864 C 312.059 27.4567 314.604 27.1902 315.336 27.3494 C 323.233 29.0643 326.308 39.8924 327.124 46.7721 C 327.216 47.5511 327.29 48.3327 327.355 49.1156 H 327.355 Z" stroke-linecap="round"/>
</g>
<g transform="matrix(0.0722 0 0 0.0722 1.5218 14.5471)" id="71716">
<path style="stroke: none; stroke-width: 0; stroke-dasharray: none; stroke-linecap: butt; stroke-dashoffset: 0; stroke-linejoin: miter; stroke-miterlimit: 4; is-custom-font: none; font-file-url: none; fill: rgb(0,175,161); fill-rule: evenodd; opacity: 1;" vector-effect="non-scaling-stroke" transform=" translate(0, 0)" d="M 176.384 91.583 c 0 -0.063 0 0 0 0 s -21.444 19.144 -48.244 43.103 h -22.559 a 6961.257 6961.257 0 170.803 -63.263 v 20.16" stroke-linecap="round"/>
</g>
<g transform="matrix(0.0796 0 0 0.078 11.1674 23.3917)" id="912847">
<path style="stroke: none; stroke-width: 0; stroke-dasharray: none; stroke-linecap: butt; stroke-dashoffset: 0; stroke-linejoin: miter; stroke-miterlimit: 4; is-custom-font: none; font-file-url: none; fill: rgb(236,82,66); fill-rule: evenodd; opacity: 1;" vector-effect="non-scaling-stroke" transform=" translate(-208.1415, -124.9885)" d="M 248.375 159.675 c 0 0.061 0 0 0 0 s 21.44 -19.143 48.245 -43.096 h 22.552 c -37.138 33.67 -70.797 63.257 -70.797 63.257 v -20.161 M 97.111 134.521 v -33.442 L 209.513 0.627 L 208.17 249.35 l -26.289 -23.386 l 0.005 -167.278 s -51.497 46.091 -84.775 75.835" stroke-linecap="round"/>
</g>
<g transform="matrix(0.0486 0 0 0.0486 11.9605 30.5274)" id="94425">
<path style="stroke: none; stroke-width: 0; stroke-dasharray: none; stroke-linecap: butt; stroke-dashoffset: 0; stroke-linejoin: miter; stroke-miterlimit: 4; is-custom-font: none; font-file-url: none; fill: rgb(39,42,49); fill-rule: evenodd; opacity: 1;" vector-effect="non-scaling-stroke" transform=" translate(-212.598, -187.81)" d="M 322.165 249.778 l -14.979 13.68 v 27.764 h -17.223 v 14.087 h 17.223 v 68.308 h 14.979 v -68.308 h 19.492 v -14.087 h -19.492 v -41.444 M 259.368 373.617 h 14.978 v -82.395 h -14.978 z M 266.858 252.059 c -5.983 0 -10.833 4.851 -10.833 10.835 c 0 5.985 4.85 10.834 10.833 10.834 c 5.98 0 10.832 -4.849 10.832 -10.834 c 0 -5.984 -4.852 -10.835 -10.832 -10.835 M 91.751 322.453 c 2.055 -11.22 11.59 -20.01 23.555 -20.01 c 14.02 0 22.806 9.725 23.368 20.01 H 91.751 z m 62.439 8.789 c 0 -26.928 -15.329 -43.011 -39.445 -43.011 c -18.695 0 -39.258 14.961 -39.258 43.385 S 97.733 375 118.297 375 c 17.199 0 29.911 -8.603 35.893 -20.383 l -12.525 -6.17 c -3.553 7.104 -11.777 12.341 -22.994 12.341 c -15.516 0 -26.733 -10.847 -27.481 -25.245 h 62.627 c 0.373 -1.684 0.373 -4.113 0.373 -4.301 z M 394.635 288.231 c -9.812 0 -17.035 4.128 -22.592 9.687 v -48.14 l -14.978 13.68 v 110.159 h 14.978 v -47.592 c 0 -15.376 10 -22.971 19.26 -22.971 c 9.446 0 17.965 7.759 17.965 24.619 v 45.944 h 15.928 v -45.944 c 0 -30.754 -13.705 -39.442 -30.561 -39.442 M 68.058 291.3 H 8.829 L 0 305.74 h 41.622 L 0 373.818 h 67.308 v -14.44 H 26.436 L 68.058 291.3 M 207.696 288.231 c -9.814 0 -17.038 4.128 -22.593 9.687 v -6.696 h -14.98 v 82.395 h 14.98 v -47.592 c 0 -15.376 10 -22.971 19.261 -22.971 c 9.445 0 17.965 7.759 17.965 24.619 v 45.944 h 15.928 v -45.944 c 0 -30.754 -13.706 -39.442 -30.561 -39.442 M 327.645 116.739 v 33.438 L 216.686 249.35 L 215.247 1.343 l -0.021 -0.723 c 2.985 2.674 13.747 12.254 27.653 24.682 l -0.007 0.608 v 166.665 s 51.498 -46.096 84.773 -75.836" stroke-linecap="round"/>
</g>
<g transform="matrix(0.0705 0 0 0.0705 39.7229 17.2528)" id="238717">
<path style="stroke: none; stroke-width: 0; stroke-dasharray: none; stroke-linecap: butt; stroke-dashoffset: 0; stroke-linejoin: miter; stroke-miterlimit: 4; is-custom-font: none; font-file-url: none; fill: rgb(236,82,66); fill-rule: nonzero; opacity: 1;" vector-effect="non-scaling-stroke" transform=" translate(-7.1, 4.075)" d="M -241.57 27.02 L -266.68 -35.16 L -257.35 -35.16 Q -255.84 -35.16 -254.9 -34.43 Q -253.95 -33.7 -253.48 -32.54 L -253.48 -32.54 L -238.86 5.39 Q -238.13 7.24 -237.46 9.45 Q -236.79 11.66 -236.19 14.12 L -236.19 14.12 Q -235.2 9.17 -233.74 5.39 L -233.74 5.39 L -219.16 -32.54 Q -218.78 -33.53 -217.79 -34.35 Q -216.8 -35.16 -215.34 -35.16 L -215.34 -35.16 L -206.01 -35.16 L -231.12 27.02 L -241.57 27.02 Z M -199.51 -35.16 L -160.3 -35.16 L -160.3 -25.96 L -187.86 -25.96 L -187.86 -7.56 L -164.6 -7.56 L -164.6 1.69 L -187.86 1.69 L -187.86 27.02 L -199.51 27.02 L -199.51 -35.16 Z M -137.68 27.02 L -156.99 -35.16 L -147.27 -35.16 Q -145.76 -35.16 -144.75 -34.45 Q -143.74 -33.74 -143.4 -32.54 L -143.4 -32.54 L -132.82 4.66 Q -132.43 6.03 -132.11 7.64 Q -131.79 9.26 -131.49 11.06 L -131.49 11.06 Q -131.14 9.26 -130.73 7.64 Q -130.33 6.03 -129.85 4.66 L -129.85 4.66 L -117.64 -32.54 Q -117.3 -33.53 -116.29 -34.35 Q -115.28 -35.16 -113.81 -35.16 L -113.81 -35.16 L -110.42 -35.16 Q -108.91 -35.16 -107.92 -34.45 Q -106.93 -33.74 -106.55 -32.54 L -106.55 -32.54 L -94.42 4.66 Q -93.47 7.41 -92.79 10.76 L -92.79 10.76 Q -92.49 9.08 -92.16 7.54 Q -91.84 5.99 -91.5 4.66 L -91.5 4.66 L -80.92 -32.54 Q -80.62 -33.61 -79.59 -34.39 Q -78.55 -35.16 -77.09 -35.16 L -77.09 -35.16 L -68.02 -35.16 L -87.33 27.02 L -97.77 27.02 L -111.36 -15.47 Q -111.62 -16.29 -111.9 -17.23 Q -112.18 -18.18 -112.44 -19.25 L -112.44 -19.25 Q -112.7 -18.18 -112.98 -17.23 Q -113.25 -16.29 -113.51 -15.47 L -113.51 -15.47 L -127.23 27.02 L -137.68 27.02 Z M -16.07 18.5 L -16.07 18.5 Q -12.16 18.5 -9.26 17.79 Q -6.36 17.08 -3.73 15.84 L -3.73 15.84 L -3.73 4.53 L -11.52 4.53 Q -12.63 4.53 -13.28 3.9 Q -13.92 3.28 -13.92 2.38 L -13.92 2.38 L -13.92 -4.16 L 6.76 -4.16 L 6.76 21 Q 4.39 22.72 1.83 23.98 Q -0.72 25.25 -3.63 26.07 Q -6.53 26.89 -9.84 27.3 Q -13.15 27.7 -16.98 27.7 L -16.98 27.7 Q -23.77 27.7 -29.49 25.34 Q -35.21 22.97 -39.38 18.76 Q -43.55 14.55 -45.9 8.7 Q -48.24 2.85 -48.24 -4.07 L -48.24 -4.07 Q -48.24 -11.08 -45.96 -16.93 Q -43.68 -22.78 -39.49 -26.99 Q -35.3 -31.21 -29.32 -33.53 Q -23.34 -35.85 -15.9 -35.85 L -15.9 -35.85 Q -8.29 -35.85 -2.72 -33.59 Q 2.85 -31.34 6.72 -27.72 L 6.72 -27.72 L 3.36 -22.48 Q 2.37 -20.89 0.74 -20.89 L 0.74 -20.89 Q -0.29 -20.89 -1.37 -21.57 L -1.37 -21.57 Q -2.74 -22.39 -4.19 -23.21 Q -5.63 -24.03 -7.37 -24.63 Q -9.11 -25.23 -11.28 -25.62 Q -13.45 -26 -16.29 -26 L -16.29 -26 Q -20.89 -26 -24.61 -24.46 Q -28.33 -22.91 -30.95 -20.03 Q -33.58 -17.15 -34.99 -13.1 Q -36.41 -9.06 -36.41 -4.07 L -36.41 -4.07 Q -36.41 1.3 -34.91 5.49 Q -33.4 9.69 -30.69 12.57 Q -27.99 15.45 -24.24 16.98 Q -20.5 18.5 -16.07 18.5 Z M 29.12 -35.16 L 29.12 17.47 L 54.02 17.47 L 54.02 27.02 L 17.55 27.02 L 17.55 -35.16 L 29.12 -35.16 Z M 118.21 -4.07 L 118.21 -4.07 Q 118.21 2.76 115.94 8.59 Q 113.66 14.42 109.53 18.67 Q 105.4 22.93 99.6 25.32 Q 93.79 27.7 86.74 27.7 L 86.74 27.7 Q 79.69 27.7 73.86 25.32 Q 68.03 22.93 63.88 18.67 Q 59.73 14.42 57.46 8.59 Q 55.18 2.76 55.18 -4.07 L 55.18 -4.07 Q 55.18 -10.91 57.46 -16.74 Q 59.73 -22.56 63.88 -26.82 Q 68.03 -31.08 73.86 -33.46 Q 79.69 -35.85 86.74 -35.85 L 86.74 -35.85 Q 93.79 -35.85 99.6 -33.44 Q 105.4 -31.03 109.53 -26.8 Q 113.66 -22.56 115.94 -16.74 Q 118.21 -10.91 118.21 -4.07 Z M 106.35 -4.07 L 106.35 -4.07 Q 106.35 -9.19 104.99 -13.25 Q 103.64 -17.32 101.1 -20.16 Q 98.56 -22.99 94.93 -24.5 Q 91.3 -26 86.74 -26 L 86.74 -26 Q 82.18 -26 78.53 -24.5 Q 74.87 -22.99 72.31 -20.16 Q 69.75 -17.32 68.38 -13.25 Q 67 -9.19 67 -4.07 L 67 -4.07 Q 67 1.04 68.38 5.11 Q 69.75 9.17 72.31 11.99 Q 74.87 14.8 78.53 16.31 Q 82.18 17.81 86.74 17.81 L 86.74 17.81 Q 91.3 17.81 94.93 16.31 Q 98.56 14.8 101.1 11.99 Q 103.64 9.17 104.99 5.11 Q 106.35 1.04 106.35 -4.07 Z M 150.81 27.02 L 127.33 27.02 L 127.33 -35.16 L 148.79 -35.16 Q 154.89 -35.16 159.21 -34 Q 163.54 -32.84 166.31 -30.69 Q 169.08 -28.54 170.37 -25.49 Q 171.66 -22.43 171.66 -18.61 L 171.66 -18.61 Q 171.66 -16.41 171.02 -14.41 Q 170.37 -12.42 169.02 -10.67 Q 167.66 -8.93 165.58 -7.51 Q 163.49 -6.09 160.61 -5.11 L 160.61 -5.11 Q 173.43 -2.22 173.43 8.74 L 173.43 8.74 Q 173.43 12.7 171.92 16.05 Q 170.42 19.4 167.54 21.83 Q 164.65 24.26 160.44 25.64 Q 156.23 27.02 150.81 27.02 L 150.81 27.02 Z M 150.59 -0.25 L 138.9 -0.25 L 138.9 17.99 L 150.64 17.99 Q 153.86 17.99 156.03 17.21 Q 158.2 16.44 159.52 15.15 Q 160.83 13.86 161.41 12.14 Q 161.99 10.42 161.99 8.48 L 161.99 8.48 Q 161.99 6.46 161.34 4.85 Q 160.7 3.24 159.32 2.1 Q 157.95 0.96 155.8 0.36 Q 153.65 -0.25 150.59 -0.25 L 150.59 -0.25 Z M 138.9 -26.22 L 138.9 -8.24 L 148.14 -8.24 Q 154.03 -8.24 157.09 -10.39 Q 160.14 -12.54 160.14 -17.23 L 160.14 -17.23 Q 160.14 -22.09 157.39 -24.15 Q 154.64 -26.22 148.79 -26.22 L 148.79 -26.22 L 138.9 -26.22 Z M 213.59 -35.16 L 238.01 27.02 L 229.07 27.02 Q 227.56 27.02 226.6 26.26 Q 225.63 25.51 225.2 24.39 L 225.2 24.39 L 220.55 11.71 L 194.8 11.71 L 190.15 24.39 Q 189.81 25.38 188.8 26.2 Q 187.79 27.02 186.33 27.02 L 186.33 27.02 L 177.34 27.02 L 201.76 -35.16 L 213.59 -35.16 Z M 205.33 -17.06 L 197.76 3.54 L 217.59 3.54 L 210.02 -17.15 Q 209.5 -18.52 208.88 -20.39 Q 208.26 -22.26 207.65 -24.46 L 207.65 -24.46 Q 207.05 -22.26 206.47 -20.37 Q 205.89 -18.48 205.33 -17.06 L 205.33 -17.06 Z M 255.99 -35.16 L 255.99 17.47 L 280.88 17.47 L 280.88 27.02 L 244.42 27.02 L 244.42 -35.16 L 255.99 -35.16 Z" stroke-linecap="round"/>
</g>
<g transform="matrix(1 0 0 1 56.2086 26.9838)" style="" id="718588">
		
<path xml:space="preserve" font-family="Lato" font-size="11" font-style="normal" font-weight="bold" style="stroke: none; stroke-width: 1; stroke-dasharray: none; stroke-linecap: butt; stroke-dashoffset: 0; stroke-linejoin: miter; stroke-miterlimit: 4; is-custom-font: none; font-file-url: none; fill: rgb(236,82,66); fill-rule: nonzero; opacity: 1; white-space: pre;" d="M-30.12 1.58L-30.12 1.58Q-30.00 1.58-29.91 1.67L-29.91 1.67L-29.33 2.31Q-29.81 2.91-30.52 3.22Q-31.22 3.54-32.21 3.54L-32.21 3.54Q-33.10 3.54-33.81 3.24Q-34.51 2.94-35.01 2.40Q-35.51 1.86-35.78 1.11Q-36.05 0.36-36.05-0.52L-36.05-0.52Q-36.05-1.42-35.75-2.16Q-35.45-2.91-34.91-3.45Q-34.38-3.99-33.62-4.29Q-32.87-4.59-31.97-4.59L-31.97-4.59Q-31.08-4.59-30.42-4.30Q-29.75-4.02-29.28-3.55L-29.28-3.55L-29.78-2.86Q-29.82-2.80-29.89-2.75Q-29.96-2.70-30.08-2.70L-30.08-2.70Q-30.21-2.70-30.34-2.80Q-30.47-2.90-30.67-3.01Q-30.88-3.13-31.19-3.23Q-31.50-3.33-31.98-3.33L-31.98-3.33Q-32.54-3.33-33.01-3.13Q-33.48-2.94-33.82-2.57Q-34.16-2.21-34.34-1.69Q-34.53-1.17-34.53-0.52L-34.53-0.52Q-34.53 0.15-34.34 0.67Q-34.16 1.19-33.83 1.55Q-33.51 1.91-33.07 2.10Q-32.63 2.29-32.12 2.29L-32.12 2.29Q-31.82 2.29-31.57 2.26Q-31.33 2.22-31.12 2.15Q-30.92 2.08-30.73 1.97Q-30.55 1.85-30.37 1.69L-30.37 1.69Q-30.31 1.64-30.25 1.61Q-30.19 1.58-30.12 1.58ZM-25.88-2.28L-25.88-2.28Q-25.25-2.28-24.73-2.07Q-24.22-1.87-23.85-1.49Q-23.49-1.12-23.29-0.58Q-23.09-0.04-23.09 0.62L-23.09 0.62Q-23.09 1.29-23.29 1.83Q-23.49 2.37-23.85 2.75Q-24.22 3.13-24.73 3.33Q-25.25 3.54-25.88 3.54L-25.88 3.54Q-26.51 3.54-27.03 3.33Q-27.54 3.13-27.91 2.75Q-28.28 2.37-28.48 1.83Q-28.68 1.29-28.68 0.62L-28.68 0.62Q-28.68-0.04-28.48-0.58Q-28.28-1.12-27.91-1.49Q-27.54-1.87-27.03-2.07Q-26.51-2.28-25.88-2.28ZM-25.88 2.49L-25.88 2.49Q-25.17 2.49-24.84 2.02Q-24.50 1.55-24.50 0.63L-24.50 0.63Q-24.50-0.28-24.84-0.76Q-25.17-1.24-25.88-1.24L-25.88-1.24Q-26.59-1.24-26.93-0.75Q-27.27-0.27-27.27 0.63L-27.27 0.63Q-27.27 1.54-26.93 2.02Q-26.59 2.49-25.88 2.49ZM-20.67 3.46L-22.03 3.46L-22.03-2.19L-21.20-2.19Q-20.94-2.19-20.86-1.94L-20.86-1.94L-20.76-1.49Q-20.59-1.67-20.40-1.81Q-20.21-1.96-20.00-2.06Q-19.79-2.17-19.55-2.22Q-19.30-2.28-19.02-2.28L-19.02-2.28Q-18.56-2.28-18.20-2.12Q-17.84-1.96-17.60-1.68Q-17.36-1.40-17.24-1.00Q-17.12-0.61-17.12-0.14L-17.12-0.14L-17.12 3.46L-18.47 3.46L-18.47-0.14Q-18.47-0.65-18.71-0.94Q-18.95-1.22-19.43-1.22L-19.43-1.22Q-19.78-1.22-20.09-1.06Q-20.40-0.90-20.67-0.63L-20.67-0.63L-20.67 3.46ZM-13.83-2.29L-13.83-2.29Q-13.46-2.29-13.15-2.21Q-12.83-2.14-12.56-2.00L-12.56-2.00L-10.94-2.00L-10.94-1.49Q-10.94-1.36-11.01-1.29Q-11.07-1.22-11.23-1.19L-11.23-1.19L-11.74-1.10Q-11.68-0.96-11.65-0.80Q-11.62-0.64-11.62-0.46L-11.62-0.46Q-11.62-0.04-11.79 0.30Q-11.96 0.63-12.25 0.87Q-12.55 1.11-12.95 1.24Q-13.35 1.37-13.83 1.37L-13.83 1.37Q-14.15 1.37-14.45 1.30L-14.45 1.30Q-14.71 1.46-14.71 1.66L-14.71 1.66Q-14.71 1.83-14.56 1.91Q-14.40 1.99-14.14 2.03Q-13.89 2.06-13.56 2.07Q-13.24 2.08-12.90 2.10Q-12.56 2.13-12.23 2.20Q-11.91 2.27-11.65 2.42Q-11.40 2.56-11.24 2.82Q-11.08 3.08-11.08 3.48L-11.08 3.48Q-11.08 3.85-11.27 4.20Q-11.45 4.56-11.80 4.83Q-12.15 5.11-12.66 5.27Q-13.16 5.44-13.81 5.44L-13.81 5.44Q-14.45 5.44-14.93 5.32Q-15.40 5.19-15.71 4.99Q-16.02 4.78-16.18 4.51Q-16.33 4.24-16.33 3.95L-16.33 3.95Q-16.33 3.55-16.09 3.28Q-15.85 3.02-15.42 2.86L-15.42 2.86Q-15.63 2.74-15.75 2.55Q-15.88 2.36-15.88 2.05L-15.88 2.05Q-15.88 1.92-15.83 1.79Q-15.79 1.65-15.70 1.52Q-15.61 1.39-15.47 1.27Q-15.33 1.15-15.15 1.06L-15.15 1.06Q-15.58 0.83-15.82 0.44Q-16.07 0.06-16.07-0.46L-16.07-0.46Q-16.07-0.88-15.90-1.22Q-15.73-1.55-15.43-1.79Q-15.13-2.03-14.72-2.16Q-14.31-2.29-13.83-2.29ZM-12.34 3.71L-12.34 3.71Q-12.34 3.54-12.44 3.44Q-12.53 3.33-12.71 3.28Q-12.88 3.22-13.10 3.19Q-13.33 3.16-13.59 3.15Q-13.84 3.14-14.12 3.12Q-14.39 3.11-14.64 3.08L-14.64 3.08Q-14.87 3.20-15.01 3.38Q-15.15 3.55-15.15 3.77L-15.15 3.77Q-15.15 3.92-15.08 4.05Q-15.00 4.18-14.84 4.27Q-14.68 4.37-14.42 4.42Q-14.16 4.47-13.79 4.47L-13.79 4.47Q-13.41 4.47-13.13 4.42Q-12.86 4.36-12.68 4.26Q-12.50 4.15-12.42 4.01Q-12.34 3.87-12.34 3.71ZM-13.83 0.50L-13.83 0.50Q-13.57 0.50-13.39 0.43Q-13.20 0.36-13.08 0.24Q-12.95 0.12-12.89-0.05Q-12.83-0.22-12.83-0.43L-12.83-0.43Q-12.83-0.85-13.08-1.09Q-13.33-1.33-13.83-1.33L-13.83-1.33Q-14.33-1.33-14.58-1.09Q-14.83-0.85-14.83-0.43L-14.83-0.43Q-14.83-0.23-14.76-0.06Q-14.70 0.11-14.58 0.24Q-14.45 0.36-14.26 0.43Q-14.07 0.50-13.83 0.50ZM-8.73 3.46L-10.09 3.46L-10.09-2.19L-9.29-2.19Q-9.08-2.19-9.00-2.11Q-8.92-2.03-8.89-1.85L-8.89-1.85L-8.81-1.16Q-8.50-1.69-8.10-1.99Q-7.69-2.29-7.18-2.29L-7.18-2.29Q-6.77-2.29-6.49-2.10L-6.49-2.10L-6.67-1.08Q-6.68-0.98-6.74-0.94Q-6.79-0.90-6.89-0.90L-6.89-0.90Q-6.97-0.90-7.11-0.94Q-7.25-0.98-7.49-0.98L-7.49-0.98Q-7.91-0.98-8.22-0.74Q-8.52-0.51-8.73-0.06L-8.73-0.06L-8.73 3.46ZM-3.26-2.28L-3.26-2.28Q-2.73-2.28-2.28-2.10Q-1.83-1.93-1.51-1.61Q-1.18-1.28-1.00-0.80Q-0.82-0.33-0.82 0.28L-0.82 0.28Q-0.82 0.44-0.83 0.54Q-0.85 0.64-0.88 0.70Q-0.92 0.75-0.98 0.78Q-1.04 0.80-1.13 0.80L-1.13 0.80L-4.62 0.80Q-4.56 1.67-4.15 2.08Q-3.75 2.49-3.07 2.49L-3.07 2.49Q-2.74 2.49-2.51 2.41Q-2.27 2.33-2.09 2.24Q-1.91 2.15-1.77 2.07Q-1.64 1.99-1.51 1.99L-1.51 1.99Q-1.43 1.99-1.37 2.03Q-1.31 2.06-1.27 2.12L-1.27 2.12L-0.87 2.61Q-1.09 2.88-1.38 3.06Q-1.66 3.24-1.96 3.34Q-2.27 3.45-2.58 3.49Q-2.90 3.54-3.20 3.54L-3.20 3.54Q-3.78 3.54-4.29 3.34Q-4.80 3.15-5.17 2.77Q-5.54 2.38-5.76 1.82Q-5.97 1.26-5.97 0.51L-5.97 0.51Q-5.97-0.06-5.79-0.57Q-5.60-1.08-5.25-1.46Q-4.90-1.84-4.40-2.06Q-3.89-2.28-3.26-2.28ZM-3.23-1.30L-3.23-1.30Q-3.83-1.30-4.16-0.97Q-4.50-0.63-4.59-0.02L-4.59-0.02L-2.04-0.02Q-2.04-0.28-2.11-0.51Q-2.18-0.75-2.33-0.92Q-2.48-1.10-2.71-1.20Q-2.93-1.30-3.23-1.30ZM3.94-1.58L3.64-1.09Q3.58-1.00 3.52-0.96Q3.46-0.93 3.37-0.93L3.37-0.93Q3.27-0.93 3.15-0.98Q3.04-1.04 2.89-1.11Q2.74-1.18 2.55-1.23Q2.36-1.29 2.11-1.29L2.11-1.29Q1.70-1.29 1.47-1.12Q1.24-0.94 1.24-0.67L1.24-0.67Q1.24-0.49 1.36-0.36Q1.48-0.24 1.67-0.15Q1.87-0.05 2.12 0.02Q2.36 0.10 2.62 0.18Q2.88 0.27 3.13 0.38Q3.38 0.50 3.57 0.67Q3.77 0.84 3.89 1.08Q4.00 1.33 4.00 1.67L4.00 1.67Q4.00 2.08 3.86 2.42Q3.71 2.76 3.42 3.01Q3.13 3.26 2.71 3.40Q2.29 3.54 1.75 3.54L1.75 3.54Q1.46 3.54 1.18 3.49Q0.90 3.44 0.65 3.35Q0.39 3.25 0.17 3.13Q-0.04 3.00-0.21 2.85L-0.21 2.85L0.10 2.33Q0.16 2.24 0.25 2.19Q0.33 2.14 0.46 2.14L0.46 2.14Q0.58 2.14 0.70 2.21Q0.81 2.28 0.96 2.37Q1.11 2.45 1.31 2.52Q1.51 2.59 1.81 2.59L1.81 2.59Q2.06 2.59 2.23 2.53Q2.40 2.48 2.52 2.38Q2.63 2.29 2.68 2.17Q2.73 2.04 2.73 1.91L2.73 1.91Q2.73 1.71 2.62 1.59Q2.50 1.46 2.30 1.37Q2.11 1.27 1.86 1.20Q1.61 1.12 1.34 1.04Q1.08 0.95 0.83 0.83Q0.58 0.71 0.39 0.53Q0.19 0.35 0.07 0.08Q-0.04-0.18-0.04-0.55L-0.04-0.55Q-0.04-0.90 0.09-1.21Q0.23-1.53 0.50-1.76Q0.76-2.00 1.16-2.14Q1.56-2.28 2.08-2.28L2.08-2.28Q2.67-2.28 3.15-2.08Q3.62-1.89 3.94-1.58L3.94-1.58ZM8.75-1.58L8.44-1.09Q8.39-1.00 8.33-0.96Q8.27-0.93 8.17-0.93L8.17-0.93Q8.07-0.93 7.96-0.98Q7.85-1.04 7.70-1.11Q7.55-1.18 7.36-1.23Q7.17-1.29 6.91-1.29L6.91-1.29Q6.51-1.29 6.28-1.12Q6.05-0.94 6.05-0.67L6.05-0.67Q6.05-0.49 6.17-0.36Q6.29-0.24 6.48-0.15Q6.68-0.05 6.92 0.02Q7.17 0.10 7.43 0.18Q7.69 0.27 7.94 0.38Q8.18 0.50 8.38 0.67Q8.57 0.84 8.69 1.08Q8.81 1.33 8.81 1.67L8.81 1.67Q8.81 2.08 8.66 2.42Q8.51 2.76 8.23 3.01Q7.94 3.26 7.52 3.40Q7.10 3.54 6.56 3.54L6.56 3.54Q6.26 3.54 5.99 3.49Q5.71 3.44 5.45 3.35Q5.20 3.25 4.98 3.13Q4.76 3.00 4.60 2.85L4.60 2.85L4.91 2.33Q4.97 2.24 5.05 2.19Q5.14 2.14 5.26 2.14L5.26 2.14Q5.39 2.14 5.50 2.21Q5.62 2.28 5.76 2.37Q5.91 2.45 6.11 2.52Q6.31 2.59 6.62 2.59L6.62 2.59Q6.86 2.59 7.04 2.53Q7.21 2.48 7.32 2.38Q7.44 2.29 7.49 2.17Q7.54 2.04 7.54 1.91L7.54 1.91Q7.54 1.71 7.42 1.59Q7.30 1.46 7.11 1.37Q6.91 1.27 6.66 1.20Q6.41 1.12 6.15 1.04Q5.89 0.95 5.64 0.83Q5.39 0.71 5.19 0.53Q5.00 0.35 4.88 0.08Q4.76-0.18 4.76-0.55L4.76-0.55Q4.76-0.90 4.90-1.21Q5.04-1.53 5.30-1.76Q5.57-2.00 5.97-2.14Q6.37-2.28 6.89-2.28L6.89-2.28Q7.47-2.28 7.95-2.08Q8.43-1.89 8.75-1.58L8.75-1.58ZM14.61-4.59L14.61-4.59Q15.16-4.59 15.61-4.42Q16.07-4.26 16.40-3.96Q16.72-3.67 16.90-3.25Q17.08-2.83 17.08-2.32L17.08-2.32Q17.08-1.88 16.95-1.51Q16.82-1.13 16.61-0.79Q16.39-0.45 16.10-0.13Q15.81 0.19 15.49 0.52L15.49 0.52L13.69 2.35Q13.96 2.27 14.21 2.23Q14.46 2.19 14.70 2.19L14.70 2.19L16.74 2.19Q16.96 2.19 17.09 2.31Q17.21 2.44 17.21 2.64L17.21 2.64L17.21 3.46L11.76 3.46L11.76 3.00Q11.76 2.87 11.82 2.72Q11.87 2.57 12.00 2.44L12.00 2.44L14.42 0.02Q14.72-0.28 14.96-0.57Q15.20-0.85 15.36-1.12Q15.52-1.40 15.61-1.68Q15.69-1.96 15.69-2.28L15.69-2.28Q15.69-2.56 15.61-2.78Q15.53-3.00 15.37-3.14Q15.22-3.29 15.01-3.37Q14.79-3.44 14.53-3.44L14.53-3.44Q14.04-3.44 13.73-3.19Q13.41-2.95 13.28-2.53L13.28-2.53Q13.22-2.32 13.10-2.23Q12.98-2.14 12.79-2.14L12.79-2.14Q12.71-2.14 12.61-2.15L12.61-2.15L11.90-2.28Q11.98-2.85 12.22-3.28Q12.45-3.72 12.81-4.01Q13.16-4.29 13.62-4.44Q14.08-4.59 14.61-4.59ZM23.78-0.52L23.78-0.52Q23.78 0.52 23.56 1.29Q23.34 2.05 22.94 2.55Q22.55 3.05 22.01 3.30Q21.48 3.54 20.86 3.54L20.86 3.54Q20.23 3.54 19.70 3.30Q19.17 3.05 18.78 2.55Q18.39 2.05 18.17 1.29Q17.95 0.52 17.95-0.52L17.95-0.52Q17.95-1.57 18.17-2.33Q18.39-3.09 18.78-3.60Q19.17-4.10 19.70-4.34Q20.23-4.59 20.86-4.59L20.86-4.59Q21.48-4.59 22.01-4.34Q22.55-4.10 22.94-3.60Q23.34-3.09 23.56-2.33Q23.78-1.57 23.78-0.52ZM22.38-0.52L22.38-0.52Q22.38-1.38 22.25-1.95Q22.13-2.52 21.91-2.85Q21.70-3.19 21.43-3.32Q21.15-3.46 20.86-3.46L20.86-3.46Q20.56-3.46 20.29-3.32Q20.02-3.19 19.81-2.85Q19.60-2.52 19.48-1.95Q19.35-1.38 19.35-0.52L19.35-0.52Q19.35 0.34 19.48 0.91Q19.60 1.48 19.81 1.81Q20.02 2.15 20.29 2.28Q20.56 2.42 20.86 2.42L20.86 2.42Q21.15 2.42 21.43 2.28Q21.70 2.15 21.91 1.81Q22.13 1.48 22.25 0.91Q22.38 0.34 22.38-0.52ZM27.37-4.59L27.37-4.59Q27.92-4.59 28.37-4.42Q28.83-4.26 29.16-3.96Q29.48-3.67 29.66-3.25Q29.84-2.83 29.84-2.32L29.84-2.32Q29.84-1.88 29.71-1.51Q29.58-1.13 29.37-0.79Q29.15-0.45 28.86-0.13Q28.57 0.19 28.25 0.52L28.25 0.52L26.45 2.35Q26.72 2.27 26.97 2.23Q27.22 2.19 27.46 2.19L27.46 2.19L29.50 2.19Q29.72 2.19 29.85 2.31Q29.97 2.44 29.97 2.64L29.97 2.64L29.97 3.46L24.52 3.46L24.52 3.00Q24.52 2.87 24.58 2.72Q24.63 2.57 24.76 2.44L24.76 2.44L27.18 0.02Q27.48-0.28 27.72-0.57Q27.96-0.85 28.12-1.12Q28.28-1.40 28.37-1.68Q28.45-1.96 28.45-2.28L28.45-2.28Q28.45-2.56 28.37-2.78Q28.29-3.00 28.13-3.14Q27.98-3.29 27.77-3.37Q27.55-3.44 27.29-3.44L27.29-3.44Q26.80-3.44 26.49-3.19Q26.17-2.95 26.04-2.53L26.04-2.53Q25.98-2.32 25.86-2.23Q25.74-2.14 25.55-2.14L25.55-2.14Q25.47-2.14 25.37-2.15L25.37-2.15L24.66-2.28Q24.74-2.85 24.98-3.28Q25.21-3.72 25.57-4.01Q25.92-4.29 26.38-4.44Q26.84-4.59 27.37-4.59ZM31.92 3.46L31.92 2.44L33.53 2.44L33.53-2.20Q33.53-2.47 33.54-2.76L33.54-2.76L32.40-1.81Q32.33-1.75 32.25-1.73Q32.18-1.70 32.11-1.70L32.11-1.70Q32.00-1.70 31.91-1.75Q31.82-1.80 31.77-1.86L31.77-1.86L31.34-2.45L33.77-4.51L34.89-4.51L34.89 2.44L36.32 2.44L36.32 3.46L31.92 3.46Z"/></g>
</svg>