<svg width="426" height="375" xmlns="http://www.w3.org/2000/svg"><g fill="none" fill-rule="evenodd"><path fill="#00AFA1" d="M322.165 249.778l-14.979 13.68v27.764h-17.223v14.087h17.223v68.308h14.979v-68.308h19.492v-14.087h-19.492v-41.444M259.368 373.617h14.978v-82.395h-14.978zM266.858 252.059c-5.983 0-10.833 4.851-10.833 10.835 0 5.985 4.85 10.834 10.833 10.834 5.98 0 10.832-4.849 10.832-10.834 0-5.984-4.852-10.835-10.832-10.835M91.751 322.453c2.055-11.22 11.59-20.01 23.555-20.01 14.02 0 22.806 9.725 23.368 20.01H91.751zm62.439 8.789c0-26.928-15.329-43.011-39.445-43.011-18.695 0-39.258 14.961-39.258 43.385S97.733 375 118.297 375c17.199 0 29.911-8.603 35.893-20.383l-12.525-6.17c-3.553 7.104-11.777 12.341-22.994 12.341-15.516 0-26.733-10.847-27.481-25.245h62.627c.373-1.684.373-4.113.373-4.301zM394.635 288.231c-9.812 0-17.035 4.128-22.592 9.687v-48.14l-14.978 13.68v110.159h14.978v-47.592c0-15.376 10-22.971 19.26-22.971 9.446 0 17.965 7.759 17.965 24.619v45.944h15.928v-45.944c0-30.754-13.705-39.442-30.561-39.442M68.058 291.3H8.829L0 305.74h41.622L0 373.818h67.308v-14.44H26.436L68.058 291.3M207.696 288.231c-9.814 0-17.038 4.128-22.593 9.687v-6.696h-14.98v82.395h14.98v-47.592c0-15.376 10-22.971 19.261-22.971 9.445 0 17.965 7.759 17.965 24.619v45.944h15.928v-45.944c0-30.754-13.706-39.442-30.561-39.442M327.645 116.739v33.438L216.686 249.35 215.247 1.343l-.021-.723c2.985 2.674 13.747 12.254 27.653 24.682l-.007.608v166.665s51.498-46.096 84.773-75.836"/><path d="M248.375 159.675c0 .061 0 0 0 0s21.44-19.143 48.245-43.096h22.552c-37.138 33.67-70.797 63.257-70.797 63.257v-20.161M97.111 134.521v-33.442L209.513.627 208.17 249.35l-26.289-23.386.005-167.278s-51.497 46.091-84.775 75.835" fill="#BED336"/><path d="M176.384 91.583c0-.063 0 0 0 0s-21.444 19.144-48.244 43.103h-22.559a6961.257 6961.257 0 0170.803-63.263v20.16" fill="#00AFA1"/></g></svg>