<svg xmlns="http://www.w3.org/2000/svg" xmlns:xlink="http://www.w3.org/1999/xlink" version="1.1" width="100" height="50" viewBox="0 0 100 50" xml:space="preserve">
<desc>Created with Fabric.js 3.5.0</desc>
<defs>
</defs>
<rect x="0" y="0" width="100%" height="100%" fill="rgba(255,255,255,0)"/>
<g transform="matrix(1 0 0 1 50 -14.55)" style="" id="578576">
		
<path xml:space="preserve" font-family="Lato" font-size="6" font-style="normal" font-weight="normal" style="stroke: none; stroke-width: 1; stroke-dasharray: none; stroke-linecap: butt; stroke-dashoffset: 0; stroke-linejoin: miter; stroke-miterlimit: 4; is-custom-font: none; font-file-url: none; fill: rgb(0,0,0); fill-rule: nonzero; opacity: 1; white-space: pre;" d="M-16.12-2.41L-14.40 1.88L-14.85 1.88Q-14.92 1.88-14.97 1.85Q-15.02 1.81-15.04 1.75L-15.04 1.75L-15.45 0.71L-17.38 0.71L-17.78 1.75Q-17.80 1.80-17.85 1.84Q-17.90 1.88-17.98 1.88L-17.98 1.88L-18.43 1.88L-16.71-2.41L-16.12-2.41ZM-16.54-1.46L-17.21 0.29L-15.61 0.29L-16.28-1.46Q-16.35-1.62-16.41-1.87L-16.41-1.87Q-16.45-1.74-16.48-1.64Q-16.51-1.54-16.54-1.46L-16.54-1.46ZM-11.48 1.88L-11.80 1.88Q-11.91 1.88-11.94 1.77L-11.94 1.77L-11.99 1.40Q-12.19 1.64-12.44 1.78Q-12.69 1.93-13.01 1.93L-13.01 1.93Q-13.27 1.93-13.48 1.83Q-13.70 1.73-13.85 1.53Q-14.00 1.34-14.08 1.04Q-14.16 0.75-14.16 0.38L-14.16 0.38Q-14.16 0.04-14.07-0.25Q-13.98-0.54-13.81-0.75Q-13.64-0.97-13.40-1.09Q-13.15-1.21-12.85-1.21L-12.85-1.21Q-12.57-1.21-12.37-1.11Q-12.17-1.02-12.01-0.85L-12.01-0.85L-12.01-2.53L-11.48-2.53L-11.48 1.88ZM-12.83 1.49L-12.83 1.49Q-12.57 1.49-12.38 1.37Q-12.18 1.25-12.01 1.04L-12.01 1.04L-12.01-0.43Q-12.16-0.63-12.34-0.71Q-12.51-0.79-12.73-0.79L-12.73-0.79Q-13.15-0.79-13.38-0.49Q-13.61-0.19-13.61 0.38L-13.61 0.38Q-13.61 0.67-13.56 0.88Q-13.51 1.10-13.41 1.23Q-13.31 1.37-13.16 1.43Q-13.02 1.49-12.83 1.49ZM-8.13 1.88L-8.44 1.88Q-8.56 1.88-8.59 1.77L-8.59 1.77L-8.64 1.40Q-8.83 1.64-9.08 1.78Q-9.33 1.93-9.66 1.93L-9.66 1.93Q-9.92 1.93-10.13 1.83Q-10.34 1.73-10.49 1.53Q-10.64 1.34-10.72 1.04Q-10.81 0.75-10.81 0.38L-10.81 0.38Q-10.81 0.04-10.72-0.25Q-10.63-0.54-10.46-0.75Q-10.29-0.97-10.04-1.09Q-9.80-1.21-9.49-1.21L-9.49-1.21Q-9.21-1.21-9.01-1.11Q-8.82-1.02-8.66-0.85L-8.66-0.85L-8.66-2.53L-8.13-2.53L-8.13 1.88ZM-9.48 1.49L-9.48 1.49Q-9.22 1.49-9.02 1.37Q-8.83 1.25-8.66 1.04L-8.66 1.04L-8.66-0.43Q-8.81-0.63-8.98-0.71Q-9.16-0.79-9.37-0.79L-9.37-0.79Q-9.80-0.79-10.03-0.49Q-10.25-0.19-10.25 0.38L-10.25 0.38Q-10.25 0.67-10.20 0.88Q-10.15 1.10-10.05 1.23Q-9.95 1.37-9.81 1.43Q-9.67 1.49-9.48 1.49ZM-4.47 1.88L-5.99 1.88L-5.99-2.41L-4.62-2.41Q-4.22-2.41-3.93-2.34Q-3.65-2.26-3.46-2.11Q-3.28-1.97-3.19-1.76Q-3.10-1.55-3.10-1.29L-3.10-1.29Q-3.10-1.13-3.15-0.99Q-3.20-0.84-3.30-0.71Q-3.40-0.59-3.55-0.49Q-3.70-0.39-3.91-0.33L-3.91-0.33Q-3.44-0.23-3.20 0.01Q-2.96 0.26-2.96 0.66L-2.96 0.66Q-2.96 0.93-3.06 1.16Q-3.16 1.38-3.35 1.55Q-3.55 1.71-3.83 1.80Q-4.11 1.88-4.47 1.88L-4.47 1.88ZM-4.48-0.07L-5.41-0.07L-5.41 1.42L-4.48 1.42Q-4.23 1.42-4.05 1.37Q-3.87 1.31-3.75 1.21Q-3.64 1.10-3.58 0.96Q-3.53 0.82-3.53 0.65L-3.53 0.65Q-3.53 0.31-3.77 0.12Q-4.00-0.07-4.48-0.07L-4.48-0.07ZM-5.41-1.96L-5.41-0.49L-4.64-0.49Q-4.39-0.49-4.21-0.54Q-4.03-0.60-3.91-0.69Q-3.79-0.79-3.74-0.92Q-3.68-1.06-3.68-1.22L-3.68-1.22Q-3.68-1.60-3.91-1.78Q-4.14-1.96-4.62-1.96L-4.62-1.96L-5.41-1.96ZM-0.96-1.20L-0.96-1.20Q-0.63-1.20-0.36-1.09Q-0.09-0.98 0.10-0.78Q0.29-0.57 0.39-0.28Q0.49 0.01 0.49 0.36L0.49 0.36Q0.49 0.72 0.39 1.01Q0.29 1.30 0.10 1.50Q-0.09 1.71-0.36 1.82Q-0.63 1.93-0.96 1.93L-0.96 1.93Q-1.29 1.93-1.56 1.82Q-1.83 1.71-2.02 1.50Q-2.21 1.30-2.31 1.01Q-2.41 0.72-2.41 0.36L-2.41 0.36Q-2.41 0.01-2.31-0.28Q-2.21-0.57-2.02-0.78Q-1.83-0.98-1.56-1.09Q-1.29-1.20-0.96-1.20ZM-0.96 1.51L-0.96 1.51Q-0.51 1.51-0.29 1.21Q-0.07 0.91-0.07 0.37L-0.07 0.37Q-0.07-0.18-0.29-0.48Q-0.51-0.78-0.96-0.78L-0.96-0.78Q-1.19-0.78-1.36-0.70Q-1.52-0.63-1.64-0.48Q-1.75-0.33-1.80-0.12Q-1.86 0.10-1.86 0.37L-1.86 0.37Q-1.86 0.64-1.80 0.85Q-1.75 1.06-1.64 1.21Q-1.52 1.35-1.36 1.43Q-1.19 1.51-0.96 1.51ZM3.60 1.88L3.29 1.88Q3.17 1.88 3.14 1.77L3.14 1.77L3.09 1.40Q2.90 1.64 2.65 1.78Q2.40 1.93 2.07 1.93L2.07 1.93Q1.81 1.93 1.60 1.83Q1.39 1.73 1.24 1.53Q1.09 1.34 1.01 1.04Q0.92 0.75 0.92 0.38L0.92 0.38Q0.92 0.04 1.01-0.25Q1.10-0.54 1.27-0.75Q1.44-0.97 1.69-1.09Q1.93-1.21 2.24-1.21L2.24-1.21Q2.52-1.21 2.72-1.11Q2.91-1.02 3.07-0.85L3.07-0.85L3.07-2.53L3.60-2.53L3.60 1.88ZM2.25 1.49L2.25 1.49Q2.51 1.49 2.71 1.37Q2.90 1.25 3.07 1.04L3.07 1.04L3.07-0.43Q2.92-0.63 2.75-0.71Q2.57-0.79 2.36-0.79L2.36-0.79Q1.93-0.79 1.70-0.49Q1.48-0.19 1.48 0.38L1.48 0.38Q1.48 0.67 1.53 0.88Q1.58 1.10 1.68 1.23Q1.78 1.37 1.92 1.43Q2.06 1.49 2.25 1.49ZM7.09-1.15L5.39 2.78Q5.36 2.84 5.32 2.88Q5.28 2.91 5.20 2.91L5.20 2.91L4.80 2.91L5.36 1.71L4.10-1.15L4.57-1.15Q4.64-1.15 4.67-1.12Q4.71-1.09 4.73-1.04L4.73-1.04L5.54 0.87Q5.57 0.94 5.59 1.00Q5.61 1.07 5.63 1.14L5.63 1.14Q5.65 1.07 5.67 1.00Q5.69 0.94 5.72 0.87L5.72 0.87L6.50-1.04Q6.52-1.09 6.57-1.12Q6.61-1.15 6.66-1.15L6.66-1.15L7.09-1.15ZM8.38-2.41L11.74-2.41L11.74-1.93L10.35-1.93L10.35 1.88L9.77 1.88L9.77-1.93L8.38-1.93L8.38-2.41ZM12.84-1.20L12.84-1.20Q13.12-1.20 13.35-1.11Q13.58-1.02 13.75-0.85Q13.91-0.67 14.01-0.42Q14.10-0.17 14.10 0.16L14.10 0.16Q14.10 0.28 14.08 0.32Q14.05 0.37 13.97 0.37L13.97 0.37L11.95 0.37Q11.96 0.65 12.03 0.87Q12.10 1.08 12.23 1.22Q12.35 1.37 12.53 1.44Q12.70 1.51 12.92 1.51L12.92 1.51Q13.12 1.51 13.26 1.46Q13.41 1.41 13.52 1.36Q13.62 1.31 13.69 1.26Q13.76 1.21 13.81 1.21L13.81 1.21Q13.88 1.21 13.91 1.26L13.91 1.26L14.06 1.46Q13.97 1.58 13.83 1.67Q13.69 1.76 13.53 1.81Q13.37 1.87 13.21 1.90Q13.04 1.93 12.87 1.93L12.87 1.93Q12.56 1.93 12.29 1.82Q12.03 1.71 11.83 1.51Q11.64 1.30 11.53 1.00Q11.42 0.70 11.42 0.30L11.42 0.30Q11.42-0.01 11.52-0.29Q11.62-0.57 11.80-0.77Q11.99-0.97 12.25-1.09Q12.51-1.20 12.84-1.20ZM12.86-0.81L12.86-0.81Q12.47-0.81 12.25-0.59Q12.02-0.36 11.97 0.03L11.97 0.03L13.62 0.03Q13.62-0.15 13.57-0.31Q13.52-0.46 13.42-0.57Q13.32-0.69 13.18-0.75Q13.04-0.81 12.86-0.81ZM14.25 1.88L15.32 0.33L14.29-1.15L14.81-1.15Q14.87-1.15 14.90-1.13Q14.93-1.11 14.96-1.07L14.96-1.07L15.70 0.07Q15.73-0.02 15.78-0.10L15.78-0.10L16.43-1.06Q16.46-1.10 16.49-1.13Q16.52-1.15 16.57-1.15L16.57-1.15L17.06-1.15L16.04 0.30L17.10 1.88L16.59 1.88Q16.52 1.88 16.48 1.85Q16.45 1.82 16.42 1.77L16.42 1.77L15.66 0.58Q15.64 0.67 15.59 0.74L15.59 0.74L14.89 1.77Q14.86 1.82 14.82 1.85Q14.79 1.88 14.73 1.88L14.73 1.88L14.25 1.88ZM18.55 1.93L18.55 1.93Q18.19 1.93 18.00 1.73Q17.80 1.53 17.80 1.15L17.80 1.15L17.80-0.71L17.44-0.71Q17.39-0.71 17.36-0.74Q17.32-0.76 17.32-0.82L17.32-0.82L17.32-1.04L17.82-1.10L17.94-2.04Q17.95-2.08 17.98-2.11Q18.02-2.14 18.07-2.14L18.07-2.14L18.34-2.14L18.34-1.09L19.21-1.09L19.21-0.71L18.34-0.71L18.34 1.12Q18.34 1.31 18.43 1.40Q18.52 1.49 18.67 1.49L18.67 1.49Q18.75 1.49 18.81 1.47Q18.88 1.45 18.92 1.42Q18.97 1.40 19.00 1.37Q19.03 1.35 19.05 1.35L19.05 1.35Q19.10 1.35 19.13 1.40L19.13 1.40L19.28 1.66Q19.15 1.79 18.95 1.86Q18.76 1.93 18.55 1.93Z"/></g>
<g transform="matrix(1 0 0 1 50 -14.55)" style="" id="679541">
		
<path xml:space="preserve" font-family="Lato" font-size="6" font-style="normal" font-weight="normal" style="stroke: none; stroke-width: 1; stroke-dasharray: none; stroke-linecap: butt; stroke-dashoffset: 0; stroke-linejoin: miter; stroke-miterlimit: 4; is-custom-font: none; font-file-url: none; fill: rgb(0,0,0); fill-rule: nonzero; opacity: 1; white-space: pre;" d="M-16.12-2.41L-14.40 1.88L-14.85 1.88Q-14.92 1.88-14.97 1.85Q-15.02 1.81-15.04 1.75L-15.04 1.75L-15.45 0.71L-17.38 0.71L-17.78 1.75Q-17.80 1.80-17.85 1.84Q-17.90 1.88-17.98 1.88L-17.98 1.88L-18.43 1.88L-16.71-2.41L-16.12-2.41ZM-16.54-1.46L-17.21 0.29L-15.61 0.29L-16.28-1.46Q-16.35-1.62-16.41-1.87L-16.41-1.87Q-16.45-1.74-16.48-1.64Q-16.51-1.54-16.54-1.46L-16.54-1.46ZM-11.48 1.88L-11.80 1.88Q-11.91 1.88-11.94 1.77L-11.94 1.77L-11.99 1.40Q-12.19 1.64-12.44 1.78Q-12.69 1.93-13.01 1.93L-13.01 1.93Q-13.27 1.93-13.48 1.83Q-13.70 1.73-13.85 1.53Q-14.00 1.34-14.08 1.04Q-14.16 0.75-14.16 0.38L-14.16 0.38Q-14.16 0.04-14.07-0.25Q-13.98-0.54-13.81-0.75Q-13.64-0.97-13.40-1.09Q-13.15-1.21-12.85-1.21L-12.85-1.21Q-12.57-1.21-12.37-1.11Q-12.17-1.02-12.01-0.85L-12.01-0.85L-12.01-2.53L-11.48-2.53L-11.48 1.88ZM-12.83 1.49L-12.83 1.49Q-12.57 1.49-12.38 1.37Q-12.18 1.25-12.01 1.04L-12.01 1.04L-12.01-0.43Q-12.16-0.63-12.34-0.71Q-12.51-0.79-12.73-0.79L-12.73-0.79Q-13.15-0.79-13.38-0.49Q-13.61-0.19-13.61 0.38L-13.61 0.38Q-13.61 0.67-13.56 0.88Q-13.51 1.10-13.41 1.23Q-13.31 1.37-13.16 1.43Q-13.02 1.49-12.83 1.49ZM-8.13 1.88L-8.44 1.88Q-8.56 1.88-8.59 1.77L-8.59 1.77L-8.64 1.40Q-8.83 1.64-9.08 1.78Q-9.33 1.93-9.66 1.93L-9.66 1.93Q-9.92 1.93-10.13 1.83Q-10.34 1.73-10.49 1.53Q-10.64 1.34-10.72 1.04Q-10.81 0.75-10.81 0.38L-10.81 0.38Q-10.81 0.04-10.72-0.25Q-10.63-0.54-10.46-0.75Q-10.29-0.97-10.04-1.09Q-9.80-1.21-9.49-1.21L-9.49-1.21Q-9.21-1.21-9.01-1.11Q-8.82-1.02-8.66-0.85L-8.66-0.85L-8.66-2.53L-8.13-2.53L-8.13 1.88ZM-9.48 1.49L-9.48 1.49Q-9.22 1.49-9.02 1.37Q-8.83 1.25-8.66 1.04L-8.66 1.04L-8.66-0.43Q-8.81-0.63-8.98-0.71Q-9.16-0.79-9.37-0.79L-9.37-0.79Q-9.80-0.79-10.03-0.49Q-10.25-0.19-10.25 0.38L-10.25 0.38Q-10.25 0.67-10.20 0.88Q-10.15 1.10-10.05 1.23Q-9.95 1.37-9.81 1.43Q-9.67 1.49-9.48 1.49ZM-4.47 1.88L-5.99 1.88L-5.99-2.41L-4.62-2.41Q-4.22-2.41-3.93-2.34Q-3.65-2.26-3.46-2.11Q-3.28-1.97-3.19-1.76Q-3.10-1.55-3.10-1.29L-3.10-1.29Q-3.10-1.13-3.15-0.99Q-3.20-0.84-3.30-0.71Q-3.40-0.59-3.55-0.49Q-3.70-0.39-3.91-0.33L-3.91-0.33Q-3.44-0.23-3.20 0.01Q-2.96 0.26-2.96 0.66L-2.96 0.66Q-2.96 0.93-3.06 1.16Q-3.16 1.38-3.35 1.55Q-3.55 1.71-3.83 1.80Q-4.11 1.88-4.47 1.88L-4.47 1.88ZM-4.48-0.07L-5.41-0.07L-5.41 1.42L-4.48 1.42Q-4.23 1.42-4.05 1.37Q-3.87 1.31-3.75 1.21Q-3.64 1.10-3.58 0.96Q-3.53 0.82-3.53 0.65L-3.53 0.65Q-3.53 0.31-3.77 0.12Q-4.00-0.07-4.48-0.07L-4.48-0.07ZM-5.41-1.96L-5.41-0.49L-4.64-0.49Q-4.39-0.49-4.21-0.54Q-4.03-0.60-3.91-0.69Q-3.79-0.79-3.74-0.92Q-3.68-1.06-3.68-1.22L-3.68-1.22Q-3.68-1.60-3.91-1.78Q-4.14-1.96-4.62-1.96L-4.62-1.96L-5.41-1.96ZM-0.96-1.20L-0.96-1.20Q-0.63-1.20-0.36-1.09Q-0.09-0.98 0.10-0.78Q0.29-0.57 0.39-0.28Q0.49 0.01 0.49 0.36L0.49 0.36Q0.49 0.72 0.39 1.01Q0.29 1.30 0.10 1.50Q-0.09 1.71-0.36 1.82Q-0.63 1.93-0.96 1.93L-0.96 1.93Q-1.29 1.93-1.56 1.82Q-1.83 1.71-2.02 1.50Q-2.21 1.30-2.31 1.01Q-2.41 0.72-2.41 0.36L-2.41 0.36Q-2.41 0.01-2.31-0.28Q-2.21-0.57-2.02-0.78Q-1.83-0.98-1.56-1.09Q-1.29-1.20-0.96-1.20ZM-0.96 1.51L-0.96 1.51Q-0.51 1.51-0.29 1.21Q-0.07 0.91-0.07 0.37L-0.07 0.37Q-0.07-0.18-0.29-0.48Q-0.51-0.78-0.96-0.78L-0.96-0.78Q-1.19-0.78-1.36-0.70Q-1.52-0.63-1.64-0.48Q-1.75-0.33-1.80-0.12Q-1.86 0.10-1.86 0.37L-1.86 0.37Q-1.86 0.64-1.80 0.85Q-1.75 1.06-1.64 1.21Q-1.52 1.35-1.36 1.43Q-1.19 1.51-0.96 1.51ZM3.60 1.88L3.29 1.88Q3.17 1.88 3.14 1.77L3.14 1.77L3.09 1.40Q2.90 1.64 2.65 1.78Q2.40 1.93 2.07 1.93L2.07 1.93Q1.81 1.93 1.60 1.83Q1.39 1.73 1.24 1.53Q1.09 1.34 1.01 1.04Q0.92 0.75 0.92 0.38L0.92 0.38Q0.92 0.04 1.01-0.25Q1.10-0.54 1.27-0.75Q1.44-0.97 1.69-1.09Q1.93-1.21 2.24-1.21L2.24-1.21Q2.52-1.21 2.72-1.11Q2.91-1.02 3.07-0.85L3.07-0.85L3.07-2.53L3.60-2.53L3.60 1.88ZM2.25 1.49L2.25 1.49Q2.51 1.49 2.71 1.37Q2.90 1.25 3.07 1.04L3.07 1.04L3.07-0.43Q2.92-0.63 2.75-0.71Q2.57-0.79 2.36-0.79L2.36-0.79Q1.93-0.79 1.70-0.49Q1.48-0.19 1.48 0.38L1.48 0.38Q1.48 0.67 1.53 0.88Q1.58 1.10 1.68 1.23Q1.78 1.37 1.92 1.43Q2.06 1.49 2.25 1.49ZM7.09-1.15L5.39 2.78Q5.36 2.84 5.32 2.88Q5.28 2.91 5.20 2.91L5.20 2.91L4.80 2.91L5.36 1.71L4.10-1.15L4.57-1.15Q4.64-1.15 4.67-1.12Q4.71-1.09 4.73-1.04L4.73-1.04L5.54 0.87Q5.57 0.94 5.59 1.00Q5.61 1.07 5.63 1.14L5.63 1.14Q5.65 1.07 5.67 1.00Q5.69 0.94 5.72 0.87L5.72 0.87L6.50-1.04Q6.52-1.09 6.57-1.12Q6.61-1.15 6.66-1.15L6.66-1.15L7.09-1.15ZM8.38-2.41L11.74-2.41L11.74-1.93L10.35-1.93L10.35 1.88L9.77 1.88L9.77-1.93L8.38-1.93L8.38-2.41ZM12.84-1.20L12.84-1.20Q13.12-1.20 13.35-1.11Q13.58-1.02 13.75-0.85Q13.91-0.67 14.01-0.42Q14.10-0.17 14.10 0.16L14.10 0.16Q14.10 0.28 14.08 0.32Q14.05 0.37 13.97 0.37L13.97 0.37L11.95 0.37Q11.96 0.65 12.03 0.87Q12.10 1.08 12.23 1.22Q12.35 1.37 12.53 1.44Q12.70 1.51 12.92 1.51L12.92 1.51Q13.12 1.51 13.26 1.46Q13.41 1.41 13.52 1.36Q13.62 1.31 13.69 1.26Q13.76 1.21 13.81 1.21L13.81 1.21Q13.88 1.21 13.91 1.26L13.91 1.26L14.06 1.46Q13.97 1.58 13.83 1.67Q13.69 1.76 13.53 1.81Q13.37 1.87 13.21 1.90Q13.04 1.93 12.87 1.93L12.87 1.93Q12.56 1.93 12.29 1.82Q12.03 1.71 11.83 1.51Q11.64 1.30 11.53 1.00Q11.42 0.70 11.42 0.30L11.42 0.30Q11.42-0.01 11.52-0.29Q11.62-0.57 11.80-0.77Q11.99-0.97 12.25-1.09Q12.51-1.20 12.84-1.20ZM12.86-0.81L12.86-0.81Q12.47-0.81 12.25-0.59Q12.02-0.36 11.97 0.03L11.97 0.03L13.62 0.03Q13.62-0.15 13.57-0.31Q13.52-0.46 13.42-0.57Q13.32-0.69 13.18-0.75Q13.04-0.81 12.86-0.81ZM14.25 1.88L15.32 0.33L14.29-1.15L14.81-1.15Q14.87-1.15 14.90-1.13Q14.93-1.11 14.96-1.07L14.96-1.07L15.70 0.07Q15.73-0.02 15.78-0.10L15.78-0.10L16.43-1.06Q16.46-1.10 16.49-1.13Q16.52-1.15 16.57-1.15L16.57-1.15L17.06-1.15L16.04 0.30L17.10 1.88L16.59 1.88Q16.52 1.88 16.48 1.85Q16.45 1.82 16.42 1.77L16.42 1.77L15.66 0.58Q15.64 0.67 15.59 0.74L15.59 0.74L14.89 1.77Q14.86 1.82 14.82 1.85Q14.79 1.88 14.73 1.88L14.73 1.88L14.25 1.88ZM18.55 1.93L18.55 1.93Q18.19 1.93 18.00 1.73Q17.80 1.53 17.80 1.15L17.80 1.15L17.80-0.71L17.44-0.71Q17.39-0.71 17.36-0.74Q17.32-0.76 17.32-0.82L17.32-0.82L17.32-1.04L17.82-1.10L17.94-2.04Q17.95-2.08 17.98-2.11Q18.02-2.14 18.07-2.14L18.07-2.14L18.34-2.14L18.34-1.09L19.21-1.09L19.21-0.71L18.34-0.71L18.34 1.12Q18.34 1.31 18.43 1.40Q18.52 1.49 18.67 1.49L18.67 1.49Q18.75 1.49 18.81 1.47Q18.88 1.45 18.92 1.42Q18.97 1.40 19.00 1.37Q19.03 1.35 19.05 1.35L19.05 1.35Q19.10 1.35 19.13 1.40L19.13 1.40L19.28 1.66Q19.15 1.79 18.95 1.86Q18.76 1.93 18.55 1.93Z"/></g>
<g transform="matrix(1 0 0 1 49.551 23.0997)" style="" id="128777">
		
<path xml:space="preserve" font-family="Abel" font-size="38" font-style="normal" font-weight="normal" style="stroke: none; stroke-width: 1; stroke-dasharray: none; stroke-linecap: butt; stroke-dashoffset: 0; stroke-linejoin: miter; stroke-miterlimit: 4; is-custom-font: none; font-file-url: none; fill: rgb(255,255,255); fill-rule: nonzero; opacity: 1; white-space: pre;" d="M-26.51 11.94L-28.79 11.94L-28.79-1.98Q-28.79-2.67-29.05-3.27Q-29.31-3.87-29.75-4.32Q-30.20-4.76-30.80-5.02Q-31.40-5.28-32.09-5.28L-32.09-5.28L-33.22-5.28Q-33.91-5.28-34.51-5.02Q-35.11-4.76-35.57-4.32Q-36.02-3.87-36.28-3.27Q-36.54-2.67-36.54-1.98L-36.54-1.98L-36.54 11.94L-38.81 11.94L-38.81-1.98Q-38.81-2.67-39.07-3.27Q-39.33-3.87-39.78-4.32Q-40.24-4.76-40.84-5.02Q-41.44-5.28-42.13-5.28L-42.13-5.28L-43.26-5.28Q-43.95-5.28-44.55-5.02Q-45.15-4.76-45.60-4.32Q-46.04-3.87-46.30-3.27Q-46.56-2.67-46.56-1.98L-46.56-1.98L-46.56 11.94L-48.85 11.94L-48.85-7.06L-48.08-7.06L-46.84-5.13Q-46.06-6.19-44.88-6.81Q-43.71-7.43-42.31-7.43L-42.31-7.43L-42.13-7.43Q-40.51-7.43-39.22-6.64Q-37.92-5.84-37.21-4.52L-37.21-4.52Q-36.86-5.17-36.34-5.71Q-35.82-6.25-35.19-6.63Q-34.56-7.01-33.82-7.22Q-33.07-7.43-32.28-7.43L-32.28-7.43L-32.09-7.43Q-30.94-7.43-29.92-7.00Q-28.90-6.56-28.14-5.80Q-27.38-5.04-26.94-4.02Q-26.51-3.00-26.51-1.85L-26.51-1.85L-26.51 11.94ZM-9.25 6.72L-9.25 6.72Q-9.25 7.87-9.69 8.89Q-10.12 9.91-10.88 10.68Q-11.64 11.44-12.66 11.87Q-13.68 12.31-14.83 12.31L-14.83 12.31L-16.36 12.31Q-17.51 12.31-18.53 11.87Q-19.55 11.44-20.31 10.68Q-21.07 9.91-21.50 8.89Q-21.94 7.87-21.94 6.72L-21.94 6.72L-21.94-1.85Q-21.94-3.00-21.50-4.02Q-21.07-5.04-20.31-5.80Q-19.55-6.56-18.53-7.00Q-17.51-7.43-16.36-7.43L-16.36-7.43L-14.83-7.43Q-13.68-7.43-12.66-7.00Q-11.64-6.56-10.88-5.80Q-10.12-5.04-9.69-4.02Q-9.25-3.00-9.25-1.85L-9.25-1.85L-9.25 6.72ZM-11.53 6.85L-11.53-1.98Q-11.53-2.67-11.79-3.27Q-12.05-3.87-12.50-4.32Q-12.94-4.76-13.54-5.02Q-14.15-5.28-14.83-5.28L-14.83-5.28L-16.36-5.28Q-17.04-5.28-17.65-5.02Q-18.25-4.76-18.69-4.32Q-19.14-3.87-19.40-3.27Q-19.66-2.67-19.66-1.98L-19.66-1.98L-19.66 6.85Q-19.66 7.54-19.40 8.14Q-19.14 8.75-18.69 9.19Q-18.25 9.64-17.65 9.90Q-17.04 10.16-16.36 10.16L-16.36 10.16L-14.83 10.16Q-14.15 10.16-13.54 9.90Q-12.94 9.64-12.50 9.19Q-12.05 8.75-11.79 8.14Q-11.53 7.54-11.53 6.85L-11.53 6.85ZM7.25 11.94L-5.45 11.94L-5.45 10.92L4.13-4.89L-5.07-4.89L-5.07-7.06L7.25-7.06L7.25-6.04L-2.33 9.77L7.25 9.77L7.25 11.94ZM14.28-11.63L11.62-11.63L11.62-14.67L14.28-14.67L14.28-11.63ZM14.09 11.94L11.81 11.94L11.81-7.06L14.09-7.06L14.09 11.94ZM22.46 11.94L20.18 11.94L20.18-14.67L22.46-14.67L22.46 11.94ZM30.83 11.94L28.55 11.94L28.55-14.67L30.83-14.67L30.83 11.94ZM48.85 11.94L48.08 11.94L46.82 10.04Q46.04 11.07 44.87 11.69Q43.71 12.31 42.31 12.31L42.31 12.31L41.74 12.31Q40.59 12.31 39.57 11.87Q38.55 11.44 37.79 10.68Q37.03 9.91 36.59 8.89Q36.15 7.87 36.15 6.72L36.15 6.72L36.15 6.54Q36.15 5.39 36.59 4.37Q37.03 3.35 37.79 2.59Q38.55 1.82 39.57 1.39Q40.59 0.95 41.74 0.95L41.74 0.95L46.56 0.95L46.56-1.98Q46.56-2.67 46.30-3.27Q46.04-3.87 45.60-4.32Q45.15-4.76 44.55-5.02Q43.95-5.28 43.26-5.28L43.26-5.28L41.92-5.28Q41.24-5.28 40.63-5.02Q40.03-4.76 39.59-4.32Q39.14-3.87 38.88-3.27Q38.62-2.67 38.62-1.98L38.62-1.98L38.62-1.29L36.34-1.66L36.34-1.85Q36.34-3.00 36.78-4.02Q37.21-5.04 37.97-5.80Q38.73-6.56 39.75-7.00Q40.77-7.43 41.92-7.43L41.92-7.43L43.26-7.43Q44.41-7.43 45.43-7.00Q46.45-6.56 47.21-5.80Q47.97-5.04 48.41-4.02Q48.85-3.00 48.85-1.85L48.85-1.85L48.85 11.94ZM46.56 6.85L46.56 2.73L41.74 2.73Q41.05 2.73 40.45 2.99Q39.85 3.25 39.40 3.71Q38.96 4.16 38.70 4.77Q38.44 5.37 38.44 6.06L38.44 6.06L38.44 6.85Q38.44 7.54 38.70 8.14Q38.96 8.75 39.40 9.19Q39.85 9.64 40.45 9.90Q41.05 10.16 41.74 10.16L41.74 10.16L43.26 10.16Q43.95 10.16 44.55 9.90Q45.15 9.64 45.60 9.19Q46.04 8.75 46.30 8.14Q46.56 7.54 46.56 6.85L46.56 6.85Z"/></g>
</svg>