<svg xmlns="http://www.w3.org/2000/svg" xmlns:xlink="http://www.w3.org/1999/xlink" version="1.1" width="1200" height="628" viewBox="0 0 1200 628" xml:space="preserve">
<desc>Created with Fabric.js 3.5.0</desc>
<defs>
</defs>
<rect x="0" y="0" width="100%" height="100%" fill="rgba(255,255,255,0)"/>
<g transform="matrix(1.176 0 0 1.176 70.7908 -219.9366)" id="692299">
<rect style="stroke: none; stroke-width: 1; stroke-dasharray: none; stroke-linecap: butt; stroke-dashoffset: 0; stroke-linejoin: miter; stroke-miterlimit: 4; is-custom-font: none; font-file-url: none; fill: rgb(255,255,255); fill-opacity: 0; fill-rule: nonzero; opacity: 1;" x="-50" y="-50" rx="0" ry="0" width="100" height="100"/>
</g>
<g transform="matrix(2.6371 0 0 1.7952 283.9138 489.6025)" id="937097">
<path style="stroke: none; stroke-width: 1; stroke-dasharray: none; stroke-linecap: butt; stroke-dashoffset: 0; stroke-linejoin: miter; stroke-miterlimit: 4; is-custom-font: none; font-file-url: none; fill: rgb(193,222,226); fill-rule: evenodd; opacity: 0.25;" vector-effect="non-scaling-stroke" transform=" translate(-103.1154, -299.5265)" d="M 128.918 245.18 C 135.65 240.235 142.937 249.568 136.845 254.514 C 133.478 257.248 129.957 256.276 127.975 253.997 C 126.688 255.567 125.484 257.208 124.327 258.594 C 120.802 262.817 117.469 267.141 114.285 271.566 C 107.67 280.759 102 290.471 96.0729 300.006 C 90.2232 309.416 84.4202 318.874 79.1181 328.523 C 74.6265 336.697 68.6397 346.314 67.1019 355.276 C 69.4352 336.27 78.2888 318.001 88.8319 301.245 C 99.2892 284.628 111.29 266.479 127.482 253.364 C 125.834 250.939 125.788 247.478 128.918 245.18 Z" stroke-linecap="round"/>
</g>
<g transform="matrix(1.597 0 0 1.597 33.1588 32.6776)" id="357401">
<path style="stroke: none; stroke-width: 0; stroke-dasharray: none; stroke-linecap: butt; stroke-dashoffset: 0; stroke-linejoin: miter; stroke-miterlimit: 4; is-custom-font: none; font-file-url: none; fill: rgb(0,175,161); fill-rule: evenodd; opacity: 1;" transform=" translate(0, 0)" d="M 176.384 91.583 c 0 -0.063 0 0 0 0 s -21.444 19.144 -48.244 43.103 h -22.559 a 6961.257 6961.257 0 170.803 -63.263 v 20.16" stroke-linecap="round"/>
</g>
<g transform="matrix(1.7614 0 0 1.7253 246.5895 228.3166)" id="247237">
<path style="stroke: none; stroke-width: 0; stroke-dasharray: none; stroke-linecap: butt; stroke-dashoffset: 0; stroke-linejoin: miter; stroke-miterlimit: 4; is-custom-font: none; font-file-url: none; fill: rgb(255,255,255); fill-rule: evenodd; opacity: 1;" transform=" translate(-208.1415, -124.9885)" d="M 248.375 159.675 c 0 0.061 0 0 0 0 s 21.44 -19.143 48.245 -43.096 h 22.552 c -37.138 33.67 -70.797 63.257 -70.797 63.257 v -20.161 M 97.111 134.521 v -33.442 L 209.513 0.627 L 208.17 249.35 l -26.289 -23.386 l 0.005 -167.278 s -51.497 46.091 -84.775 75.835" stroke-linecap="round"/>
</g>
<g transform="matrix(1.0753 0 0 1.0753 264.118 386.1946)" id="614177">
<path style="stroke: none; stroke-width: 0; stroke-dasharray: none; stroke-linecap: butt; stroke-dashoffset: 0; stroke-linejoin: miter; stroke-miterlimit: 4; is-custom-font: none; font-file-url: none; fill: rgb(255,255,255); fill-rule: evenodd; opacity: 1;" transform=" translate(-212.598, -187.81)" d="M 322.165 249.778 l -14.979 13.68 v 27.764 h -17.223 v 14.087 h 17.223 v 68.308 h 14.979 v -68.308 h 19.492 v -14.087 h -19.492 v -41.444 M 259.368 373.617 h 14.978 v -82.395 h -14.978 z M 266.858 252.059 c -5.983 0 -10.833 4.851 -10.833 10.835 c 0 5.985 4.85 10.834 10.833 10.834 c 5.98 0 10.832 -4.849 10.832 -10.834 c 0 -5.984 -4.852 -10.835 -10.832 -10.835 M 91.751 322.453 c 2.055 -11.22 11.59 -20.01 23.555 -20.01 c 14.02 0 22.806 9.725 23.368 20.01 H 91.751 z m 62.439 8.789 c 0 -26.928 -15.329 -43.011 -39.445 -43.011 c -18.695 0 -39.258 14.961 -39.258 43.385 S 97.733 375 118.297 375 c 17.199 0 29.911 -8.603 35.893 -20.383 l -12.525 -6.17 c -3.553 7.104 -11.777 12.341 -22.994 12.341 c -15.516 0 -26.733 -10.847 -27.481 -25.245 h 62.627 c 0.373 -1.684 0.373 -4.113 0.373 -4.301 z M 394.635 288.231 c -9.812 0 -17.035 4.128 -22.592 9.687 v -48.14 l -14.978 13.68 v 110.159 h 14.978 v -47.592 c 0 -15.376 10 -22.971 19.26 -22.971 c 9.446 0 17.965 7.759 17.965 24.619 v 45.944 h 15.928 v -45.944 c 0 -30.754 -13.705 -39.442 -30.561 -39.442 M 68.058 291.3 H 8.829 L 0 305.74 h 41.622 L 0 373.818 h 67.308 v -14.44 H 26.436 L 68.058 291.3 M 207.696 288.231 c -9.814 0 -17.038 4.128 -22.593 9.687 v -6.696 h -14.98 v 82.395 h 14.98 v -47.592 c 0 -15.376 10 -22.971 19.261 -22.971 c 9.445 0 17.965 7.759 17.965 24.619 v 45.944 h 15.928 v -45.944 c 0 -30.754 -13.706 -39.442 -30.561 -39.442 M 327.645 116.739 v 33.438 L 216.686 249.35 L 215.247 1.343 l -0.021 -0.723 c 2.985 2.674 13.747 12.254 27.653 24.682 l -0.007 0.608 v 166.665 s 51.498 -46.096 84.773 -75.836" stroke-linecap="round"/>
</g>
<g transform="matrix(1.176 0 0 1.176 817.8906 205.9192)" id="612416">
<path style="stroke: none; stroke-width: 0; stroke-dasharray: none; stroke-linecap: butt; stroke-dashoffset: 0; stroke-linejoin: miter; stroke-miterlimit: 4; is-custom-font: none; font-file-url: none; fill: rgb(255,255,255); fill-rule: nonzero; opacity: 1;" transform=" translate(-7.1, 4.075)" d="M -241.57 27.02 L -266.68 -35.16 L -257.35 -35.16 Q -255.84 -35.16 -254.9 -34.43 Q -253.95 -33.7 -253.48 -32.54 L -253.48 -32.54 L -238.86 5.39 Q -238.13 7.24 -237.46 9.45 Q -236.79 11.66 -236.19 14.12 L -236.19 14.12 Q -235.2 9.17 -233.74 5.39 L -233.74 5.39 L -219.16 -32.54 Q -218.78 -33.53 -217.79 -34.35 Q -216.8 -35.16 -215.34 -35.16 L -215.34 -35.16 L -206.01 -35.16 L -231.12 27.02 L -241.57 27.02 Z M -199.51 -35.16 L -160.3 -35.16 L -160.3 -25.96 L -187.86 -25.96 L -187.86 -7.56 L -164.6 -7.56 L -164.6 1.69 L -187.86 1.69 L -187.86 27.02 L -199.51 27.02 L -199.51 -35.16 Z M -137.68 27.02 L -156.99 -35.16 L -147.27 -35.16 Q -145.76 -35.16 -144.75 -34.45 Q -143.74 -33.74 -143.4 -32.54 L -143.4 -32.54 L -132.82 4.66 Q -132.43 6.03 -132.11 7.64 Q -131.79 9.26 -131.49 11.06 L -131.49 11.06 Q -131.14 9.26 -130.73 7.64 Q -130.33 6.03 -129.85 4.66 L -129.85 4.66 L -117.64 -32.54 Q -117.3 -33.53 -116.29 -34.35 Q -115.28 -35.16 -113.81 -35.16 L -113.81 -35.16 L -110.42 -35.16 Q -108.91 -35.16 -107.92 -34.45 Q -106.93 -33.74 -106.55 -32.54 L -106.55 -32.54 L -94.42 4.66 Q -93.47 7.41 -92.79 10.76 L -92.79 10.76 Q -92.49 9.08 -92.16 7.54 Q -91.84 5.99 -91.5 4.66 L -91.5 4.66 L -80.92 -32.54 Q -80.62 -33.61 -79.59 -34.39 Q -78.55 -35.16 -77.09 -35.16 L -77.09 -35.16 L -68.02 -35.16 L -87.33 27.02 L -97.77 27.02 L -111.36 -15.47 Q -111.62 -16.29 -111.9 -17.23 Q -112.18 -18.18 -112.44 -19.25 L -112.44 -19.25 Q -112.7 -18.18 -112.98 -17.23 Q -113.25 -16.29 -113.51 -15.47 L -113.51 -15.47 L -127.23 27.02 L -137.68 27.02 Z M -16.07 18.5 L -16.07 18.5 Q -12.16 18.5 -9.26 17.79 Q -6.36 17.08 -3.73 15.84 L -3.73 15.84 L -3.73 4.53 L -11.52 4.53 Q -12.63 4.53 -13.28 3.9 Q -13.92 3.28 -13.92 2.38 L -13.92 2.38 L -13.92 -4.16 L 6.76 -4.16 L 6.76 21 Q 4.39 22.72 1.83 23.98 Q -0.72 25.25 -3.63 26.07 Q -6.53 26.89 -9.84 27.3 Q -13.15 27.7 -16.98 27.7 L -16.98 27.7 Q -23.77 27.7 -29.49 25.34 Q -35.21 22.97 -39.38 18.76 Q -43.55 14.55 -45.9 8.7 Q -48.24 2.85 -48.24 -4.07 L -48.24 -4.07 Q -48.24 -11.08 -45.96 -16.93 Q -43.68 -22.78 -39.49 -26.99 Q -35.3 -31.21 -29.32 -33.53 Q -23.34 -35.85 -15.9 -35.85 L -15.9 -35.85 Q -8.29 -35.85 -2.72 -33.59 Q 2.85 -31.34 6.72 -27.72 L 6.72 -27.72 L 3.36 -22.48 Q 2.37 -20.89 0.74 -20.89 L 0.74 -20.89 Q -0.29 -20.89 -1.37 -21.57 L -1.37 -21.57 Q -2.74 -22.39 -4.19 -23.21 Q -5.63 -24.03 -7.37 -24.63 Q -9.11 -25.23 -11.28 -25.62 Q -13.45 -26 -16.29 -26 L -16.29 -26 Q -20.89 -26 -24.61 -24.46 Q -28.33 -22.91 -30.95 -20.03 Q -33.58 -17.15 -34.99 -13.1 Q -36.41 -9.06 -36.41 -4.07 L -36.41 -4.07 Q -36.41 1.3 -34.91 5.49 Q -33.4 9.69 -30.69 12.57 Q -27.99 15.45 -24.24 16.98 Q -20.5 18.5 -16.07 18.5 Z M 29.12 -35.16 L 29.12 17.47 L 54.02 17.47 L 54.02 27.02 L 17.55 27.02 L 17.55 -35.16 L 29.12 -35.16 Z M 118.21 -4.07 L 118.21 -4.07 Q 118.21 2.76 115.94 8.59 Q 113.66 14.42 109.53 18.67 Q 105.4 22.93 99.6 25.32 Q 93.79 27.7 86.74 27.7 L 86.74 27.7 Q 79.69 27.7 73.86 25.32 Q 68.03 22.93 63.88 18.67 Q 59.73 14.42 57.46 8.59 Q 55.18 2.76 55.18 -4.07 L 55.18 -4.07 Q 55.18 -10.91 57.46 -16.74 Q 59.73 -22.56 63.88 -26.82 Q 68.03 -31.08 73.86 -33.46 Q 79.69 -35.85 86.74 -35.85 L 86.74 -35.85 Q 93.79 -35.85 99.6 -33.44 Q 105.4 -31.03 109.53 -26.8 Q 113.66 -22.56 115.94 -16.74 Q 118.21 -10.91 118.21 -4.07 Z M 106.35 -4.07 L 106.35 -4.07 Q 106.35 -9.19 104.99 -13.25 Q 103.64 -17.32 101.1 -20.16 Q 98.56 -22.99 94.93 -24.5 Q 91.3 -26 86.74 -26 L 86.74 -26 Q 82.18 -26 78.53 -24.5 Q 74.87 -22.99 72.31 -20.16 Q 69.75 -17.32 68.38 -13.25 Q 67 -9.19 67 -4.07 L 67 -4.07 Q 67 1.04 68.38 5.11 Q 69.75 9.17 72.31 11.99 Q 74.87 14.8 78.53 16.31 Q 82.18 17.81 86.74 17.81 L 86.74 17.81 Q 91.3 17.81 94.93 16.31 Q 98.56 14.8 101.1 11.99 Q 103.64 9.17 104.99 5.11 Q 106.35 1.04 106.35 -4.07 Z M 150.81 27.02 L 127.33 27.02 L 127.33 -35.16 L 148.79 -35.16 Q 154.89 -35.16 159.21 -34 Q 163.54 -32.84 166.31 -30.69 Q 169.08 -28.54 170.37 -25.49 Q 171.66 -22.43 171.66 -18.61 L 171.66 -18.61 Q 171.66 -16.41 171.02 -14.41 Q 170.37 -12.42 169.02 -10.67 Q 167.66 -8.93 165.58 -7.51 Q 163.49 -6.09 160.61 -5.11 L 160.61 -5.11 Q 173.43 -2.22 173.43 8.74 L 173.43 8.74 Q 173.43 12.7 171.92 16.05 Q 170.42 19.4 167.54 21.83 Q 164.65 24.26 160.44 25.64 Q 156.23 27.02 150.81 27.02 L 150.81 27.02 Z M 150.59 -0.25 L 138.9 -0.25 L 138.9 17.99 L 150.64 17.99 Q 153.86 17.99 156.03 17.21 Q 158.2 16.44 159.52 15.15 Q 160.83 13.86 161.41 12.14 Q 161.99 10.42 161.99 8.48 L 161.99 8.48 Q 161.99 6.46 161.34 4.85 Q 160.7 3.24 159.32 2.1 Q 157.95 0.96 155.8 0.36 Q 153.65 -0.25 150.59 -0.25 L 150.59 -0.25 Z M 138.9 -26.22 L 138.9 -8.24 L 148.14 -8.24 Q 154.03 -8.24 157.09 -10.39 Q 160.14 -12.54 160.14 -17.23 L 160.14 -17.23 Q 160.14 -22.09 157.39 -24.15 Q 154.64 -26.22 148.79 -26.22 L 148.79 -26.22 L 138.9 -26.22 Z M 213.59 -35.16 L 238.01 27.02 L 229.07 27.02 Q 227.56 27.02 226.6 26.26 Q 225.63 25.51 225.2 24.39 L 225.2 24.39 L 220.55 11.71 L 194.8 11.71 L 190.15 24.39 Q 189.81 25.38 188.8 26.2 Q 187.79 27.02 186.33 27.02 L 186.33 27.02 L 177.34 27.02 L 201.76 -35.16 L 213.59 -35.16 Z M 205.33 -17.06 L 197.76 3.54 L 217.59 3.54 L 210.02 -17.15 Q 209.5 -18.52 208.88 -20.39 Q 208.26 -22.26 207.65 -24.46 L 207.65 -24.46 Q 207.05 -22.26 206.47 -20.37 Q 205.89 -18.48 205.33 -17.06 L 205.33 -17.06 Z M 255.99 -35.16 L 255.99 17.47 L 280.88 17.47 L 280.88 27.02 L 244.42 27.02 L 244.42 -35.16 L 255.99 -35.16 Z" stroke-linecap="round"/>
</g>
<g transform="matrix(1.176 0 0 1.176 811.5659 390.3031)" id="519714">
<path style="stroke: none; stroke-width: 0; stroke-dasharray: none; stroke-linecap: butt; stroke-dashoffset: 0; stroke-linejoin: miter; stroke-miterlimit: 4; is-custom-font: none; font-file-url: none; fill: rgb(255,255,255); fill-rule: nonzero; opacity: 1;" transform=" translate(-0.055, -2.955)" d="M -208.96 10.92 L -208.96 10.92 Q -208.13 10.92 -207.52 11.56 L -207.52 11.56 L -203.49 15.93 Q -206.83 20.07 -211.72 22.28 Q -216.6 24.48 -223.44 24.48 L -223.44 24.48 Q -229.56 24.48 -234.44 22.39 Q -239.32 20.3 -242.78 16.58 Q -246.24 12.85 -248.08 7.69 Q -249.93 2.52 -249.93 -3.6 L -249.93 -3.6 Q -249.93 -9.79 -247.87 -14.94 Q -245.82 -20.09 -242.1 -23.82 Q -238.37 -27.54 -233.19 -29.61 Q -228 -31.68 -221.73 -31.68 L -221.73 -31.68 Q -215.61 -31.68 -211.03 -29.72 Q -206.45 -27.77 -203.19 -24.54 L -203.19 -24.54 L -206.61 -19.79 Q -206.91 -19.33 -207.39 -18.99 Q -207.86 -18.65 -208.7 -18.65 L -208.7 -18.65 Q -209.57 -18.65 -210.48 -19.33 Q -211.39 -20.02 -212.8 -20.81 Q -214.21 -21.61 -216.35 -22.3 Q -218.5 -22.98 -221.81 -22.98 L -221.81 -22.98 Q -225.68 -22.98 -228.93 -21.63 Q -232.18 -20.28 -234.52 -17.77 Q -236.85 -15.27 -238.17 -11.67 Q -239.48 -8.08 -239.48 -3.6 L -239.48 -3.6 Q -239.48 1.04 -238.17 4.65 Q -236.85 8.26 -234.61 10.73 Q -232.37 13.2 -229.33 14.51 Q -226.29 15.82 -222.79 15.82 L -222.79 15.82 Q -220.7 15.82 -219.01 15.59 Q -217.32 15.36 -215.9 14.87 Q -214.47 14.37 -213.2 13.6 Q -211.93 12.82 -210.67 11.68 L -210.67 11.68 Q -210.29 11.33 -209.87 11.13 Q -209.46 10.92 -208.96 10.92 Z M -179.66 -15.72 L -179.66 -15.72 Q -175.29 -15.72 -171.74 -14.32 Q -168.19 -12.91 -165.68 -10.33 Q -163.17 -7.74 -161.8 -4.02 Q -160.44 -0.29 -160.44 4.3 L -160.44 4.3 Q -160.44 8.94 -161.8 12.66 Q -163.17 16.39 -165.68 19.01 Q -168.19 21.63 -171.74 23.04 Q -175.29 24.44 -179.66 24.44 L -179.66 24.44 Q -184.03 24.44 -187.61 23.04 Q -191.18 21.63 -193.71 19.01 Q -196.23 16.39 -197.62 12.66 Q -199.01 8.94 -199.01 4.3 L -199.01 4.3 Q -199.01 -0.29 -197.62 -4.02 Q -196.23 -7.74 -193.71 -10.33 Q -191.18 -12.91 -187.61 -14.32 Q -184.03 -15.72 -179.66 -15.72 Z M -179.66 17.22 L -179.66 17.22 Q -174.8 17.22 -172.46 13.96 Q -170.13 10.69 -170.13 4.38 L -170.13 4.38 Q -170.13 -1.93 -172.46 -5.23 Q -174.8 -8.54 -179.66 -8.54 L -179.66 -8.54 Q -184.6 -8.54 -186.96 -5.21 Q -189.32 -1.89 -189.32 4.38 L -189.32 4.38 Q -189.32 10.65 -186.96 13.94 Q -184.6 17.22 -179.66 17.22 Z M -143.72 23.87 L -153.1 23.87 L -153.1 -15.11 L -147.36 -15.11 Q -145.54 -15.11 -144.97 -13.4 L -144.97 -13.4 L -144.32 -10.33 Q -143.15 -11.54 -141.84 -12.53 Q -140.52 -13.52 -139.06 -14.24 Q -137.6 -14.96 -135.93 -15.34 Q -134.25 -15.72 -132.28 -15.72 L -132.28 -15.72 Q -129.09 -15.72 -126.62 -14.64 Q -124.15 -13.56 -122.49 -11.6 Q -120.84 -9.64 -119.99 -6.92 Q -119.13 -4.21 -119.13 -0.94 L -119.13 -0.94 L -119.13 23.87 L -128.52 23.87 L -128.52 -0.94 Q -128.52 -4.51 -130.17 -6.47 Q -131.82 -8.43 -135.13 -8.43 L -135.13 -8.43 Q -137.56 -8.43 -139.69 -7.32 Q -141.82 -6.22 -143.72 -4.32 L -143.72 -4.32 L -143.72 23.87 Z M -96.41 -15.8 L -96.41 -15.8 Q -93.9 -15.8 -91.69 -15.28 Q -89.49 -14.77 -87.67 -13.78 L -87.67 -13.78 L -76.46 -13.78 L -76.46 -10.29 Q -76.46 -9.41 -76.91 -8.92 Q -77.37 -8.43 -78.47 -8.24 L -78.47 -8.24 L -81.97 -7.59 Q -81.59 -6.6 -81.38 -5.5 Q -81.17 -4.4 -81.17 -3.18 L -81.17 -3.18 Q -81.17 -0.29 -82.33 2.04 Q -83.49 4.38 -85.52 6.01 Q -87.55 7.65 -90.35 8.54 Q -93.14 9.43 -96.41 9.43 L -96.41 9.43 Q -98.61 9.43 -100.7 9.02 L -100.7 9.02 Q -102.52 10.12 -102.52 11.49 L -102.52 11.49 Q -102.52 12.66 -101.44 13.22 Q -100.36 13.77 -98.59 13.99 Q -96.82 14.22 -94.58 14.28 Q -92.34 14.34 -89.98 14.53 Q -87.63 14.72 -85.39 15.19 Q -83.14 15.67 -81.38 16.69 Q -79.61 17.72 -78.53 19.49 Q -77.44 21.25 -77.44 24.03 L -77.44 24.03 Q -77.44 26.61 -78.72 29.04 Q -79.99 31.47 -82.4 33.37 Q -84.82 35.27 -88.31 36.43 Q -91.81 37.59 -96.29 37.59 L -96.29 37.59 Q -100.74 37.59 -104.01 36.74 Q -107.27 35.88 -109.42 34.46 Q -111.57 33.03 -112.63 31.17 Q -113.7 29.31 -113.7 27.29 L -113.7 27.29 Q -113.7 24.56 -112.02 22.7 Q -110.35 20.83 -107.39 19.73 L -107.39 19.73 Q -108.83 18.93 -109.71 17.6 Q -110.58 16.27 -110.58 14.15 L -110.58 14.15 Q -110.58 13.27 -110.28 12.34 Q -109.97 11.41 -109.35 10.5 Q -108.72 9.59 -107.77 8.77 Q -106.82 7.95 -105.53 7.31 L -105.53 7.31 Q -108.49 5.71 -110.18 3.05 Q -111.87 0.39 -111.87 -3.18 L -111.87 -3.18 Q -111.87 -6.07 -110.71 -8.41 Q -109.55 -10.74 -107.48 -12.4 Q -105.41 -14.05 -102.58 -14.92 Q -99.75 -15.8 -96.41 -15.8 Z M -86.11 25.62 L -86.11 25.62 Q -86.11 24.48 -86.79 23.76 Q -87.48 23.04 -88.65 22.64 Q -89.83 22.24 -91.41 22.05 Q -92.99 21.86 -94.75 21.77 Q -96.52 21.67 -98.4 21.58 Q -100.28 21.48 -102.03 21.25 L -102.03 21.25 Q -103.63 22.13 -104.6 23.32 Q -105.56 24.52 -105.56 26.08 L -105.56 26.08 Q -105.56 27.1 -105.05 28 Q -104.54 28.89 -103.42 29.54 Q -102.3 30.18 -100.51 30.54 Q -98.72 30.9 -96.14 30.9 L -96.14 30.9 Q -93.52 30.9 -91.62 30.51 Q -89.72 30.11 -88.48 29.4 Q -87.25 28.7 -86.68 27.73 Q -86.11 26.76 -86.11 25.62 Z M -96.41 3.43 L -96.41 3.43 Q -94.66 3.43 -93.37 2.96 Q -92.07 2.48 -91.22 1.64 Q -90.36 0.81 -89.93 -0.37 Q -89.49 -1.55 -89.49 -2.95 L -89.49 -2.95 Q -89.49 -5.84 -91.22 -7.53 Q -92.95 -9.22 -96.41 -9.22 L -96.41 -9.22 Q -99.86 -9.22 -101.59 -7.53 Q -103.32 -5.84 -103.32 -2.95 L -103.32 -2.95 Q -103.32 -1.59 -102.89 -0.41 Q -102.45 0.77 -101.59 1.63 Q -100.74 2.48 -99.43 2.96 Q -98.12 3.43 -96.41 3.43 Z M -61.18 23.87 L -70.57 23.87 L -70.57 -15.11 L -65.06 -15.11 Q -63.61 -15.11 -63.04 -14.58 Q -62.47 -14.05 -62.28 -12.76 L -62.28 -12.76 L -61.71 -8.05 Q -59.62 -11.66 -56.81 -13.75 Q -54 -15.84 -50.5 -15.84 L -50.5 -15.84 Q -47.61 -15.84 -45.71 -14.51 L -45.71 -14.51 L -46.93 -7.48 Q -47.04 -6.79 -47.42 -6.51 Q -47.8 -6.22 -48.45 -6.22 L -48.45 -6.22 Q -49.02 -6.22 -50.01 -6.49 Q -51 -6.75 -52.63 -6.75 L -52.63 -6.75 Q -55.56 -6.75 -57.65 -5.14 Q -59.74 -3.52 -61.18 -0.41 L -61.18 -0.41 L -61.18 23.87 Z M -23.41 -15.72 L -23.41 -15.72 Q -19.72 -15.72 -16.63 -14.54 Q -13.53 -13.37 -11.29 -11.1 Q -9.04 -8.84 -7.79 -5.56 Q -6.54 -2.27 -6.54 1.95 L -6.54 1.95 Q -6.54 3.01 -6.63 3.72 Q -6.73 4.42 -6.97 4.82 Q -7.22 5.22 -7.64 5.39 Q -8.06 5.56 -8.7 5.56 L -8.7 5.56 L -32.79 5.56 Q -32.38 11.56 -29.56 14.37 Q -26.75 17.19 -22.12 17.19 L -22.12 17.19 Q -19.84 17.19 -18.18 16.65 Q -16.53 16.12 -15.3 15.48 Q -14.06 14.83 -13.13 14.3 Q -12.2 13.77 -11.32 13.77 L -11.32 13.77 Q -10.75 13.77 -10.34 13.99 Q -9.92 14.22 -9.61 14.64 L -9.61 14.64 L -6.88 18.06 Q -8.44 19.88 -10.37 21.12 Q -12.31 22.35 -14.42 23.1 Q -16.53 23.84 -18.72 24.14 Q -20.9 24.44 -22.95 24.44 L -22.95 24.44 Q -27.02 24.44 -30.51 23.1 Q -34.01 21.75 -36.59 19.11 Q -39.18 16.46 -40.66 12.57 Q -42.14 8.67 -42.14 3.54 L -42.14 3.54 Q -42.14 -0.45 -40.85 -3.96 Q -39.56 -7.48 -37.15 -10.08 Q -34.73 -12.68 -31.26 -14.2 Q -27.78 -15.72 -23.41 -15.72 Z M -23.22 -9 L -23.22 -9 Q -27.32 -9 -29.64 -6.68 Q -31.96 -4.36 -32.6 -0.1 L -32.6 -0.1 L -14.97 -0.1 Q -14.97 -1.93 -15.47 -3.54 Q -15.96 -5.16 -16.99 -6.37 Q -18.01 -7.59 -19.57 -8.29 Q -21.13 -9 -23.22 -9 Z M 26.37 -10.9 L 24.24 -7.51 Q 23.86 -6.91 23.45 -6.66 Q 23.03 -6.41 22.38 -6.41 L 22.38 -6.41 Q 21.7 -6.41 20.92 -6.79 Q 20.14 -7.17 19.11 -7.65 Q 18.09 -8.12 16.78 -8.5 Q 15.47 -8.88 13.68 -8.88 L 13.68 -8.88 Q 10.91 -8.88 9.31 -7.7 Q 7.71 -6.53 7.71 -4.63 L 7.71 -4.63 Q 7.71 -3.37 8.53 -2.52 Q 9.35 -1.66 10.7 -1.02 Q 12.05 -0.37 13.76 0.14 Q 15.47 0.66 17.25 1.26 Q 19.04 1.87 20.75 2.65 Q 22.46 3.43 23.81 4.63 Q 25.16 5.82 25.97 7.5 Q 26.79 9.17 26.79 11.52 L 26.79 11.52 Q 26.79 14.34 25.76 16.71 Q 24.74 19.09 22.76 20.82 Q 20.79 22.54 17.88 23.51 Q 14.97 24.48 11.21 24.48 L 11.21 24.48 Q 9.2 24.48 7.28 24.12 Q 5.36 23.76 3.59 23.11 Q 1.82 22.47 0.32 21.59 Q -1.18 20.72 -2.32 19.69 L -2.32 19.69 L -0.15 16.12 Q 0.27 15.48 0.84 15.13 Q 1.41 14.79 2.28 14.79 L 2.28 14.79 Q 3.15 14.79 3.93 15.29 Q 4.71 15.78 5.74 16.35 Q 6.76 16.92 8.15 17.41 Q 9.54 17.91 11.67 17.91 L 11.67 17.91 Q 13.34 17.91 14.53 17.51 Q 15.73 17.11 16.51 16.46 Q 17.29 15.82 17.65 14.96 Q 18.01 14.11 18.01 13.2 L 18.01 13.2 Q 18.01 11.83 17.19 10.95 Q 16.38 10.08 15.03 9.43 Q 13.68 8.79 11.95 8.28 Q 10.22 7.76 8.42 7.15 Q 6.61 6.55 4.88 5.73 Q 3.15 4.91 1.8 3.66 Q 0.46 2.4 -0.36 0.58 Q -1.18 -1.24 -1.18 -3.83 L -1.18 -3.83 Q -1.18 -6.22 -0.23 -8.39 Q 0.72 -10.55 2.56 -12.17 Q 4.41 -13.78 7.16 -14.75 Q 9.92 -15.72 13.53 -15.72 L 13.53 -15.72 Q 17.56 -15.72 20.86 -14.39 Q 24.17 -13.06 26.37 -10.9 L 26.37 -10.9 Z M 59.58 -10.9 L 57.46 -7.51 Q 57.08 -6.91 56.66 -6.66 Q 56.24 -6.41 55.59 -6.41 L 55.59 -6.41 Q 54.91 -6.41 54.13 -6.79 Q 53.35 -7.17 52.33 -7.65 Q 51.3 -8.12 49.99 -8.5 Q 48.68 -8.88 46.89 -8.88 L 46.89 -8.88 Q 44.12 -8.88 42.52 -7.7 Q 40.93 -6.53 40.93 -4.63 L 40.93 -4.63 Q 40.93 -3.37 41.74 -2.52 Q 42.56 -1.66 43.91 -1.02 Q 45.26 -0.37 46.97 0.14 Q 48.68 0.66 50.46 1.26 Q 52.25 1.87 53.96 2.65 Q 55.67 3.43 57.02 4.63 Q 58.37 5.82 59.18 7.5 Q 60 9.17 60 11.52 L 60 11.52 Q 60 14.34 58.98 16.71 Q 57.95 19.09 55.97 20.82 Q 54 22.54 51.09 23.51 Q 48.18 24.48 44.42 24.48 L 44.42 24.48 Q 42.41 24.48 40.49 24.12 Q 38.57 23.76 36.8 23.11 Q 35.04 22.47 33.53 21.59 Q 32.03 20.72 30.89 19.69 L 30.89 19.69 L 33.06 16.12 Q 33.48 15.48 34.05 15.13 Q 34.62 14.79 35.49 14.79 L 35.49 14.79 Q 36.37 14.79 37.14 15.29 Q 37.92 15.78 38.95 16.35 Q 39.98 16.92 41.36 17.41 Q 42.75 17.91 44.88 17.91 L 44.88 17.91 Q 46.55 17.91 47.75 17.51 Q 48.94 17.11 49.72 16.46 Q 50.5 15.82 50.86 14.96 Q 51.22 14.11 51.22 13.2 L 51.22 13.2 Q 51.22 11.83 50.41 10.95 Q 49.59 10.08 48.24 9.43 Q 46.89 8.79 45.16 8.28 Q 43.43 7.76 41.63 7.15 Q 39.82 6.55 38.09 5.73 Q 36.37 4.91 35.02 3.66 Q 33.67 2.4 32.85 0.58 Q 32.03 -1.24 32.03 -3.83 L 32.03 -3.83 Q 32.03 -6.22 32.98 -8.39 Q 33.93 -10.55 35.78 -12.17 Q 37.62 -13.78 40.37 -14.75 Q 43.13 -15.72 46.74 -15.72 L 46.74 -15.72 Q 50.77 -15.72 54.07 -14.39 Q 57.38 -13.06 59.58 -10.9 L 59.58 -10.9 Z M 100.05 -31.68 L 100.05 -31.68 Q 103.85 -31.68 107.01 -30.56 Q 110.16 -29.44 112.4 -27.39 Q 114.65 -25.34 115.9 -22.45 Q 117.15 -19.56 117.15 -16.03 L 117.15 -16.03 Q 117.15 -12.99 116.26 -10.4 Q 115.37 -7.82 113.87 -5.46 Q 112.37 -3.11 110.35 -0.9 Q 108.34 1.3 106.13 3.58 L 106.13 3.58 L 93.75 16.24 Q 95.57 15.7 97.32 15.42 Q 99.07 15.13 100.66 15.13 L 100.66 15.13 L 114.76 15.13 Q 116.28 15.13 117.17 15.99 Q 118.07 16.84 118.07 18.25 L 118.07 18.25 L 118.07 23.87 L 80.37 23.87 L 80.37 20.76 Q 80.37 19.81 80.77 18.78 Q 81.17 17.76 82.04 16.88 L 82.04 16.88 L 98.72 0.16 Q 100.81 -1.97 102.47 -3.9 Q 104.12 -5.84 105.24 -7.74 Q 106.36 -9.64 106.95 -11.6 Q 107.54 -13.56 107.54 -15.72 L 107.54 -15.72 Q 107.54 -17.7 106.97 -19.2 Q 106.4 -20.7 105.34 -21.73 Q 104.27 -22.75 102.81 -23.26 Q 101.35 -23.78 99.52 -23.78 L 99.52 -23.78 Q 96.14 -23.78 93.95 -22.07 Q 91.77 -20.36 90.9 -17.47 L 90.9 -17.47 Q 90.48 -16.03 89.64 -15.4 Q 88.81 -14.77 87.51 -14.77 L 87.51 -14.77 Q 86.94 -14.77 86.26 -14.89 L 86.26 -14.89 L 81.32 -15.76 Q 81.89 -19.71 83.52 -22.69 Q 85.16 -25.68 87.61 -27.67 Q 90.06 -29.67 93.23 -30.67 Q 96.41 -31.68 100.05 -31.68 Z M 163.44 -3.6 L 163.44 -3.6 Q 163.44 3.58 161.9 8.88 Q 160.36 14.18 157.64 17.64 Q 154.93 21.1 151.22 22.79 Q 147.52 24.48 143.22 24.48 L 143.22 24.48 Q 138.93 24.48 135.26 22.79 Q 131.59 21.1 128.9 17.64 Q 126.2 14.18 124.68 8.88 Q 123.16 3.58 123.16 -3.6 L 123.16 -3.6 Q 123.16 -10.82 124.68 -16.1 Q 126.2 -21.38 128.9 -24.84 Q 131.59 -28.3 135.26 -29.99 Q 138.93 -31.68 143.22 -31.68 L 143.22 -31.68 Q 147.52 -31.68 151.22 -29.99 Q 154.93 -28.3 157.64 -24.84 Q 160.36 -21.38 161.9 -16.1 Q 163.44 -10.82 163.44 -3.6 Z M 153.75 -3.6 L 153.75 -3.6 Q 153.75 -9.57 152.87 -13.48 Q 152 -17.39 150.54 -19.71 Q 149.07 -22.03 147.17 -22.96 Q 145.27 -23.89 143.22 -23.89 L 143.22 -23.89 Q 141.21 -23.89 139.33 -22.96 Q 137.45 -22.03 136 -19.71 Q 134.56 -17.39 133.7 -13.48 Q 132.85 -9.57 132.85 -3.6 L 132.85 -3.6 Q 132.85 2.37 133.7 6.28 Q 134.56 10.19 136 12.51 Q 137.45 14.83 139.33 15.76 Q 141.21 16.69 143.22 16.69 L 143.22 16.69 Q 145.27 16.69 147.17 15.76 Q 149.07 14.83 150.54 12.51 Q 152 10.19 152.87 6.28 Q 153.75 2.37 153.75 -3.6 Z M 188.21 -31.68 L 188.21 -31.68 Q 192.01 -31.68 195.17 -30.56 Q 198.32 -29.44 200.56 -27.39 Q 202.81 -25.34 204.06 -22.45 Q 205.31 -19.56 205.31 -16.03 L 205.31 -16.03 Q 205.31 -12.99 204.42 -10.4 Q 203.53 -7.82 202.03 -5.46 Q 200.53 -3.11 198.51 -0.9 Q 196.5 1.3 194.29 3.58 L 194.29 3.58 L 181.91 16.24 Q 183.73 15.7 185.48 15.42 Q 187.23 15.13 188.82 15.13 L 188.82 15.13 L 202.92 15.13 Q 204.44 15.13 205.33 15.99 Q 206.23 16.84 206.23 18.25 L 206.23 18.25 L 206.23 23.87 L 168.53 23.87 L 168.53 20.76 Q 168.53 19.81 168.93 18.78 Q 169.33 17.76 170.2 16.88 L 170.2 16.88 L 186.88 0.16 Q 188.97 -1.97 190.63 -3.9 Q 192.28 -5.84 193.4 -7.74 Q 194.52 -9.64 195.11 -11.6 Q 195.7 -13.56 195.7 -15.72 L 195.7 -15.72 Q 195.7 -17.7 195.13 -19.2 Q 194.56 -20.7 193.5 -21.73 Q 192.43 -22.75 190.97 -23.26 Q 189.51 -23.78 187.68 -23.78 L 187.68 -23.78 Q 184.3 -23.78 182.11 -22.07 Q 179.93 -20.36 179.06 -17.47 L 179.06 -17.47 Q 178.64 -16.03 177.8 -15.4 Q 176.97 -14.77 175.67 -14.77 L 175.67 -14.77 Q 175.1 -14.77 174.42 -14.89 L 174.42 -14.89 L 169.48 -15.76 Q 170.05 -19.71 171.68 -22.69 Q 173.32 -25.68 175.77 -27.67 Q 178.22 -29.67 181.39 -30.67 Q 184.57 -31.68 188.21 -31.68 Z M 219.64 23.87 L 219.64 16.84 L 230.77 16.84 L 230.77 -15.19 Q 230.77 -17.05 230.89 -19.1 L 230.89 -19.1 L 222.98 -12.49 Q 222.49 -12.07 221.98 -11.92 Q 221.46 -11.77 220.97 -11.77 L 220.97 -11.77 Q 220.21 -11.77 219.58 -12.09 Q 218.96 -12.42 218.65 -12.83 L 218.65 -12.83 L 215.69 -16.9 L 232.45 -31.15 L 240.16 -31.15 L 240.16 16.84 L 250.04 16.84 L 250.04 23.87 L 219.64 23.87 Z" stroke-linecap="round"/>
</g>
</svg>