<svg xmlns="http://www.w3.org/2000/svg" xmlns:xlink="http://www.w3.org/1999/xlink" version="1.1" width="1000" height="1000" viewBox="0 0 1000 1000" xml:space="preserve">
<desc>Created with Fabric.js 3.5.0</desc>
<defs>
</defs>
<rect x="0" y="0" width="100%" height="100%" fill="rgba(255,255,255,0)"/>
<g transform="matrix(2.2424 0 0 1.5265 496.6916 483.1027)" id="852709">
<g style="" vector-effect="non-scaling-stroke">
		<g transform="matrix(1 0 0 1 -7.1322 95.2752)" id="Background Shape">
<path style="stroke: none; stroke-width: 1; stroke-dasharray: none; stroke-linecap: butt; stroke-dashoffset: 0; stroke-linejoin: miter; stroke-miterlimit: 4; is-custom-font: none; font-file-url: none; fill: rgb(242,242,242); fill-rule: evenodd; opacity: 0.2545;" transform=" translate(-214.3678, -283.2752)" d="M 408.251 302.173 C 413.908 344.518 276.709 372.138 158.619 352.862 C 40.5285 333.587 -13.6457 258.314 42.705 218.206 C 99.0557 178.097 402.593 259.828 408.251 302.173 Z" stroke-linecap="round"/>
</g>
		<g transform="matrix(1 0 0 1 69.7723 -6.8388)" id="Leaf Bottom">
<path style="stroke: none; stroke-width: 1; stroke-dasharray: none; stroke-linecap: butt; stroke-dashoffset: 0; stroke-linejoin: miter; stroke-miterlimit: 4; is-custom-font: none; font-file-url: none; fill: rgb(242,242,242); fill-rule: evenodd; opacity: 1;" transform=" translate(-291.2723, -181.1612)" d="M 241.444 106.493 C 238.418 104.991 234.384 106.733 236.067 110.702 C 237.869 114.953 244.534 115.005 248.299 114.921 C 247.922 114.901 246.709 111.003 246.293 110.414 C 245.068 108.677 243.305 107.417 241.444 106.493 Z M 276.311 182.704 C 277.075 183.358 276.374 182.766 276.311 182.704 V 182.704 Z M 238.529 125.719 C 236.758 127.074 236.674 129.465 238.12 131.084 C 239.843 133.011 242.988 132.941 245.336 132.753 C 246.398 132.668 252.069 132.214 250.725 131.285 C 250.828 131.324 251.044 131.419 251.275 131.548 C 251.4 132.003 251.53 132.456 251.666 132.907 C 251.633 132.927 251.605 132.948 251.569 132.967 C 251.608 132.95 251.635 132.932 251.669 132.915 C 253.032 137.423 254.974 141.716 257.516 145.733 C 256.564 145.358 255.579 145.074 254.58 144.948 C 251.622 144.574 245.398 146.874 248.708 150.816 C 251.881 154.595 256.821 150.541 260.422 149.982 C 263.915 154.86 267.766 159.535 271.802 164.054 C 271.555 164.131 271.338 164.293 271.214 164.544 C 269.595 163.722 267.907 162.546 266.409 162.228 C 264.246 161.769 259.812 161.491 258.178 163.428 C 256.168 165.81 258.322 167.744 260.697 168.201 C 264.141 168.863 268.649 167.18 271.963 166.042 C 272.342 166.109 272.756 165.998 273.003 165.695 C 273.076 165.671 273.149 165.647 273.22 165.624 C 277.308 170.121 281.551 174.469 285.769 178.723 C 285.724 178.72 285.679 178.717 285.633 178.715 C 284.532 177.993 283.352 177.4 282.073 177.09 C 279.114 176.368 275.632 176.365 273.231 178.507 C 270.839 180.641 269.991 184.372 272.466 186.767 C 277.419 191.563 284.718 180.629 287.216 180.173 C 291.503 184.45 296.035 188.445 300.638 192.361 C 300.115 192.201 299.579 192.084 299.025 192.032 C 294.511 191.599 283.915 197.137 289.455 202.586 C 294.283 207.334 299.871 198.195 303.761 194.999 C 308.099 198.648 312.461 202.272 316.7 206.038 C 314.388 205.423 312.154 205.333 309.675 206.082 C 307.111 206.859 302.972 208.797 304.593 212.262 C 306.242 215.785 311.212 214.182 313.8 213.063 C 315.212 212.453 318.042 210.394 320.527 209.526 C 327.292 215.917 333.151 222.956 337.587 231.248 C 340.356 236.425 342.458 241.956 343.937 247.641 C 344.881 251.27 346.742 257.364 346.369 262.087 C 348.144 252.633 344.935 241.28 341.477 232.83 C 338.298 225.06 333.54 218.239 327.967 212.099 C 329.365 207.89 341.137 201.819 334.099 197.908 C 330.362 195.841 326.535 199.272 325.718 202.905 C 325.157 205.402 326.012 208.54 326.919 210.963 C 325.166 209.092 323.343 207.28 321.465 205.529 C 318.87 203.108 316.212 200.758 313.529 198.438 C 317.951 194.281 322.135 182.4 316.207 180.456 C 307.453 177.595 311.668 193.802 312.279 196.84 C 312.452 196.85 312.587 196.798 312.687 196.685 C 312.638 196.963 312.58 197.261 312.511 197.561 C 307.376 193.142 302.165 188.811 297.125 184.287 C 297.579 183.951 298.301 182.668 298.868 181.985 C 300.148 180.445 301.373 178.837 302.269 177.036 C 303.683 174.19 305.047 169.649 301.298 167.975 C 297.221 166.151 295.284 171.286 295.256 174.349 C 295.236 176.468 295.813 178.48 296.113 180.557 C 296.207 181.205 295.845 184.124 296.727 182.868 C 296.686 183.331 296.68 183.667 296.7 183.904 C 295.795 183.088 294.898 182.263 294.006 181.432 C 294.047 181.327 294.077 181.212 294.084 181.08 C 294.132 180.167 293.214 179.815 292.57 180.082 C 291.393 178.963 290.227 177.829 289.082 176.673 C 286.656 174.224 284.194 171.705 281.749 169.133 C 282.28 168.677 282.069 168.045 282.565 167.561 C 283.06 167.078 284.035 166.811 284.618 166.363 C 286.082 165.234 287.297 163.589 288.175 161.97 C 289.626 159.295 291.5 153.685 287.263 152.41 C 282.897 151.094 280.68 156.495 280.399 159.872 C 280.345 160.526 280.834 166.42 281.209 168.561 C 276.685 163.779 272.236 158.819 268.206 153.772 C 269.428 153.761 272.893 151.255 273.593 150.571 C 275.302 148.904 278.019 145.219 275.023 143.269 C 272.359 141.539 269.075 144.044 267.935 146.479 C 267.748 146.88 267.088 150.611 267.036 152.285 C 265.368 150.145 263.776 147.992 262.296 145.832 C 261.308 144.397 260.386 142.923 259.522 141.418 C 259.73 141.3 259.926 141.094 260.11 140.839 C 264.554 140.084 270.219 133.146 265 130.733 C 262.515 129.585 259.82 131.954 258.602 133.894 C 258.353 134.291 257.949 136.286 257.62 137.86 C 255.137 132.873 253.239 127.594 251.794 122.182 C 252.181 122.086 252.508 121.79 252.552 121.282 C 254.709 120.051 256.413 119.026 257.919 116.659 C 258.854 115.189 260.539 111.831 257.79 111.015 C 254.213 109.954 251.965 115.421 251.673 118.115 C 251.639 118.427 251.64 119.336 251.652 120.17 C 251.527 120.153 251.402 120.155 251.279 120.176 C 250.457 116.825 249.801 113.43 249.28 110.03 C 251.232 109.401 251.57 99.1396 250.27 97.6784 C 247.364 94.4068 245.313 99.1328 245.469 101.631 C 245.652 104.576 246.986 107.255 248.574 109.633 C 248.744 109.884 248.695 109.872 248.74 109.521 C 248.764 109.695 248.822 109.823 248.908 109.915 C 248.826 111.466 248.666 113.053 248.743 114.425 C 248.963 118.353 249.42 122.305 250.084 126.183 C 250.246 127.126 250.431 128.062 250.638 128.989 C 249.069 127.651 246.953 126.462 246.125 126.091 C 243.976 125.127 240.664 124.086 238.529 125.719 Z M 346.621 262.1 C 346.521 263.47 346.274 264.724 345.813 265.759 C 346.159 264.581 346.424 263.357 346.621 262.1 Z" stroke-linecap="round"/>
</g>
		<g transform="matrix(1 0 0 1 -128.3475 -109.9061)" id="Leaf Top">
<path style="stroke: none; stroke-width: 1; stroke-dasharray: none; stroke-linecap: butt; stroke-dashoffset: 0; stroke-linejoin: miter; stroke-miterlimit: 4; is-custom-font: none; font-file-url: none; fill: rgb(193,222,226); fill-rule: evenodd; opacity: 0.2;" transform=" translate(-93.1525, -78.0939)" d="M 129.412 24.1335 C 131.574 23.0609 134.455 24.3048 133.253 27.1402 C 131.965 30.1764 127.205 30.214 124.516 30.1538 C 124.785 30.1397 125.652 27.3554 125.948 26.9346 C 126.823 25.6935 128.083 24.794 129.412 24.1335 Z M 104.523 79.4562 C 103.76 80.1094 104.461 79.5175 104.523 79.4562 V 79.4562 Z M 131.924 38.2304 C 133.217 39.2092 133.278 40.9386 132.221 42.1097 C 130.962 43.504 128.666 43.4544 126.952 43.3195 C 126.176 43.2583 122.036 42.9319 123.017 42.2599 C 122.942 42.2882 122.784 42.3569 122.615 42.4502 C 122.525 42.779 122.429 43.1067 122.329 43.4329 C 122.354 43.447 122.375 43.4622 122.401 43.4762 C 122.372 43.464 122.353 43.4507 122.328 43.4383 C 121.33 46.6991 119.911 49.8041 118.054 52.7092 C 118.749 52.4379 119.468 52.2324 120.197 52.1408 C 122.358 51.8689 126.901 53.5302 124.483 56.3816 C 122.165 59.1152 118.56 56.1856 115.93 55.7827 C 113.378 59.3115 110.564 62.6935 107.616 65.9626 C 107.796 66.0186 107.955 66.1353 108.046 66.317 C 109.228 65.722 110.46 64.8711 111.555 64.6403 C 113.134 64.3078 116.371 64.105 117.564 65.5049 C 119.031 67.2263 117.457 68.6259 115.723 68.957 C 113.208 69.4373 109.917 68.2215 107.498 67.4002 C 107.221 67.4488 106.919 67.3688 106.739 67.1495 C 106.685 67.1321 106.632 67.1151 106.58 67.0985 C 103.594 70.3517 100.494 73.4976 97.4127 76.5746 C 97.4455 76.5729 97.4783 76.5709 97.5125 76.5691 C 98.3161 76.0465 99.1779 75.6177 100.112 75.3928 C 102.273 74.8698 104.815 74.866 106.568 76.4144 C 108.313 77.9561 108.931 80.6538 107.123 82.3869 C 103.504 85.8561 98.1798 77.9529 96.3557 77.6238 C 93.2245 80.718 89.9139 83.609 86.5512 86.4418 C 86.933 86.3264 87.3245 86.2416 87.7291 86.2033 C 91.0252 85.8889 98.7595 89.8894 94.7125 93.8313 C 91.1858 97.2664 87.1094 90.6603 84.2699 88.3508 C 81.1012 90.9911 77.9153 93.6133 74.8187 96.3376 C 76.507 95.8925 78.1385 95.8263 79.9479 96.3673 C 81.8202 96.9279 84.841 98.3275 83.656 100.834 C 82.4507 103.382 78.8229 102.225 76.9335 101.417 C 75.903 100.976 73.8372 99.4879 72.023 98.8616 C 67.0816 103.485 62.8009 108.577 59.559 114.575 C 57.5351 118.319 55.9987 122.32 54.9166 126.431 C 54.2259 129.055 52.8653 133.463 53.1355 136.877 C 51.8429 130.042 54.1907 121.831 56.7184 115.72 C 59.0426 110.1 62.5191 105.166 66.5905 100.725 C 65.5709 97.6816 56.9783 93.2961 62.1179 90.4657 C 64.8471 88.9692 67.6404 91.4487 68.2355 94.0759 C 68.6442 95.8812 68.019 98.1502 67.3557 99.903 C 68.6364 98.549 69.9678 97.2385 71.3397 95.9714 C 73.2356 94.2202 75.1768 92.5198 77.1367 90.8408 C 73.9101 87.8371 70.8594 79.247 75.1884 77.8396 C 81.5808 75.7674 78.4974 87.4883 78.0504 89.685 C 77.9238 89.6924 77.8251 89.6546 77.7526 89.5734 C 77.7884 89.7745 77.83 89.9896 77.8804 90.2064 C 81.6315 87.0096 85.4381 83.8756 89.1193 80.6024 C 88.788 80.3598 88.2614 79.4322 87.8474 78.9385 C 86.9132 77.8257 86.0194 76.6632 85.3664 75.3611 C 84.335 73.3034 83.3408 70.021 86.0785 68.809 C 89.0558 67.4885 90.4684 71.2008 90.488 73.4158 C 90.5014 74.9478 90.0797 76.4033 89.8596 77.9049 C 89.7908 78.3733 90.0537 80.4841 89.4104 79.5763 C 89.4406 79.9111 89.4448 80.1536 89.4297 80.3255 C 90.0906 79.735 90.7464 79.138 91.3981 78.5367 C 91.368 78.4609 91.3456 78.3781 91.3406 78.2822 C 91.306 77.6219 91.9767 77.3672 92.4468 77.5604 C 93.3067 76.7505 94.1583 75.9304 94.9946 75.0941 C 96.7672 73.3223 98.5655 71.4999 100.351 69.6387 C 99.9643 69.3092 100.119 68.8526 99.7565 68.5027 C 99.3951 68.1537 98.6831 67.9609 98.2581 67.6367 C 97.1891 66.8209 96.3029 65.632 95.6621 64.4618 C 94.6043 62.5283 93.238 58.4718 96.3317 57.5484 C 99.5204 56.5952 101.137 60.4999 101.34 62.9415 C 101.38 63.4145 101.021 67.677 100.746 69.2248 C 104.051 65.7659 107.301 62.1773 110.246 58.5264 C 109.354 58.5187 106.825 56.7082 106.313 56.2141 C 105.066 55.0088 103.084 52.3453 105.272 50.9342 C 107.218 49.6826 109.615 51.4928 110.446 53.2528 C 110.583 53.5426 111.063 56.2404 111.1 57.4509 C 112.319 55.9027 113.482 54.3455 114.564 52.7832 C 115.285 51.7446 115.96 50.6785 116.59 49.5899 C 116.439 49.5047 116.296 49.3561 116.161 49.1714 C 112.917 48.6274 108.783 43.6129 112.595 41.8655 C 114.41 41.0347 116.377 42.7469 117.265 44.149 C 117.447 44.4359 117.741 45.8784 117.98 47.0163 C 119.796 43.4098 121.184 39.592 122.24 35.6777 C 121.958 35.6083 121.719 35.3947 121.687 35.0269 C 120.113 34.1378 118.869 33.3974 117.771 31.6867 C 117.088 30.6241 115.859 28.1962 117.866 27.6052 C 120.479 26.8363 122.118 30.7893 122.33 32.7366 C 122.355 32.9627 122.354 33.6201 122.345 34.2226 C 122.436 34.2103 122.527 34.2117 122.617 34.2274 C 123.218 31.8036 123.699 29.3488 124.081 26.8898 C 122.655 26.4358 122.412 19.0158 123.362 17.9588 C 125.485 15.5919 126.981 19.0086 126.866 20.8148 C 126.731 22.9445 125.757 24.8823 124.596 26.6022 C 124.472 26.7843 124.507 26.7755 124.475 26.5218 C 124.457 26.6472 124.415 26.7398 124.352 26.8068 C 124.411 27.9278 124.527 29.0755 124.471 30.0675 C 124.309 32.9083 123.973 35.7658 123.487 38.5702 C 123.369 39.2523 123.233 39.9288 123.082 40.5995 C 124.228 39.6314 125.774 38.771 126.378 38.5019 C 127.948 37.8042 130.366 37.0504 131.924 38.2304 Z M 52.8788 136.608 C 52.9545 137.521 53.1795 138.354 53.6224 139.036 C 53.2973 138.256 53.0534 137.444 52.8788 136.608 Z" stroke-linecap="round"/>
</g>
		<g transform="matrix(1 0 0 1 98.8948 81.9635)" id="Leaf Me Alone!">
<path style="stroke: none; stroke-width: 1; stroke-dasharray: none; stroke-linecap: butt; stroke-dashoffset: 0; stroke-linejoin: miter; stroke-miterlimit: 4; is-custom-font: none; font-file-url: none; fill: rgb(105,161,172); fill-rule: evenodd; opacity: 0.49;" transform=" translate(-320.3948, -269.9634)" d="M 300.31 199.282 C 308.715 198.846 319.109 203.755 320.005 212.896 C 320.657 219.539 320.455 226.162 321.463 232.794 C 322.269 238.095 323.974 243.183 326.299 248.012 C 328.535 252.655 333.172 256.607 334.378 261.567 C 335.147 264.727 334.717 269.173 333.657 272.265 C 332.367 276.024 333.053 275.726 335.622 278.88 C 340.656 285.061 345.189 291.399 348.394 298.781 C 353.012 309.413 356.039 321.842 354.325 333.48 C 354.107 334.958 353.849 340.262 351.815 340.633 C 349.543 341.047 350.605 338.014 350.727 337.034 C 351.5 330.782 352.186 325.317 351.254 318.967 C 347.657 294.468 330.093 278.326 318.656 257.533 C 318.027 256.461 316.7 253.907 315.777 252.223 C 314.32 249.563 312.856 244.503 310.883 242.531 C 307.169 238.816 310.584 246.284 311.308 247.71 C 312.223 249.514 313.229 251.431 314.167 253.011 C 318.458 260.336 323.248 268.333 327.679 275.884 C 308.513 280.254 295.015 257.197 289.872 242.039 C 285.634 229.55 280.564 200.351 300.31 199.282 Z" stroke-linecap="round"/>
</g>
		<g transform="matrix(1 0 0 1 174.6474 78.5696)" id="Leaf Me Alone!_2">
<path style="stroke: none; stroke-width: 1; stroke-dasharray: none; stroke-linecap: butt; stroke-dashoffset: 0; stroke-linejoin: miter; stroke-miterlimit: 4; is-custom-font: none; font-file-url: none; fill: rgb(137,197,204); fill-rule: evenodd; opacity: 0.49;" transform=" translate(-396.1475, -266.5696)" d="M 412.957 176.09 C 398.907 177.205 389.887 186.482 385.689 199.458 C 383.426 206.451 383.166 213.634 381.909 220.82 C 380.017 231.632 375.947 239.825 367.992 247.528 C 365.528 249.913 363.712 252.362 362.422 254.983 C 359.859 257.599 357.629 260.56 355.99 264.179 C 353.897 268.802 353.305 274.349 355.722 278.957 C 356.371 280.196 357.992 282.683 359.672 283.813 C 353.383 297.218 349.924 311.899 350.314 326.561 C 350.55 335.411 350.981 344.266 351.485 353.106 C 351.621 355.479 352.393 359.399 353.554 355.418 C 354.615 351.777 353.284 346.061 353.161 342.257 C 352.561 323.727 352.048 306.879 359.671 289.566 C 360.471 287.751 361.318 285.951 362.201 284.166 C 362.253 284.136 362.301 284.1 362.35 284.064 C 362.383 284.09 362.414 284.118 362.447 284.144 C 362.504 284.043 362.581 283.923 362.671 283.789 C 362.924 283.528 363.145 283.198 363.356 282.829 C 364.032 281.891 364.797 280.79 364.801 280.187 C 364.801 280.182 364.798 280.175 364.798 280.17 C 369.518 272.462 374.923 265.178 380.444 258.037 C 380.402 258.089 386.432 249.874 385.5 254.417 C 385.05 256.606 380.615 260.776 378.824 263.095 C 374.861 268.255 370.208 274.792 366.341 281.114 C 365.82 281.413 365.085 282.882 364.554 283.976 C 364.26 284.531 363.986 285.09 363.717 285.577 C 377.419 290.106 388.077 280.982 395.345 270.369 C 395.354 270.356 395.361 270.343 395.37 270.331 C 397.581 267.398 399.847 264.486 402.677 262.168 C 407.399 258.3 412.457 257.618 418.024 255.714 C 433.207 250.523 439.663 230.833 441.713 216.222 C 444.026 199.739 432.711 174.464 412.957 176.09 Z" stroke-linecap="round"/>
</g>
		<g transform="matrix(1 0 0 1 146.2556 37.5054)" id="Leaf Me Alone!_3">
<path style="stroke: none; stroke-width: 1; stroke-dasharray: none; stroke-linecap: butt; stroke-dashoffset: 0; stroke-linejoin: miter; stroke-miterlimit: 4; is-custom-font: none; font-file-url: none; fill: rgb(137,197,204); fill-rule: evenodd; opacity: 0.49;" transform=" translate(-367.7556, -225.5054)" d="M 385.204 129.931 C 370.784 144.949 363.817 165.779 358.301 185.361 C 352.14 207.232 348.07 229.441 347.914 252.181 C 347.811 267.121 347.405 282.154 348.277 297.077 C 348.586 302.376 349.114 307.685 349.953 312.928 C 350.022 313.359 351.901 325.065 353.698 322.337 C 354.72 320.786 351.773 310.194 351.55 308.43 C 350.297 298.493 350.006 288.483 350.067 278.474 C 350.167 261.996 349.682 245.601 351.351 229.183 C 351.6 226.732 351.797 224.157 352.379 221.759 C 352.996 219.21 352.21 220.323 354.222 219.313 C 356.177 218.332 358.594 218.472 360.623 217.241 C 368.67 212.358 372.787 199.815 375.991 191.585 C 379.656 182.174 381.883 172.138 383.662 162.234 C 384.968 154.957 385.902 147.724 386.431 140.354 C 386.597 138.031 386.607 135.602 387.064 133.318 C 387.186 132.702 387.803 131.612 387.781 131.066 C 387.733 129.911 387.037 129.232 386.98 128.262 C 386.376 128.805 385.784 129.362 385.204 129.931 Z" stroke-linecap="round"/>
</g>
		<g transform="matrix(1 0 0 1 130.0155 164.504)" id="Base">
<path style="stroke: none; stroke-width: 1; stroke-dasharray: none; stroke-linecap: butt; stroke-dashoffset: 0; stroke-linejoin: miter; stroke-miterlimit: 4; is-custom-font: none; font-file-url: none; fill: rgb(137,197,204); fill-rule: evenodd; opacity: 0.49;" transform=" translate(-351.5155, -352.504)" d="M 306.576 330.019 C 306.576 354.855 326.696 374.989 351.516 374.989 C 376.335 374.989 396.455 354.855 396.455 330.019" stroke-linecap="round"/>
</g>
		<g transform="matrix(1 0 0 1 162.0278 130.6227)" id="Leaf Me Alone!_4">
<path style="stroke: none; stroke-width: 1; stroke-dasharray: none; stroke-linecap: butt; stroke-dashoffset: 0; stroke-linejoin: miter; stroke-miterlimit: 4; is-custom-font: none; font-file-url: none; fill: rgb(105,161,172); fill-rule: evenodd; opacity: 0.49;" transform=" translate(-383.5278, -318.6227)" d="M 355.121 330.162 H 352.747 C 352.912 327.181 353.129 324.205 353.627 321.257 C 355.532 309.982 361.489 293.422 374.552 291.592 C 375.034 291.524 376.807 291.513 378.954 291.639 C 379.972 291.07 381.112 290.726 382.313 290.646 C 393.436 289.826 405.857 298.805 411.222 308.149 C 415.547 315.682 414.818 325.575 412.147 333.578 C 410.358 338.937 406.454 346.577 399.943 346.651 C 391.797 346.744 391.404 336.67 391.247 330.781 C 391.037 322.951 390.049 316.13 383.883 310.793 C 382.446 309.55 380.875 308.456 379.424 307.23 C 377.151 305.311 374.639 303.346 374.346 300.171 C 373.942 295.791 376.413 295.003 380.185 295.816 C 380.829 295.955 387.307 298.864 386.348 296.564 C 386.055 295.862 384.985 295.306 383.635 294.889 C 380.142 294.508 375.976 294.067 374.778 294.331 C 361.853 297.168 356.82 315.084 355.484 326.467 C 355.34 327.695 355.223 328.928 355.121 330.162 Z" stroke-linecap="round"/>
</g>
		<g transform="matrix(1 0 0 1 -125.4641 34.5245)" id="Leaf">
<path style="stroke: none; stroke-width: 1; stroke-dasharray: none; stroke-linecap: butt; stroke-dashoffset: 0; stroke-linejoin: miter; stroke-miterlimit: 4; is-custom-font: none; font-file-url: none; fill: rgb(105,161,172); fill-rule: evenodd; opacity: 0.25;" transform=" translate(-96.0359, -222.5244)" d="M 109.717 117.151 C 112.304 113.46 117.104 104.086 120.746 102.767 C 123.091 101.917 122.407 110.705 122.436 112.381 C 122.549 118.863 121.918 125.305 121.139 131.734 C 119.736 143.327 115.147 153.652 108.854 163.519 C 105.616 168.597 101.817 173.736 96.5563 176.904 C 94.1346 178.362 91.2208 178.607 88.8293 179.864 C 86.044 181.327 87.5608 180.144 86.3056 183.048 C 84.5625 187.081 84.0049 192.283 83.1984 196.585 C 79.4952 216.336 70.5299 320.745 72.0841 340.835 C 72.2221 342.616 69.7408 343.042 69.6169 340.868 C 68.9585 329.341 74.6558 249.52 77.5302 223.416 C 80.4045 197.311 83.3133 174.25 86.2299 165.219 C 89.7681 154.262 96.1584 141.086 101.478 130.868 C 103.949 126.121 106.642 121.538 109.717 117.151 Z" stroke-linecap="round"/>
</g>
		<g transform="matrix(1 0 0 1 -118.3846 111.5265)" id="Leaf_2">
<path style="stroke: none; stroke-width: 1; stroke-dasharray: none; stroke-linecap: butt; stroke-dashoffset: 0; stroke-linejoin: miter; stroke-miterlimit: 4; is-custom-font: none; font-file-url: none; fill: rgb(193,222,226); fill-rule: evenodd; opacity: 0.25;" transform=" translate(-103.1154, -299.5265)" d="M 128.918 245.18 C 135.65 240.235 142.937 249.568 136.845 254.514 C 133.478 257.248 129.957 256.276 127.975 253.997 C 126.688 255.567 125.484 257.208 124.327 258.594 C 120.802 262.817 117.469 267.141 114.285 271.566 C 107.67 280.759 102 290.471 96.0729 300.006 C 90.2232 309.416 84.4202 318.874 79.1181 328.523 C 74.6265 336.697 68.6397 346.314 67.1019 355.276 C 69.4352 336.27 78.2888 318.001 88.8319 301.245 C 99.2892 284.628 111.29 266.479 127.482 253.364 C 125.834 250.939 125.788 247.478 128.918 245.18 Z" stroke-linecap="round"/>
</g>
		<g transform="matrix(1 0 0 1 -186.7178 90.8901)" id="Leaf_3">
<path style="stroke: none; stroke-width: 1; stroke-dasharray: none; stroke-linecap: butt; stroke-dashoffset: 0; stroke-linejoin: miter; stroke-miterlimit: 4; is-custom-font: none; font-file-url: none; fill: rgb(105,161,172); fill-rule: evenodd; opacity: 0.25;" transform=" translate(-34.7822, -278.8901)" d="M 1.17779 198.827 C 4.94488 199.564 11.1003 208.091 14.2055 211.34 C 17.8958 215.201 21.2439 219.316 24.3998 223.628 C 31.1938 232.909 37.2699 242.776 42.4367 253.066 C 50.8598 269.841 57.6079 287.061 62.5052 305.328 C 65.5031 316.51 67.444 328.099 68.5944 339.608 C 68.8116 341.778 71.0857 358.512 67.8089 358.963 C 64.8617 359.369 65.772 346.257 65.6298 344.473 C 64.0227 324.351 59.208 304.772 52.511 285.805 C 51.0522 281.674 49.697 276.613 47.3642 272.895 C 45.6842 270.217 47.3521 271.151 44.3998 270.137 C 41.8648 269.267 38.9764 269.479 36.3805 268.414 C 30.7411 266.099 26.2255 261.607 22.2673 257.088 C 14.5751 248.306 8.47947 238.804 5.30206 227.551 C 3.53945 221.312 1.91971 215.036 1.02085 208.603 C 0.788328 206.941 -1.24856 198.352 1.17779 198.827 Z" stroke-linecap="round"/>
</g>
		<g transform="matrix(1 0 0 1 -181.4851 10.8077)" id="Leaf_4">
<path style="stroke: none; stroke-width: 1; stroke-dasharray: none; stroke-linecap: butt; stroke-dashoffset: 0; stroke-linejoin: miter; stroke-miterlimit: 4; is-custom-font: none; font-file-url: none; fill: rgb(137,197,204); fill-rule: evenodd; opacity: 0.25;" transform=" translate(-40.0149, -198.8077)" d="M 16.0437 56.9489 C 30.2336 81.5737 41.8942 108.624 49.4236 136.021 C 53.9855 152.621 57.1758 169.654 60.3456 186.565 C 65.2534 212.749 69.8957 238.932 71.2162 265.581 C 72.5447 292.385 75.1717 323.3 66.4006 349.116 C 70.7818 322.905 66.6106 295.006 65.8721 268.633 C 65.5192 256.043 64.4964 243.576 63.1548 231.059 C 61.8529 218.918 59.7259 206.834 57.7452 194.787 C 56.7803 188.921 55.767 183.063 54.7354 177.208 C 54.4274 175.461 54.2973 170.278 53.1899 169.085 C 52.0754 167.884 46.3892 167.394 44.6039 166.513 C 41.0091 164.737 37.6277 162.216 34.635 159.552 C 28.898 154.445 23.9072 147.771 19.968 141.193 C 10.8537 125.972 7.20982 107.397 7.394 89.7691 C 7.42939 86.3465 12.93 49.4913 10.7209 48.9838 C 10.8539 48.8279 10.9797 48.667 11.0983 48.4995 C 12.7708 51.3017 14.412 54.1228 16.0437 56.9489 Z" stroke-linecap="round"/>
</g>
		<g transform="matrix(1 0 0 1 -101.7633 65.0173)" id="Leaf_5">
<path style="stroke: none; stroke-width: 1; stroke-dasharray: none; stroke-linecap: butt; stroke-dashoffset: 0; stroke-linejoin: miter; stroke-miterlimit: 4; is-custom-font: none; font-file-url: none; fill: rgb(137,197,204); fill-rule: evenodd; opacity: 0.25;" transform=" translate(-119.7368, -253.0173)" d="M 169.199 145.761 C 169.418 145.445 170.843 143.247 170.125 143.388 C 171.587 143.102 168.116 145.811 171.756 144.149 C 170.028 145.782 171.025 147.904 171.048 150.103 C 171.086 153.672 170.489 157.212 169.817 160.705 C 168.756 166.226 167.174 171.594 164.879 176.729 C 159.876 187.92 151.38 198.693 141.295 205.69 C 136.316 209.144 131.436 210.32 125.757 211.91 C 122.171 212.915 121.886 214.772 119.982 218.255 C 116.018 225.509 112.125 232.737 108.63 240.236 C 104.455 249.19 100.403 258.155 96.5812 267.267 C 83.7047 297.96 73.2244 329.759 67.7205 362.668 C 67.5857 343.275 72.0691 323.302 77.7244 304.817 C 81.844 291.349 87.2068 278.367 92.9269 265.516 C 94.313 262.403 96.4134 258.398 97.0021 254.961 C 97.4142 252.552 96.1541 250.236 95.5772 247.699 C 93.328 237.82 93.489 226.752 95.4641 216.82 C 97.6419 205.868 103.94 200.784 114.594 199.233 C 118.49 198.666 123.442 198.874 127.015 197.211 C 130.907 195.401 132.513 189.451 134.726 185.631 C 140.671 175.37 147.735 165.53 155.846 156.885 C 158.092 154.491 160.507 152.282 163.069 150.235 C 164.685 148.943 168.098 147.352 169.199 145.761 Z" stroke-linecap="round"/>
</g>
		<g transform="matrix(1 0 0 1 -152.8592 170.6645)" id="Base_2">
<path style="stroke: none; stroke-width: 1; stroke-dasharray: none; stroke-linecap: butt; stroke-dashoffset: 0; stroke-linejoin: miter; stroke-miterlimit: 4; is-custom-font: none; font-file-url: none; fill: rgb(193,222,226); fill-rule: evenodd; opacity: 0.25;" transform=" translate(-68.6407, -358.6645)" d="M 49.7363 341.724 H 87.5456 C 89.2455 341.724 90.6236 343.103 90.6236 344.804 C 90.6236 344.954 90.6126 345.104 90.5907 345.253 L 87.6684 365.082 C 86.7775 371.126 81.5939 375.605 75.4878 375.605 H 61.7941 C 55.688 375.605 50.5044 371.126 49.6135 365.082 L 46.6912 345.253 C 46.4432 343.57 47.6055 342.005 49.2873 341.757 C 49.436 341.735 49.586 341.724 49.7363 341.724 Z" stroke-linecap="round"/>
</g>
		<g transform="matrix(1 0 0 1 -190.9375 175.7325)" id="Base_3">
<path style="stroke: none; stroke-width: 1; stroke-dasharray: none; stroke-linecap: butt; stroke-dashoffset: 0; stroke-linejoin: miter; stroke-miterlimit: 4; is-custom-font: none; font-file-url: none; fill: rgb(242,242,242); fill-rule: evenodd; opacity: 1;" transform=" translate(-30.5625, -363.7325)" d="M 15.6475 351.861 C 15.6475 364.974 16.6817 375.604 30.5625 375.604 C 44.4433 375.604 45.4775 364.974 45.4775 351.861" stroke-linecap="round"/>
</g>
		<g transform="matrix(1 0 0 1 -192.3406 158.9995)" id="Fill 27">
<path style="stroke: none; stroke-width: 1; stroke-dasharray: none; stroke-linecap: butt; stroke-dashoffset: 0; stroke-linejoin: miter; stroke-miterlimit: 4; is-custom-font: none; font-file-url: none; fill: rgb(242,242,242); fill-rule: evenodd; opacity: 1;" transform=" translate(-29.1595, -346.9994)" d="M 34.692 343.679 C 34.1831 344.559 33.7295 345.457 33.3287 346.369 C 33.3146 344.492 33.4183 342.601 33.7015 340.684 C 34.1857 337.401 34.9251 334.135 35.62 330.875 C 36.1194 328.531 36.0878 324.322 37.983 322.455 C 38.5027 322.051 38.6278 322.843 38.6278 323.187 C 38.6344 323.259 38.6264 321.784 38.1219 322.041 C 35.1235 323.591 34.152 328.463 33.192 330.903 C 31.7914 334.464 30.5998 338.104 30.1091 341.809 C 29.9851 342.744 29.9176 343.68 29.902 344.614 C 29.8001 344.364 29.7044 344.112 29.5985 343.864 C 27.8679 339.802 25.5324 335.839 22.6196 332.184 C 21.9026 331.285 12.8874 322.411 12.1816 323.769 C 12.2513 323.967 12.3971 324.13 12.6194 324.26 C 12.6324 324.275 12.6328 324.267 12.6252 324.245 C 13.1546 325.101 14.66 326.423 15.1289 327.173 C 16.309 329.06 17.2262 331.062 18.1582 333.027 C 20.1274 337.178 21.9541 341.372 23.7249 345.574 C 24.1373 346.553 24.567 347.526 25.0055 348.496 C 20.4857 341.973 14.4562 336.05 6.15614 332.66 C 8.99101 334.103 10.8496 336.819 12.7641 338.897 C 15.0731 341.405 17.505 343.845 19.8184 346.35 C 22.547 349.305 25.7576 352.416 28.3821 355.686 C 30.9243 361.027 33.3947 366.373 34.9197 371.988 C 34.2948 370.048 34.8707 367.367 34.7638 365.332 C 34.6789 363.711 34.4896 362.104 34.2303 360.5 C 34.5509 361.224 34.8272 361.948 34.9523 362.621 C 34.8381 361.491 34.7065 360.369 34.565 359.252 C 34.928 358.207 35.2845 357.232 35.5253 356.428 C 36.7594 352.306 38.2289 348.255 40.23 344.306 C 42.0818 340.654 44.2058 337.048 46.5203 333.552 C 47.5999 331.922 48.6944 330.298 49.782 328.672 C 50.4939 327.607 51.1717 325.902 52.1628 324.881 C 45.7562 330.742 38.7566 336.646 34.692 343.679 Z" stroke-linecap="round"/>
</g>
		<g transform="matrix(1 0 0 1 176.1695 -116.3005)" id="Leaf_6">
<path style="stroke: none; stroke-width: 1; stroke-dasharray: none; stroke-linecap: butt; stroke-dashoffset: 0; stroke-linejoin: miter; stroke-miterlimit: 4; is-custom-font: none; font-file-url: none; fill: rgb(242,242,242); fill-rule: evenodd; opacity: 1;" transform=" translate(-397.6695, -71.6995)" d="M 423.317 76.1139 C 421.48 69.9838 417.168 65.1859 412.692 60.7897 C 403.978 52.2315 399.291 46.94 396.186 34.4209 C 394.359 27.0581 392.5 19.2558 386.707 13.914 C 382.489 10.024 375.229 6.75569 369.588 9.54124 C 360.91 14.7244 358.58 25.3611 359.455 34.8856 C 360.54 46.6906 366.05 53.9696 376.637 58.3177 C 382.602 60.7665 386.567 63.9977 389.805 69.6281 C 392.395 74.1303 393.906 79.768 397.16 83.8494 C 402.027 89.9505 408.116 92.6627 415.622 91.6492 C 408.592 78.7058 400.377 65.6408 390.47 54.743 C 389.543 53.6474 384.073 49.4539 385.176 47.5867 C 386.391 45.5308 392.007 53.2537 391.967 53.207 C 394.846 56.5141 397.51 60.0284 400.127 63.5765 C 400.12 63.5799 400.112 63.5818 400.105 63.5855 C 402.799 67.2262 405.471 70.9206 408.092 74.6613 C 409.152 76.2436 410.184 77.8461 411.172 79.4889 C 412.621 81.8993 414.921 88.7407 417.293 90.2229 C 417.801 90.5398 418.27 90.7169 418.709 90.79 C 420.327 93.4415 421.902 96.1144 423.399 98.8188 C 427.31 105.882 430.667 113.34 432.208 121.314 C 432.658 123.642 432.34 132.348 433.927 134.028 C 436.83 137.102 435.98 131.183 435.806 129.397 C 434.364 114.604 429.057 102.002 421.351 89.5655 C 423.719 86.4718 424.06 78.5977 423.317 76.1139 Z" stroke-linecap="round"/>
</g>
		<g transform="matrix(1 0 0 1 135.6261 -96.5105)" id="Leaf_7">
<path style="stroke: none; stroke-width: 1; stroke-dasharray: none; stroke-linecap: butt; stroke-dashoffset: 0; stroke-linejoin: miter; stroke-miterlimit: 4; is-custom-font: none; font-file-url: none; fill: rgb(242,242,242); fill-rule: evenodd; opacity: 1;" transform=" translate(-357.1261, -91.4895)" d="M 323.893 83.2613 C 326.954 79.6532 334.31 79.041 338.81 79.2825 C 344.377 79.5813 350.096 80.9375 355.392 82.5774 C 364.118 85.2784 372.596 90.2076 380.281 94.9785 C 381.207 95.5533 392.616 102.419 391.606 103.624 C 390.606 104.818 379.406 96.6623 376.91 95.2566 C 371.583 92.2563 366.698 88.708 360.826 86.7266 C 354.747 84.6747 348.317 83.8622 341.924 83.9183 C 341.104 83.9256 338.428 83.3532 338.37 84.5678 C 338.313 85.7557 342.742 85.1359 343.523 85.1431 C 346.748 85.1727 349.993 85.4765 353.172 86.0358 C 359.129 87.0835 364.73 89.1944 369.832 92.432 C 368.408 95.7442 364.995 97.2715 361.415 96.4426 C 358.321 95.7258 355.305 93.9588 352.275 93.4478 C 350.189 93.096 348.099 93.3053 346.076 93.8935 C 340.739 95.4457 337.66 98.6254 331.792 96.4136 C 327.192 94.6797 319.498 88.4502 323.893 83.2613 Z" stroke-linecap="round"/>
</g>
		<g transform="matrix(1 0 0 1 88.4937 -145.9686)" id="Leaf Me Alone!_5">
<path style="stroke: none; stroke-width: 1; stroke-dasharray: none; stroke-linecap: butt; stroke-dashoffset: 0; stroke-linejoin: miter; stroke-miterlimit: 4; is-custom-font: none; font-file-url: none; fill: rgb(242,242,242); fill-rule: evenodd; opacity: 1;" transform=" translate(-309.9937, -42.0314)" d="M 327.355 49.1156 H 328.802 C 328.701 47.277 328.569 45.4414 328.258 43.6235 C 327.095 36.809 323.456 26.8003 315.474 25.6942 C 315.18 25.653 314.097 25.6461 312.785 25.7222 C 312.163 25.3783 311.467 25.1703 310.733 25.1225 C 303.938 24.6266 296.349 30.0534 293.071 35.7007 C 290.429 40.254 290.874 46.233 292.506 51.0704 C 293.599 54.309 295.984 58.9265 299.962 58.9715 C 304.939 59.0278 305.179 52.9389 305.275 49.3794 C 305.403 44.6471 306.007 40.5246 309.774 37.2989 C 310.652 36.5475 311.611 35.8864 312.498 35.1453 C 313.887 33.9855 315.421 32.7979 315.6 30.879 C 315.847 28.2317 314.338 27.7553 312.033 28.2472 C 311.64 28.3309 307.682 30.0889 308.268 28.6993 C 308.447 28.2748 309.1 27.9385 309.925 27.6864 C 312.059 27.4567 314.604 27.1902 315.336 27.3494 C 323.233 29.0643 326.308 39.8924 327.124 46.7721 C 327.216 47.5511 327.29 48.3327 327.355 49.1156 H 327.355 Z" stroke-linecap="round"/>
</g>
</g>
</g>
<g transform="matrix(1.358 0 0 1.358 18 264.808)" id="71716">
<path style="stroke: none; stroke-width: 0; stroke-dasharray: none; stroke-linecap: butt; stroke-dashoffset: 0; stroke-linejoin: miter; stroke-miterlimit: 4; is-custom-font: none; font-file-url: none; fill: rgb(0,175,161); fill-rule: evenodd; opacity: 1;" transform=" translate(0, 0)" d="M 176.384 91.583 c 0 -0.063 0 0 0 0 s -21.444 19.144 -48.244 43.103 h -22.559 a 6961.257 6961.257 0 170.803 -63.263 v 20.16" stroke-linecap="round"/>
</g>
<g transform="matrix(1.4978 0 0 1.4671 199.4899 431.1687)" id="912847">
<path style="stroke: none; stroke-width: 0; stroke-dasharray: none; stroke-linecap: butt; stroke-dashoffset: 0; stroke-linejoin: miter; stroke-miterlimit: 4; is-custom-font: none; font-file-url: none; fill: rgb(236,82,66); fill-rule: evenodd; opacity: 1;" transform=" translate(-208.1415, -124.9885)" d="M 248.375 159.675 c 0 0.061 0 0 0 0 s 21.44 -19.143 48.245 -43.096 h 22.552 c -37.138 33.67 -70.797 63.257 -70.797 63.257 v -20.161 M 97.111 134.521 v -33.442 L 209.513 0.627 L 208.17 249.35 l -26.289 -23.386 l 0.005 -167.278 s -51.497 46.091 -84.775 75.835" stroke-linecap="round"/>
</g>
<g transform="matrix(0.9144 0 0 0.9144 214.4001 565.4231)" id="94425">
<path style="stroke: none; stroke-width: 0; stroke-dasharray: none; stroke-linecap: butt; stroke-dashoffset: 0; stroke-linejoin: miter; stroke-miterlimit: 4; is-custom-font: none; font-file-url: none; fill: rgb(39,42,49); fill-rule: evenodd; opacity: 1;" transform=" translate(-212.598, -187.81)" d="M 322.165 249.778 l -14.979 13.68 v 27.764 h -17.223 v 14.087 h 17.223 v 68.308 h 14.979 v -68.308 h 19.492 v -14.087 h -19.492 v -41.444 M 259.368 373.617 h 14.978 v -82.395 h -14.978 z M 266.858 252.059 c -5.983 0 -10.833 4.851 -10.833 10.835 c 0 5.985 4.85 10.834 10.833 10.834 c 5.98 0 10.832 -4.849 10.832 -10.834 c 0 -5.984 -4.852 -10.835 -10.832 -10.835 M 91.751 322.453 c 2.055 -11.22 11.59 -20.01 23.555 -20.01 c 14.02 0 22.806 9.725 23.368 20.01 H 91.751 z m 62.439 8.789 c 0 -26.928 -15.329 -43.011 -39.445 -43.011 c -18.695 0 -39.258 14.961 -39.258 43.385 S 97.733 375 118.297 375 c 17.199 0 29.911 -8.603 35.893 -20.383 l -12.525 -6.17 c -3.553 7.104 -11.777 12.341 -22.994 12.341 c -15.516 0 -26.733 -10.847 -27.481 -25.245 h 62.627 c 0.373 -1.684 0.373 -4.113 0.373 -4.301 z M 394.635 288.231 c -9.812 0 -17.035 4.128 -22.592 9.687 v -48.14 l -14.978 13.68 v 110.159 h 14.978 v -47.592 c 0 -15.376 10 -22.971 19.26 -22.971 c 9.446 0 17.965 7.759 17.965 24.619 v 45.944 h 15.928 v -45.944 c 0 -30.754 -13.705 -39.442 -30.561 -39.442 M 68.058 291.3 H 8.829 L 0 305.74 h 41.622 L 0 373.818 h 67.308 v -14.44 H 26.436 L 68.058 291.3 M 207.696 288.231 c -9.814 0 -17.038 4.128 -22.593 9.687 v -6.696 h -14.98 v 82.395 h 14.98 v -47.592 c 0 -15.376 10 -22.971 19.261 -22.971 c 9.445 0 17.965 7.759 17.965 24.619 v 45.944 h 15.928 v -45.944 c 0 -30.754 -13.706 -39.442 -30.561 -39.442 M 327.645 116.739 v 33.438 L 216.686 249.35 L 215.247 1.343 l -0.021 -0.723 c 2.985 2.674 13.747 12.254 27.653 24.682 l -0.007 0.608 v 166.665 s 51.498 -46.096 84.773 -75.836" stroke-linecap="round"/>
</g>
<g transform="matrix(1 0 0 1 678.1889 416.1973)" style="" id="238717">
		
<path xml:space="preserve" font-family="Lato" font-size="86" font-style="normal" font-weight="bold" style="stroke: none; stroke-width: 0; stroke-dasharray: none; stroke-linecap: butt; stroke-dashoffset: 0; stroke-linejoin: miter; stroke-miterlimit: 4; is-custom-font: none; font-file-url: none; fill: rgb(236,82,66); fill-rule: nonzero; opacity: 1; white-space: pre;" d="M-241.57 27.02L-266.68-35.16L-257.35-35.16Q-255.84-35.16-254.90-34.43Q-253.95-33.70-253.48-32.54L-253.48-32.54L-238.86 5.39Q-238.13 7.24-237.46 9.45Q-236.79 11.66-236.19 14.12L-236.19 14.12Q-235.20 9.17-233.74 5.39L-233.74 5.39L-219.16-32.54Q-218.78-33.53-217.79-34.35Q-216.80-35.16-215.34-35.16L-215.34-35.16L-206.01-35.16L-231.12 27.02L-241.57 27.02ZM-199.51-35.16L-160.30-35.16L-160.30-25.96L-187.86-25.96L-187.86-7.56L-164.60-7.56L-164.60 1.69L-187.86 1.69L-187.86 27.02L-199.51 27.02L-199.51-35.16ZM-137.68 27.02L-156.99-35.16L-147.27-35.16Q-145.76-35.16-144.75-34.45Q-143.74-33.74-143.40-32.54L-143.40-32.54L-132.82 4.66Q-132.43 6.03-132.11 7.64Q-131.79 9.26-131.49 11.06L-131.49 11.06Q-131.14 9.26-130.73 7.64Q-130.33 6.03-129.85 4.66L-129.85 4.66L-117.64-32.54Q-117.30-33.53-116.29-34.35Q-115.28-35.16-113.81-35.16L-113.81-35.16L-110.42-35.16Q-108.91-35.16-107.92-34.45Q-106.93-33.74-106.55-32.54L-106.55-32.54L-94.42 4.66Q-93.47 7.41-92.79 10.76L-92.79 10.76Q-92.49 9.08-92.16 7.54Q-91.84 5.99-91.50 4.66L-91.50 4.66L-80.92-32.54Q-80.62-33.61-79.59-34.39Q-78.55-35.16-77.09-35.16L-77.09-35.16L-68.02-35.16L-87.33 27.02L-97.77 27.02L-111.36-15.47Q-111.62-16.29-111.90-17.23Q-112.18-18.18-112.44-19.25L-112.44-19.25Q-112.70-18.18-112.98-17.23Q-113.25-16.29-113.51-15.47L-113.51-15.47L-127.23 27.02L-137.68 27.02ZM-16.07 18.50L-16.07 18.50Q-12.16 18.50-9.26 17.79Q-6.36 17.08-3.73 15.84L-3.73 15.84L-3.73 4.53L-11.52 4.53Q-12.63 4.53-13.28 3.90Q-13.92 3.28-13.92 2.38L-13.92 2.38L-13.92-4.16L6.76-4.16L6.76 21.00Q4.39 22.72 1.83 23.98Q-0.72 25.25-3.63 26.07Q-6.53 26.89-9.84 27.30Q-13.15 27.70-16.98 27.70L-16.98 27.70Q-23.77 27.70-29.49 25.34Q-35.21 22.97-39.38 18.76Q-43.55 14.55-45.90 8.70Q-48.24 2.85-48.24-4.07L-48.24-4.07Q-48.24-11.08-45.96-16.93Q-43.68-22.78-39.49-26.99Q-35.30-31.21-29.32-33.53Q-23.34-35.85-15.90-35.85L-15.90-35.85Q-8.29-35.85-2.72-33.59Q2.85-31.34 6.72-27.72L6.72-27.72L3.36-22.48Q2.37-20.89 0.74-20.89L0.74-20.89Q-0.29-20.89-1.37-21.57L-1.37-21.57Q-2.74-22.39-4.19-23.21Q-5.63-24.03-7.37-24.63Q-9.11-25.23-11.28-25.62Q-13.45-26.00-16.29-26.00L-16.29-26.00Q-20.89-26.00-24.61-24.46Q-28.33-22.91-30.95-20.03Q-33.58-17.15-34.99-13.10Q-36.41-9.06-36.41-4.07L-36.41-4.07Q-36.41 1.30-34.91 5.49Q-33.40 9.69-30.69 12.57Q-27.99 15.45-24.24 16.98Q-20.50 18.50-16.07 18.50ZM29.12-35.16L29.12 17.47L54.02 17.47L54.02 27.02L17.55 27.02L17.55-35.16L29.12-35.16ZM118.21-4.07L118.21-4.07Q118.21 2.76 115.94 8.59Q113.66 14.42 109.53 18.67Q105.40 22.93 99.60 25.32Q93.79 27.70 86.74 27.70L86.74 27.70Q79.69 27.70 73.86 25.32Q68.03 22.93 63.88 18.67Q59.73 14.42 57.46 8.59Q55.18 2.76 55.18-4.07L55.18-4.07Q55.18-10.91 57.46-16.74Q59.73-22.56 63.88-26.82Q68.03-31.08 73.86-33.46Q79.69-35.85 86.74-35.85L86.74-35.85Q93.79-35.85 99.60-33.44Q105.40-31.03 109.53-26.80Q113.66-22.56 115.94-16.74Q118.21-10.91 118.21-4.07ZM106.35-4.07L106.35-4.07Q106.35-9.19 104.99-13.25Q103.64-17.32 101.10-20.16Q98.56-22.99 94.93-24.50Q91.30-26.00 86.74-26.00L86.74-26.00Q82.18-26.00 78.53-24.50Q74.87-22.99 72.31-20.16Q69.75-17.32 68.38-13.25Q67.00-9.19 67.00-4.07L67.00-4.07Q67.00 1.04 68.38 5.11Q69.75 9.17 72.31 11.99Q74.87 14.80 78.53 16.31Q82.18 17.81 86.74 17.81L86.74 17.81Q91.30 17.81 94.93 16.31Q98.56 14.80 101.10 11.99Q103.64 9.17 104.99 5.11Q106.35 1.04 106.35-4.07ZM150.81 27.02L127.33 27.02L127.33-35.16L148.79-35.16Q154.89-35.16 159.21-34.00Q163.54-32.84 166.31-30.69Q169.08-28.54 170.37-25.49Q171.66-22.43 171.66-18.61L171.66-18.61Q171.66-16.41 171.02-14.41Q170.37-12.42 169.02-10.67Q167.66-8.93 165.58-7.51Q163.49-6.09 160.61-5.11L160.61-5.11Q173.43-2.22 173.43 8.74L173.43 8.74Q173.43 12.70 171.92 16.05Q170.42 19.40 167.54 21.83Q164.65 24.26 160.44 25.64Q156.23 27.02 150.81 27.02L150.81 27.02ZM150.59-0.25L138.90-0.25L138.90 17.99L150.64 17.99Q153.86 17.99 156.03 17.21Q158.20 16.44 159.52 15.15Q160.83 13.86 161.41 12.14Q161.99 10.42 161.99 8.48L161.99 8.48Q161.99 6.46 161.34 4.85Q160.70 3.24 159.32 2.10Q157.95 0.96 155.80 0.36Q153.65-0.25 150.59-0.25L150.59-0.25ZM138.90-26.22L138.90-8.24L148.14-8.24Q154.03-8.24 157.09-10.39Q160.14-12.54 160.14-17.23L160.14-17.23Q160.14-22.09 157.39-24.15Q154.64-26.22 148.79-26.22L148.79-26.22L138.90-26.22ZM213.59-35.16L238.01 27.02L229.07 27.02Q227.56 27.02 226.60 26.26Q225.63 25.51 225.20 24.39L225.20 24.39L220.55 11.71L194.80 11.71L190.15 24.39Q189.81 25.38 188.80 26.20Q187.79 27.02 186.33 27.02L186.33 27.02L177.34 27.02L201.76-35.16L213.59-35.16ZM205.33-17.06L197.76 3.54L217.59 3.54L210.02-17.15Q209.50-18.52 208.88-20.39Q208.26-22.26 207.65-24.46L207.65-24.46Q207.05-22.26 206.47-20.37Q205.89-18.48 205.33-17.06L205.33-17.06ZM255.99-35.16L255.99 17.47L280.88 17.47L280.88 27.02L244.42 27.02L244.42-35.16L255.99-35.16Z"/></g>
<g transform="matrix(1 0 0 1 679.8558 565.9563)" style="" id="417858">
		
<path xml:space="preserve" font-family="Lato" font-size="76" font-style="normal" font-weight="bold" style="stroke: none; stroke-width: 0; stroke-dasharray: none; stroke-linecap: butt; stroke-dashoffset: 0; stroke-linejoin: miter; stroke-miterlimit: 4; is-custom-font: none; font-file-url: none; fill: rgb(236,82,66); fill-rule: nonzero; opacity: 1; white-space: pre;" d="M-208.96 10.92L-208.96 10.92Q-208.13 10.92-207.52 11.56L-207.52 11.56L-203.49 15.93Q-206.83 20.07-211.72 22.28Q-216.60 24.48-223.44 24.48L-223.44 24.48Q-229.56 24.48-234.44 22.39Q-239.32 20.30-242.78 16.58Q-246.24 12.85-248.08 7.69Q-249.93 2.52-249.93-3.60L-249.93-3.60Q-249.93-9.79-247.87-14.94Q-245.82-20.09-242.10-23.82Q-238.37-27.54-233.19-29.61Q-228-31.68-221.73-31.68L-221.73-31.68Q-215.61-31.68-211.03-29.72Q-206.45-27.77-203.19-24.54L-203.19-24.54L-206.61-19.79Q-206.91-19.33-207.39-18.99Q-207.86-18.65-208.70-18.65L-208.70-18.65Q-209.57-18.65-210.48-19.33Q-211.39-20.02-212.80-20.81Q-214.21-21.61-216.35-22.30Q-218.50-22.98-221.81-22.98L-221.81-22.98Q-225.68-22.98-228.93-21.63Q-232.18-20.28-234.52-17.77Q-236.85-15.27-238.17-11.67Q-239.48-8.08-239.48-3.60L-239.48-3.60Q-239.48 1.04-238.17 4.65Q-236.85 8.26-234.61 10.73Q-232.37 13.20-229.33 14.51Q-226.29 15.82-222.79 15.82L-222.79 15.82Q-220.70 15.82-219.01 15.59Q-217.32 15.36-215.90 14.87Q-214.47 14.37-213.20 13.60Q-211.93 12.82-210.67 11.68L-210.67 11.68Q-210.29 11.33-209.87 11.13Q-209.46 10.92-208.96 10.92ZM-179.66-15.72L-179.66-15.72Q-175.29-15.72-171.74-14.32Q-168.19-12.91-165.68-10.33Q-163.17-7.74-161.80-4.02Q-160.44-0.29-160.44 4.30L-160.44 4.30Q-160.44 8.94-161.80 12.66Q-163.17 16.39-165.68 19.01Q-168.19 21.63-171.74 23.04Q-175.29 24.44-179.66 24.44L-179.66 24.44Q-184.03 24.44-187.61 23.04Q-191.18 21.63-193.71 19.01Q-196.23 16.39-197.62 12.66Q-199.01 8.94-199.01 4.30L-199.01 4.30Q-199.01-0.29-197.62-4.02Q-196.23-7.74-193.71-10.33Q-191.18-12.91-187.61-14.32Q-184.03-15.72-179.66-15.72ZM-179.66 17.22L-179.66 17.22Q-174.80 17.22-172.46 13.96Q-170.13 10.69-170.13 4.38L-170.13 4.38Q-170.13-1.93-172.46-5.23Q-174.80-8.54-179.66-8.54L-179.66-8.54Q-184.60-8.54-186.96-5.21Q-189.32-1.89-189.32 4.38L-189.32 4.38Q-189.32 10.65-186.96 13.94Q-184.60 17.22-179.66 17.22ZM-143.72 23.87L-153.10 23.87L-153.10-15.11L-147.36-15.11Q-145.54-15.11-144.97-13.40L-144.97-13.40L-144.32-10.33Q-143.15-11.54-141.84-12.53Q-140.52-13.52-139.06-14.24Q-137.60-14.96-135.93-15.34Q-134.25-15.72-132.28-15.72L-132.28-15.72Q-129.09-15.72-126.62-14.64Q-124.15-13.56-122.49-11.60Q-120.84-9.64-119.99-6.92Q-119.13-4.21-119.13-0.94L-119.13-0.94L-119.13 23.87L-128.52 23.87L-128.52-0.94Q-128.52-4.51-130.17-6.47Q-131.82-8.43-135.13-8.43L-135.13-8.43Q-137.56-8.43-139.69-7.32Q-141.82-6.22-143.72-4.32L-143.72-4.32L-143.72 23.87ZM-96.41-15.80L-96.41-15.80Q-93.90-15.80-91.69-15.28Q-89.49-14.77-87.67-13.78L-87.67-13.78L-76.46-13.78L-76.46-10.29Q-76.46-9.41-76.91-8.92Q-77.37-8.43-78.47-8.24L-78.47-8.24L-81.97-7.59Q-81.59-6.60-81.38-5.50Q-81.17-4.40-81.17-3.18L-81.17-3.18Q-81.17-0.29-82.33 2.04Q-83.49 4.38-85.52 6.01Q-87.55 7.65-90.35 8.54Q-93.14 9.43-96.41 9.43L-96.41 9.43Q-98.61 9.43-100.70 9.02L-100.70 9.02Q-102.52 10.12-102.52 11.49L-102.52 11.49Q-102.52 12.66-101.44 13.22Q-100.36 13.77-98.59 13.99Q-96.82 14.22-94.58 14.28Q-92.34 14.34-89.98 14.53Q-87.63 14.72-85.39 15.19Q-83.14 15.67-81.38 16.69Q-79.61 17.72-78.53 19.49Q-77.44 21.25-77.44 24.03L-77.44 24.03Q-77.44 26.61-78.72 29.04Q-79.99 31.47-82.40 33.37Q-84.82 35.27-88.31 36.43Q-91.81 37.59-96.29 37.59L-96.29 37.59Q-100.74 37.59-104.01 36.74Q-107.27 35.88-109.42 34.46Q-111.57 33.03-112.63 31.17Q-113.70 29.31-113.70 27.29L-113.70 27.29Q-113.70 24.56-112.02 22.70Q-110.35 20.83-107.39 19.73L-107.39 19.73Q-108.83 18.93-109.71 17.60Q-110.58 16.27-110.58 14.15L-110.58 14.15Q-110.58 13.27-110.28 12.34Q-109.97 11.41-109.35 10.50Q-108.72 9.59-107.77 8.77Q-106.82 7.95-105.53 7.31L-105.53 7.31Q-108.49 5.71-110.18 3.05Q-111.87 0.39-111.87-3.18L-111.87-3.18Q-111.87-6.07-110.71-8.41Q-109.55-10.74-107.48-12.40Q-105.41-14.05-102.58-14.92Q-99.75-15.80-96.41-15.80ZM-86.11 25.62L-86.11 25.62Q-86.11 24.48-86.79 23.76Q-87.48 23.04-88.65 22.64Q-89.83 22.24-91.41 22.05Q-92.99 21.86-94.75 21.77Q-96.52 21.67-98.40 21.58Q-100.28 21.48-102.03 21.25L-102.03 21.25Q-103.63 22.13-104.60 23.32Q-105.56 24.52-105.56 26.08L-105.56 26.08Q-105.56 27.10-105.05 28.00Q-104.54 28.89-103.42 29.54Q-102.30 30.18-100.51 30.54Q-98.72 30.90-96.14 30.90L-96.14 30.90Q-93.52 30.90-91.62 30.51Q-89.72 30.11-88.48 29.40Q-87.25 28.70-86.68 27.73Q-86.11 26.76-86.11 25.62ZM-96.41 3.43L-96.41 3.43Q-94.66 3.43-93.37 2.96Q-92.07 2.48-91.22 1.64Q-90.36 0.81-89.93-0.37Q-89.49-1.55-89.49-2.95L-89.49-2.95Q-89.49-5.84-91.22-7.53Q-92.95-9.22-96.41-9.22L-96.41-9.22Q-99.86-9.22-101.59-7.53Q-103.32-5.84-103.32-2.95L-103.32-2.95Q-103.32-1.59-102.89-0.41Q-102.45 0.77-101.59 1.63Q-100.74 2.48-99.43 2.96Q-98.12 3.43-96.41 3.43ZM-61.18 23.87L-70.57 23.87L-70.57-15.11L-65.06-15.11Q-63.61-15.11-63.04-14.58Q-62.47-14.05-62.28-12.76L-62.28-12.76L-61.71-8.05Q-59.62-11.66-56.81-13.75Q-54.00-15.84-50.50-15.84L-50.50-15.84Q-47.61-15.84-45.71-14.51L-45.71-14.51L-46.93-7.48Q-47.04-6.79-47.42-6.51Q-47.80-6.22-48.45-6.22L-48.45-6.22Q-49.02-6.22-50.01-6.49Q-51.00-6.75-52.63-6.75L-52.63-6.75Q-55.56-6.75-57.65-5.14Q-59.74-3.52-61.18-0.41L-61.18-0.41L-61.18 23.87ZM-23.41-15.72L-23.41-15.72Q-19.72-15.72-16.63-14.54Q-13.53-13.37-11.29-11.10Q-9.04-8.84-7.79-5.56Q-6.54-2.27-6.54 1.95L-6.54 1.95Q-6.54 3.01-6.63 3.72Q-6.73 4.42-6.97 4.82Q-7.22 5.22-7.64 5.39Q-8.06 5.56-8.70 5.56L-8.70 5.56L-32.79 5.56Q-32.38 11.56-29.56 14.37Q-26.75 17.19-22.12 17.19L-22.12 17.19Q-19.84 17.19-18.18 16.65Q-16.53 16.12-15.30 15.48Q-14.06 14.83-13.13 14.30Q-12.20 13.77-11.32 13.77L-11.32 13.77Q-10.75 13.77-10.34 13.99Q-9.92 14.22-9.61 14.64L-9.61 14.64L-6.88 18.06Q-8.44 19.88-10.37 21.12Q-12.31 22.35-14.42 23.10Q-16.53 23.84-18.72 24.14Q-20.90 24.44-22.95 24.44L-22.95 24.44Q-27.02 24.44-30.51 23.10Q-34.01 21.75-36.59 19.11Q-39.18 16.46-40.66 12.57Q-42.14 8.67-42.14 3.54L-42.14 3.54Q-42.14-0.45-40.85-3.96Q-39.56-7.48-37.15-10.08Q-34.73-12.68-31.26-14.20Q-27.78-15.72-23.41-15.72ZM-23.22-9.00L-23.22-9.00Q-27.32-9.00-29.64-6.68Q-31.96-4.36-32.60-0.10L-32.60-0.10L-14.97-0.10Q-14.97-1.93-15.47-3.54Q-15.96-5.16-16.99-6.37Q-18.01-7.59-19.57-8.29Q-21.13-9.00-23.22-9.00ZM26.37-10.90L24.24-7.51Q23.86-6.91 23.45-6.66Q23.03-6.41 22.38-6.41L22.38-6.41Q21.70-6.41 20.92-6.79Q20.14-7.17 19.11-7.65Q18.09-8.12 16.78-8.50Q15.47-8.88 13.68-8.88L13.68-8.88Q10.91-8.88 9.31-7.70Q7.71-6.53 7.71-4.63L7.71-4.63Q7.71-3.37 8.53-2.52Q9.35-1.66 10.70-1.02Q12.05-0.37 13.76 0.14Q15.47 0.66 17.25 1.26Q19.04 1.87 20.75 2.65Q22.46 3.43 23.81 4.63Q25.16 5.82 25.97 7.50Q26.79 9.17 26.79 11.52L26.79 11.52Q26.79 14.34 25.76 16.71Q24.74 19.09 22.76 20.82Q20.79 22.54 17.88 23.51Q14.97 24.48 11.21 24.48L11.21 24.48Q9.20 24.48 7.28 24.12Q5.36 23.76 3.59 23.11Q1.82 22.47 0.32 21.59Q-1.18 20.72-2.32 19.69L-2.32 19.69L-0.15 16.12Q0.27 15.48 0.84 15.13Q1.41 14.79 2.28 14.79L2.28 14.79Q3.15 14.79 3.93 15.29Q4.71 15.78 5.74 16.35Q6.76 16.92 8.15 17.41Q9.54 17.91 11.67 17.91L11.67 17.91Q13.34 17.91 14.53 17.51Q15.73 17.11 16.51 16.46Q17.29 15.82 17.65 14.96Q18.01 14.11 18.01 13.20L18.01 13.20Q18.01 11.83 17.19 10.95Q16.38 10.08 15.03 9.43Q13.68 8.79 11.95 8.28Q10.22 7.76 8.42 7.15Q6.61 6.55 4.88 5.73Q3.15 4.91 1.80 3.66Q0.46 2.40-0.36 0.58Q-1.18-1.24-1.18-3.83L-1.18-3.83Q-1.18-6.22-0.23-8.39Q0.72-10.55 2.56-12.17Q4.41-13.78 7.16-14.75Q9.92-15.72 13.53-15.72L13.53-15.72Q17.56-15.72 20.86-14.39Q24.17-13.06 26.37-10.90L26.37-10.90ZM59.58-10.90L57.46-7.51Q57.08-6.91 56.66-6.66Q56.24-6.41 55.59-6.41L55.59-6.41Q54.91-6.41 54.13-6.79Q53.35-7.17 52.33-7.65Q51.30-8.12 49.99-8.50Q48.68-8.88 46.89-8.88L46.89-8.88Q44.12-8.88 42.52-7.70Q40.93-6.53 40.93-4.63L40.93-4.63Q40.93-3.37 41.74-2.52Q42.56-1.66 43.91-1.02Q45.26-0.37 46.97 0.14Q48.68 0.66 50.46 1.26Q52.25 1.87 53.96 2.65Q55.67 3.43 57.02 4.63Q58.37 5.82 59.18 7.50Q60.00 9.17 60.00 11.52L60.00 11.52Q60.00 14.34 58.98 16.71Q57.95 19.09 55.97 20.82Q54.00 22.54 51.09 23.51Q48.18 24.48 44.42 24.48L44.42 24.48Q42.41 24.48 40.49 24.12Q38.57 23.76 36.80 23.11Q35.04 22.47 33.53 21.59Q32.03 20.72 30.89 19.69L30.89 19.69L33.06 16.12Q33.48 15.48 34.05 15.13Q34.62 14.79 35.49 14.79L35.49 14.79Q36.37 14.79 37.14 15.29Q37.92 15.78 38.95 16.35Q39.98 16.92 41.36 17.41Q42.75 17.91 44.88 17.91L44.88 17.91Q46.55 17.91 47.75 17.51Q48.94 17.11 49.72 16.46Q50.50 15.82 50.86 14.96Q51.22 14.11 51.22 13.20L51.22 13.20Q51.22 11.83 50.41 10.95Q49.59 10.08 48.24 9.43Q46.89 8.79 45.16 8.28Q43.43 7.76 41.63 7.15Q39.82 6.55 38.09 5.73Q36.37 4.91 35.02 3.66Q33.67 2.40 32.85 0.58Q32.03-1.24 32.03-3.83L32.03-3.83Q32.03-6.22 32.98-8.39Q33.93-10.55 35.78-12.17Q37.62-13.78 40.37-14.75Q43.13-15.72 46.74-15.72L46.74-15.72Q50.77-15.72 54.07-14.39Q57.38-13.06 59.58-10.90L59.58-10.90ZM100.05-31.68L100.05-31.68Q103.85-31.68 107.01-30.56Q110.16-29.44 112.40-27.39Q114.65-25.34 115.90-22.45Q117.15-19.56 117.15-16.03L117.15-16.03Q117.15-12.99 116.26-10.40Q115.37-7.82 113.87-5.46Q112.37-3.11 110.35-0.90Q108.34 1.30 106.13 3.58L106.13 3.58L93.75 16.24Q95.57 15.70 97.32 15.42Q99.07 15.13 100.66 15.13L100.66 15.13L114.76 15.13Q116.28 15.13 117.17 15.99Q118.07 16.84 118.07 18.25L118.07 18.25L118.07 23.87L80.37 23.87L80.37 20.76Q80.37 19.81 80.77 18.78Q81.17 17.76 82.04 16.88L82.04 16.88L98.72 0.16Q100.81-1.97 102.47-3.90Q104.12-5.84 105.24-7.74Q106.36-9.64 106.95-11.60Q107.54-13.56 107.54-15.72L107.54-15.72Q107.54-17.70 106.97-19.20Q106.40-20.70 105.34-21.73Q104.27-22.75 102.81-23.26Q101.35-23.78 99.52-23.78L99.52-23.78Q96.14-23.78 93.95-22.07Q91.77-20.36 90.90-17.47L90.90-17.47Q90.48-16.03 89.64-15.40Q88.81-14.77 87.51-14.77L87.51-14.77Q86.94-14.77 86.26-14.89L86.26-14.89L81.32-15.76Q81.89-19.71 83.52-22.69Q85.16-25.68 87.61-27.67Q90.06-29.67 93.23-30.67Q96.41-31.68 100.05-31.68ZM163.44-3.60L163.44-3.60Q163.44 3.58 161.90 8.88Q160.36 14.18 157.64 17.64Q154.93 21.10 151.22 22.79Q147.52 24.48 143.22 24.48L143.22 24.48Q138.93 24.48 135.26 22.79Q131.59 21.10 128.90 17.64Q126.20 14.18 124.68 8.88Q123.16 3.58 123.16-3.60L123.16-3.60Q123.16-10.82 124.68-16.10Q126.20-21.38 128.90-24.84Q131.59-28.30 135.26-29.99Q138.93-31.68 143.22-31.68L143.22-31.68Q147.52-31.68 151.22-29.99Q154.93-28.30 157.64-24.84Q160.36-21.38 161.90-16.10Q163.44-10.82 163.44-3.60ZM153.75-3.60L153.75-3.60Q153.75-9.57 152.87-13.48Q152.00-17.39 150.54-19.71Q149.07-22.03 147.17-22.96Q145.27-23.89 143.22-23.89L143.22-23.89Q141.21-23.89 139.33-22.96Q137.45-22.03 136.00-19.71Q134.56-17.39 133.70-13.48Q132.85-9.57 132.85-3.60L132.85-3.60Q132.85 2.37 133.70 6.28Q134.56 10.19 136.00 12.51Q137.45 14.83 139.33 15.76Q141.21 16.69 143.22 16.69L143.22 16.69Q145.27 16.69 147.17 15.76Q149.07 14.83 150.54 12.51Q152.00 10.19 152.87 6.28Q153.75 2.37 153.75-3.60ZM188.21-31.68L188.21-31.68Q192.01-31.68 195.17-30.56Q198.32-29.44 200.56-27.39Q202.81-25.34 204.06-22.45Q205.31-19.56 205.31-16.03L205.31-16.03Q205.31-12.99 204.42-10.40Q203.53-7.82 202.03-5.46Q200.53-3.11 198.51-0.90Q196.50 1.30 194.29 3.58L194.29 3.58L181.91 16.24Q183.73 15.70 185.48 15.42Q187.23 15.13 188.82 15.13L188.82 15.13L202.92 15.13Q204.44 15.13 205.33 15.99Q206.23 16.84 206.23 18.25L206.23 18.25L206.23 23.87L168.53 23.87L168.53 20.76Q168.53 19.81 168.93 18.78Q169.33 17.76 170.20 16.88L170.20 16.88L186.88 0.16Q188.97-1.97 190.63-3.90Q192.28-5.84 193.40-7.74Q194.52-9.64 195.11-11.60Q195.70-13.56 195.70-15.72L195.70-15.72Q195.70-17.70 195.13-19.20Q194.56-20.70 193.50-21.73Q192.43-22.75 190.97-23.26Q189.51-23.78 187.68-23.78L187.68-23.78Q184.30-23.78 182.11-22.07Q179.93-20.36 179.06-17.47L179.06-17.47Q178.64-16.03 177.80-15.40Q176.97-14.77 175.67-14.77L175.67-14.77Q175.10-14.77 174.42-14.89L174.42-14.89L169.48-15.76Q170.05-19.71 171.68-22.69Q173.32-25.68 175.77-27.67Q178.22-29.67 181.39-30.67Q184.57-31.68 188.21-31.68ZM219.64 23.87L219.64 16.84L230.77 16.84L230.77-15.19Q230.77-17.05 230.89-19.10L230.89-19.10L222.98-12.49Q222.49-12.07 221.98-11.92Q221.46-11.77 220.97-11.77L220.97-11.77Q220.21-11.77 219.58-12.09Q218.96-12.42 218.65-12.83L218.65-12.83L215.69-16.90L232.45-31.15L240.16-31.15L240.16 16.84L250.04 16.84L250.04 23.87L219.64 23.87Z"/></g>
</svg>